<svg id="Layer_1" data-name="Layer 1" xmlns="http://www.w3.org/2000/svg" viewBox="0 0 1652.33 1504.56"><defs><style>.cls-1{fill:#05101f;}.cls-2{fill:#62558f;}.cls-2,.cls-3,.cls-4,.cls-5,.cls-6,.cls-7,.cls-8{fill-rule:evenodd;}.cls-3{fill:#e48026;}.cls-4{fill:#fcbe75;}.cls-5{fill:#81e6d9;}.cls-6{fill:#f05f22;}.cls-7{fill:#e14825;}.cls-8{fill:#bf3425;}</style></defs><rect class="cls-1" x="0.98" width="1643.53" height="1504.56"/><path class="cls-2" d="M266.5,648.19s-.63-5.22-3.4-6.15-4.15-.81-5.91.53-2.34,5.09-1.17,8.24a5.21,5.21,0,0,0,5.29,3.74c1.51-.2,2-.06,2.93-.8S266.88,650,266.5,648.19ZM1651.35,976.34v15.55a7.05,7.05,0,0,1-2.2-1.2c-2.18-1.66-2.89-6.3-1.45-10.2a7,7,0,0,1,3.65-4.15ZM1320.81,1500.5h-6.76a5.58,5.58,0,0,1,.26-.91,3.26,3.26,0,0,1,3.28-2.33c.94.13,1.25,0,1.81.5a5.59,5.59,0,0,1,1.41,2.74Zm-1075.41,0h-6.93c1.88-1.16,3.56-1.17,6.58-.14ZM-1,1183v-1A3.78,3.78,0,0,1-1,1183ZM-1,96.27v-1A4.18,4.18,0,0,1-1,96.27ZM1301.83,595.72s-.63,5.22-3.4,6.16-4.16.8-5.91-.54-2.34-5.09-1.17-8.23a5.23,5.23,0,0,1,5.29-3.75c1.51.2,2,.07,2.92.8S1302.2,593.94,1301.83,595.72Zm46.2-119.4s-1.16,9.55-6.23,11.26-7.6,1.47-10.81-1-4.26-9.3-2.14-15.05,6.91-7.22,9.68-6.86,3.68.12,5.35,1.47,4.83,6.92,4.15,10.16ZM1320.1,193.55s-1.15,9.55-6.22,11.27-7.6,1.46-10.82-1-4.26-9.31-2.13-15.06,6.91-7.22,9.67-6.86,3.69.13,5.35,1.47,4.83,6.92,4.15,10.16ZM1308,161.75s-.78,6.47-4.21,7.63-5.15,1-7.34-.67-2.88-6.3-1.43-10.19a6.44,6.44,0,0,1,6.58-4.65c1.88.25,2.49.09,3.62,1s3.27,4.68,2.82,6.88Zm-103,85.43s-.78,6.47-4.21,7.63-5.15,1-7.33-.66-2.89-6.3-1.45-10.2a6.46,6.46,0,0,1,6.59-4.64c1.88.25,2.49.08,3.62,1s3.28,4.69,2.82,6.88ZM1159,68.27s-1,6-5.64,7.09-6.88.92-9.81-.62-3.86-5.86-1.88-9.48,6.26-4.55,8.76-4.32,3.34.08,4.86.93,4.38,4.35,3.76,6.4ZM856,251.68s-.78,6.47-4.22,7.63-5.14,1-7.32-.66-2.89-6.31-1.45-10.2a6.49,6.49,0,0,1,6.58-4.65c1.88.25,2.5.09,3.62,1s3.29,4.68,2.83,6.88Zm13.79,45.67s-.38,3.23-2.1,3.81-2.57.5-3.66-.33-1.45-3.15-.73-5.1a3.23,3.23,0,0,1,3.28-2.32c.94.12,1.25,0,1.81.49s1.64,2.35,1.4,3.45Zm-17.1-82.62s-.4,3.24-2.11,3.82-2.58.5-3.67-.33-1.44-3.15-.72-5.1a3.23,3.23,0,0,1,3.28-2.32c.94.12,1.24,0,1.81.49s1.64,2.35,1.41,3.44ZM1279.46,323s-.38,3.23-2.1,3.81-2.57.5-3.66-.33-1.45-3.15-.73-5.1a3.23,3.23,0,0,1,3.28-2.32c.94.12,1.25,0,1.81.49S1279.7,321.93,1279.46,323Zm80,5s-.38,3.23-2.1,3.81-2.57.5-3.66-.33-1.45-3.15-.73-5.1a3.24,3.24,0,0,1,3.28-2.32c.94.12,1.25,0,1.81.5S1359.71,326.93,1359.47,328Zm-38.67,86.49s-.38,3.24-2.1,3.82-2.57.49-3.66-.33-1.45-3.15-.73-5.1a3.26,3.26,0,0,1,3.28-2.33c.94.13,1.25.05,1.81.5a4.79,4.79,0,0,1,1.4,3.44Zm-299.27-34.14s-.78,6.47-4.21,7.63-5.14,1-7.32-.67-2.89-6.3-1.44-10.19a6.44,6.44,0,0,1,6.58-4.65c1.88.25,2.5.08,3.63,1s3.27,4.68,2.82,6.88Zm59.84-80.53s-.39,3.24-2.11,3.82-2.57.5-3.66-.33-1.44-3.15-.73-5.1a3.23,3.23,0,0,1,3.28-2.32c.94.12,1.25,0,1.81.49S1081.61,298.76,1081.37,299.85Zm-116,199s-.4,3.23-2.11,3.82-2.58.49-3.67-.34-1.44-3.15-.72-5.1A3.26,3.26,0,0,1,962.1,495c.94.13,1.24,0,1.82.5s1.63,2.34,1.4,3.44Zm211.34,39.7s-.39,3.24-2.11,3.82-2.56.5-3.65-.33-1.45-3.15-.73-5.1a3.25,3.25,0,0,1,3.27-2.33c.94.13,1.25,0,1.82.5S1176.9,537.49,1176.66,538.59Zm-307.36-78s-.38,3.24-2.09,3.82-2.58.5-3.67-.33-1.44-3.15-.73-5.1a3.23,3.23,0,0,1,3.28-2.32c.94.12,1.25,0,1.81.49s1.64,2.35,1.4,3.44Zm174-285.71s-.4,3.23-2.11,3.81-2.58.5-3.67-.33-1.44-3.15-.72-5.1a3.23,3.23,0,0,1,3.28-2.32c.94.12,1.24,0,1.81.49s1.64,2.35,1.41,3.45Zm119.33-7.09s-.38,3.23-2.1,3.81-2.57.5-3.66-.33-1.44-3.15-.73-5.1a3.23,3.23,0,0,1,3.27-2.32c.95.12,1.26,0,1.82.5s1.64,2.34,1.4,3.44ZM914.08,502.71s-.79,6.47-4.22,7.63-5.14,1-7.32-.66-2.89-6.3-1.44-10.2a6.46,6.46,0,0,1,6.58-4.65c1.88.25,2.5.09,3.63,1s3.27,4.69,2.82,6.88Zm176,82.95s-.78,6.47-4.21,7.63-5.15,1-7.33-.66-2.89-6.3-1.44-10.2a6.46,6.46,0,0,1,6.58-4.65c1.89.25,2.51.09,3.63,1s3.28,4.69,2.83,6.88Zm86.67-143.92s-.78,6.47-4.21,7.63-5.14,1-7.32-.67-2.89-6.3-1.45-10.19a6.48,6.48,0,0,1,6.58-4.65c1.88.25,2.49.09,3.63,1s3.27,4.68,2.82,6.88Zm-180-337.67s-.4,3.24-2.11,3.82-2.58.49-3.67-.33-1.44-3.15-.72-5.1a3.22,3.22,0,0,1,3.27-2.32c.94.12,1.25,0,1.82.49S996.93,103,996.71,104.07Zm-76,222.62s-.39,3.24-2.11,3.82-2.57.49-3.66-.34-1.45-3.15-.72-5.1a3.24,3.24,0,0,1,3.27-2.32c.94.13,1.25,0,1.81.5s1.64,2.34,1.41,3.44Zm220,27.65s-.39,3.24-2.1,3.82-2.58.49-3.67-.34-1.45-3.15-.72-5.09a3.25,3.25,0,0,1,3.27-2.33c.94.13,1.25,0,1.82.5s1.63,2.34,1.4,3.44Zm-92.67,141.8s-.39,3.23-2.11,3.81-2.57.5-3.66-.33-1.44-3.15-.73-5.1a3.23,3.23,0,0,1,3.28-2.32c.94.12,1.25,0,1.81.5S1048.32,495,1048.08,496.14ZM968.15,609.47s-.39,3.24-2.1,3.81-2.58.5-3.67-.33-1.44-3.15-.72-5.1a3.24,3.24,0,0,1,3.27-2.32c.94.13,1.25,0,1.82.5S968.38,608.37,968.15,609.47Zm260-2.13s-.39,3.24-2.1,3.82-2.58.5-3.67-.33-1.44-3.15-.72-5.1a3.21,3.21,0,0,1,3.27-2.32c.94.12,1.25,0,1.81.49S1228.4,606.24,1228.17,607.34Zm-159.3-417.71s-.77,6.47-4.2,7.62-5.15,1-7.34-.66-2.88-6.3-1.43-10.2a6.45,6.45,0,0,1,6.58-4.64c1.88.25,2.5.08,3.63,1s3.27,4.69,2.82,6.89Zm-34.79,37.31s-1,8.66-5.64,10.21-6.89,1.33-9.81-.89-3.86-8.43-1.88-13.65a8.63,8.63,0,0,1,8.76-6.21c2.5.33,3.34.11,4.85,1.33s4.39,6.27,3.77,9.21ZM1246,72.15s-.63,5.22-3.39,6.16-4.16.8-5.92-.54-2.33-5.09-1.16-8.23a5.21,5.21,0,0,1,5.28-3.75c1.52.2,2,.07,2.93.8S1246.4,70.37,1246,72.15ZM1120.87,15s-.4,3.24-2.11,3.82-2.58.49-3.67-.34-1.45-3.14-.72-5.1a3.24,3.24,0,0,1,3.27-2.32c.94.13,1.25,0,1.82.5S1121.09,13.92,1120.87,15Zm-86.58,47.1s-.79,6.47-4.21,7.63-5.15,1-7.33-.66-2.89-6.3-1.44-10.2a6.46,6.46,0,0,1,6.58-4.65c1.88.25,2.5.09,3.63,1s3.27,4.68,2.82,6.88ZM912.34,85.9s-.4,3.23-2.11,3.81-2.58.5-3.67-.33-1.44-3.15-.72-5.1A3.24,3.24,0,0,1,909.12,82c.94.13,1.24,0,1.8.5s1.65,2.34,1.42,3.44Zm260-2.13s-.39,3.24-2.1,3.82-2.58.49-3.67-.33-1.44-3.15-.72-5.1a3.24,3.24,0,0,1,3.28-2.33c.94.13,1.24,0,1.8.5S1172.59,82.67,1172.35,83.77ZM946.74,198.28s-.38,3.23-2.1,3.81-2.58.5-3.67-.33-1.44-3.15-.71-5.1a3.21,3.21,0,0,1,3.27-2.32c.94.12,1.25,0,1.81.49s1.64,2.35,1.4,3.45ZM863,96.83s-1.14,9.55-6.21,11.26-7.6,1.47-10.83-1-4.26-9.3-2.12-15,6.91-7.23,9.67-6.86,3.68.12,5.36,1.47,4.83,6.92,4.13,10.16Zm36.11,80.28s-1.15,9.55-6.21,11.26-7.6,1.47-10.83-1-4.26-9.3-2.12-15,6.9-7.23,9.67-6.86,3.68.12,5.35,1.47,4.83,6.92,4.14,10.16Zm0,219.9s-1.15,9.55-6.21,11.26-7.6,1.47-10.83-1-4.26-9.3-2.12-15,6.9-7.23,9.67-6.86,3.68.12,5.35,1.47,4.83,6.92,4.14,10.16ZM887.61,594.22s-1.14,9.55-6.21,11.26-7.6,1.47-10.83-1-4.26-9.3-2.12-15.05,6.9-7.22,9.66-6.86,3.69.12,5.36,1.47,4.84,6.92,4.14,10.16Zm349.58-205.94s-1.15,9.55-6.21,11.27-7.6,1.46-10.83-1-4.26-9.31-2.13-15.06,6.91-7.22,9.68-6.86,3.67.13,5.35,1.47,4.83,6.92,4.14,10.16ZM1395.7,230.52s-.78,6.47-4.22,7.63-5.14,1-7.33-.67-2.88-6.3-1.44-10.2a6.46,6.46,0,0,1,6.58-4.64c1.88.25,2.49.08,3.62,1s3.28,4.69,2.82,6.89Zm13.79,45.66s-.38,3.24-2.11,3.82-2.56.49-3.66-.34-1.44-3.14-.72-5.1a3.26,3.26,0,0,1,3.28-2.32c.94.13,1.25.05,1.81.5S1409.73,275.08,1409.49,276.18Zm-17.1-82.61s-.4,3.23-2.11,3.82-2.58.49-3.67-.34-1.44-3.15-.72-5.1a3.25,3.25,0,0,1,3.28-2.32c.94.13,1.24,0,1.81.5S1392.61,192.47,1392.39,193.57Zm168.85,165.6s-.78,6.47-4.21,7.63-5.14,1-7.33-.66-2.88-6.3-1.44-10.2a6.45,6.45,0,0,1,6.58-4.64c1.88.25,2.5.08,3.63,1s3.27,4.69,2.82,6.88Zm59.84-80.52s-.4,3.24-2.11,3.82-2.57.49-3.67-.34-1.43-3.15-.72-5.1a3.24,3.24,0,0,1,3.27-2.32c.94.13,1.25,0,1.82.5S1621.3,277.55,1621.08,278.65ZM1505,477.73s-.39,3.23-2.1,3.81-2.58.5-3.67-.33-1.44-3.15-.72-5.1a3.21,3.21,0,0,1,3.28-2.32c.94.12,1.24,0,1.8.49S1505.27,476.63,1505,477.73Zm-96-38.32s-.39,3.24-2.11,3.82-2.56.49-3.65-.34-1.45-3.15-.73-5.09a3.25,3.25,0,0,1,3.27-2.33c.94.13,1.26,0,1.82.5s1.64,2.34,1.4,3.44Zm174-285.72s-.39,3.24-2.1,3.82-2.58.49-3.67-.34-1.44-3.14-.73-5.09a3.26,3.26,0,0,1,3.29-2.33c.94.13,1.24,0,1.8.5s1.65,2.35,1.41,3.44ZM1453.8,481.55s-.78,6.47-4.21,7.63-5.14,1-7.33-.67-2.88-6.3-1.43-10.2a6.45,6.45,0,0,1,6.58-4.64c1.88.25,2.5.08,3.63,1s3.27,4.68,2.82,6.88Zm176,83s-.79,6.47-4.22,7.63-5.14,1-7.32-.67-2.89-6.3-1.44-10.2a6.46,6.46,0,0,1,6.58-4.64c1.88.25,2.49.08,3.63,1s3.27,4.69,2.82,6.89ZM1536.43,82.91s-.39,3.23-2.1,3.81-2.58.5-3.67-.33-1.44-3.15-.72-5.1a3.23,3.23,0,0,1,3.27-2.32c.94.13,1.25,0,1.81.5S1536.66,81.81,1536.43,82.91Zm-76,222.62s-.38,3.23-2.1,3.81-2.57.5-3.67-.33-1.44-3.15-.72-5.1a3.23,3.23,0,0,1,3.28-2.32c.94.12,1.25,0,1.81.5S1460.66,304.43,1460.42,305.53ZM1587.77,475s-.39,3.24-2.11,3.82-2.57.5-3.66-.34-1.44-3.14-.73-5.09a3.25,3.25,0,0,1,3.28-2.33c.94.13,1.25.05,1.81.5a4.9,4.9,0,0,1,1.41,3.44Zm-79.93,113.34s-.39,3.23-2.1,3.81-2.58.5-3.67-.33-1.45-3.15-.72-5.1a3.22,3.22,0,0,1,3.27-2.32c.94.12,1.25,0,1.82.49S1508.07,587.21,1507.84,588.31ZM1608.6,168.46s-.78,6.47-4.2,7.63-5.16,1-7.34-.66-2.89-6.3-1.44-10.2a6.46,6.46,0,0,1,6.59-4.65c1.88.25,2.5.09,3.63,1s3.27,4.69,2.82,6.88Zm-34.79,37.32s-1,8.65-5.65,10.2-6.89,1.34-9.81-.88-3.86-8.43-1.88-13.65a8.64,8.64,0,0,1,8.77-6.21c2.5.33,3.34.11,4.84,1.33s4.39,6.27,3.76,9.21ZM1574,41s-.78,6.47-4.2,7.63-5.15,1-7.34-.67-2.88-6.3-1.44-10.2a6.47,6.47,0,0,1,6.59-4.64c1.88.25,2.5.08,3.63,1s3.27,4.69,2.82,6.89ZM1452,64.75s-.38,3.23-2.09,3.81-2.58.5-3.67-.33-1.44-3.15-.72-5.1a3.21,3.21,0,0,1,3.28-2.32c.94.12,1.24,0,1.8.49S1452.27,63.65,1452,64.75Zm34.45,112.37s-.38,3.24-2.11,3.82-2.57.49-3.66-.33-1.44-3.16-.72-5.1a3.25,3.25,0,0,1,3.27-2.33c1,.13,1.26,0,1.82.5S1486.72,176,1486.48,177.12ZM1340.34,74.49s-1.15,9.54-6.22,11.26-7.6,1.47-10.82-1-4.26-9.31-2.13-15.06,6.91-7.22,9.68-6.85,3.67.12,5.35,1.46,4.83,6.92,4.14,10.17ZM1438.83,156s-1.16,9.55-6.21,11.26-7.6,1.47-10.83-1-4.26-9.3-2.13-15.06,6.91-7.22,9.67-6.85,3.68.12,5.35,1.47,4.84,6.91,4.15,10.16Zm0,219.9s-1.16,9.55-6.21,11.26-7.6,1.47-10.83-1-4.26-9.3-2.13-15.06,6.91-7.22,9.67-6.85,3.68.12,5.35,1.47,4.84,6.91,4.15,10.16Zm-11.49,197.21s-1.15,9.55-6.22,11.26-7.59,1.47-10.82-1-4.26-9.3-2.13-15.06,6.91-7.22,9.67-6.85,3.69.12,5.35,1.47,4.84,6.91,4.15,10.16ZM123.66,88.93s-1-6-5.64-7.1-6.9-.92-9.81.58-3.86,5.86-1.93,9.48,6.26,4.55,8.77,4.32,3.34-.08,4.86-.92,4.38-4.36,3.76-6.4Zm87-3.89s-.63-5.22-3.4-6.15-4.15-.81-5.92.53-2.32,5.09-1.16,8.24a5.23,5.23,0,0,0,5.29,3.75c1.51-.2,2-.06,2.93-.8s2.64-3.78,2.26-5.56Zm46.18,119.37s-1.14-9.55-6.21-11.26-7.6-1.47-10.83,1-4.25,9.3-2.12,15.06,6.91,7.22,9.68,6.85,3.67-.12,5.34-1.47,4.84-6.91,4.14-10.16ZM229,487.21s-1.15-9.55-6.21-11.26-7.6-1.47-10.83,1-4.26,9.3-2.13,15.05,6.91,7.22,9.68,6.86,3.67-.12,5.35-1.47,4.83-6.92,4.14-10.16ZM216.91,519s-.78-6.46-4.21-7.62-5.15-1-7.33.66-2.89,6.3-1.44,10.2a6.46,6.46,0,0,0,6.58,4.64c1.88-.25,2.5-.08,3.63-1s3.28-4.69,2.82-6.89Zm-103-85.43s-.78-6.47-4.21-7.63-5.14-1-7.33.66-2.88,6.31-1.44,10.2a6.48,6.48,0,0,0,6.58,4.65c1.88-.25,2.49-.09,3.62-1s3.28-4.68,2.82-6.88ZM67.87,612.5s-1.05-6-5.65-7.09-6.89-.93-9.8.61-3.87,5.86-1.94,9.48,6.26,4.55,8.77,4.32,3.34-.08,4.85-.92,4.39-4.36,3.77-6.4ZM188.34,357.74s-.39-3.24-2.11-3.82-2.57-.49-3.66.33-1.44,3.15-.72,5.1a3.24,3.24,0,0,0,3.27,2.33c.94-.13,1.25,0,1.82-.5s1.63-2.34,1.4-3.44Zm100.87-56.41s-.38-3.24-2.09-3.82-2.58-.49-3.67.34-1.45,3.15-.72,5.09a3.25,3.25,0,0,0,3.27,2.33c.94-.13,1.25,0,1.81-.5s1.64-2.34,1.4-3.44Zm-59.53-35.05s-.4-3.23-2.11-3.81-2.57-.5-3.67.33-1.43,3.15-.71,5.1a3.23,3.23,0,0,0,3.27,2.32c.94-.12,1.24,0,1.82-.5S229.91,267.38,229.68,266.28ZM85.54,142.17s-.4-3.23-2.11-3.81-2.58-.5-3.67.33-1.44,3.15-.71,5.1a3.23,3.23,0,0,0,3.27,2.32c.94-.13,1.25,0,1.81-.5s1.64-2.34,1.41-3.44ZM71.53,513s-.38-3.24-2.1-3.82-2.57-.5-3.66.33-1.45,3.15-.73,5.1a3.23,3.23,0,0,0,3.28,2.32c.94-.12,1.25,0,1.81-.49S71.77,514.06,71.53,513ZM85.64,239s-.78-6.46-4.21-7.62-5.15-1-7.34.66-2.88,6.3-1.44,10.2a6.46,6.46,0,0,0,6.59,4.64c1.88-.25,2.49-.08,3.62-1s3.28-4.69,2.82-6.89ZM49.58,326.41s-.38-3.23-2.1-3.81-2.57-.5-3.67.33-1.44,3.15-.71,5.1a3.22,3.22,0,0,0,3.27,2.38c.94-.12,1.25,0,1.81-.5s1.64-2.34,1.4-3.44ZM137,73.41s-.38-3.23-2.09-3.82-2.58-.49-3.67.34-1.45,3.15-.72,5.1a3.25,3.25,0,0,0,3.27,2.38c.94-.13,1.25,0,1.81-.5s1.64-2.34,1.4-3.44Zm675.45-56.8s-.78-6.47-4.21-7.63-5.15-1-7.33.66-2.89,6.3-1.45,10.2A6.49,6.49,0,0,0,806,24.49c1.88-.26,2.5-.09,3.62-1s3.29-4.69,2.83-6.88ZM663.38,110.09s-1-6-5.65-7.09-6.89-.93-9.81.62-3.86,5.86-1.93,9.48,6.26,4.55,8.76,4.31,3.34-.07,4.87-.92S664,112.13,663.38,110.09ZM547.72,3.47s-.39-3.24-2.11-3.82S543-.84,542,0s-1.44,3.15-.72,5.1a3.24,3.24,0,0,0,3.27,2.32c.94-.13,1.25,0,1.82-.5s1.63-2.34,1.4-3.44Zm119.34,7.09s-.39-3.24-2.1-3.82-2.58-.49-3.67.34-1.44,3.15-.72,5.1a3.24,3.24,0,0,0,3.28,2.32c.94-.13,1.24,0,1.81-.5s1.64-2.34,1.4-3.44Zm-166,63.72s-.39-3.23-2.1-3.81-2.57-.5-3.67.33-1.44,3.15-.72,5.1a3.23,3.23,0,0,0,3.28,2.32c.94-.12,1.25,0,1.81-.5S501.39,75.41,501.1,74.28Zm249.33,31.93s-.63-5.22-3.41-6.16-4.14-.8-5.91.54-2.32,5.08-1.17,8.23a5.24,5.24,0,0,0,5.3,3.75c1.5-.2,2-.07,2.92-.81S750.8,108,750.43,106.21Zm46.24,119.4s-1.15-9.55-6.22-11.27-7.6-1.47-10.82,1-4.26,9.31-2.13,15.06,6.91,7.22,9.67,6.86,3.69-.13,5.35-1.47,4.84-6.92,4.15-10.16Zm-28,282.8s-1.15-9.55-6.21-11.26-7.59-1.47-10.82,1-4.26,9.3-2.13,15.06,6.91,7.22,9.67,6.85,3.68-.12,5.35-1.47,4.84-6.91,4.14-10.16Zm-12.05,31.81s-.79-6.47-4.22-7.63-5.14-1-7.32.66-2.89,6.3-1.44,10.2a6.46,6.46,0,0,0,6.58,4.65c1.88-.25,2.49-.09,3.63-1s3.27-4.69,2.82-6.88Zm-103-85.44s-.78-6.47-4.21-7.63-5.15-1-7.34.67-2.87,6.3-1.43,10.2a6.46,6.46,0,0,0,6.58,4.64c1.88-.25,2.49-.08,3.62-1s3.27-4.68,2.82-6.88ZM607.58,633.7s-1-6-5.64-7.09-6.89-.93-9.82.62-3.85,5.86-1.88,9.48,6.27,4.55,8.77,4.32,3.35-.08,4.86-.93,4.38-4.36,3.76-6.4ZM249.3,421.31s-.79-6.47-4.22-7.63-5.14-1-7.33.66-2.88,6.3-1.44,10.2a6.48,6.48,0,0,0,6.58,4.65c1.88-.26,2.49-.09,3.62-1s3.28-4.69,2.82-6.88Zm69.11-16.69s-.39-3.23-2.1-3.81-2.58-.5-3.67.33-1.44,3.15-.72,5.1a3.24,3.24,0,0,0,3.28,2.32c.94-.12,1.24,0,1.81-.5S318.65,405.72,318.41,404.62ZM301.3,487.23s-.39-3.23-2.11-3.81-2.56-.5-3.66.33-1.44,3.15-.72,5.1a3.22,3.22,0,0,0,3.27,2.32c.94-.12,1.25,0,1.82-.5S301.53,488.33,301.3,487.23ZM728.07,378.9s-.4-3.23-2.11-3.81-2.58-.5-3.67.33-1.44,3.15-.71,5.1a3.21,3.21,0,0,0,3.27,2.32c.94-.12,1.25,0,1.82-.5s1.63-2.34,1.4-3.44Zm80-5s-.39-3.24-2.1-3.82-2.58-.49-3.67.34-1.44,3.15-.72,5.09a3.25,3.25,0,0,0,3.28,2.33c.94-.13,1.24,0,1.81-.5s1.64-2.34,1.4-3.44ZM769.4,287.41s-.4-3.23-2.11-3.81-2.58-.5-3.67.33-1.44,3.15-.72,5.1a3.23,3.23,0,0,0,3.28,2.32c.94-.12,1.24,0,1.81-.49s1.64-2.35,1.41-3.45ZM470.14,321.59s-.78-6.47-4.22-7.63-5.14-1-7.32.66-2.89,6.31-1.45,10.2a6.49,6.49,0,0,0,6.58,4.65c1.88-.25,2.49-.09,3.62-1s3.28-4.68,2.82-6.88ZM530,402.11s-.38-3.23-2.1-3.81-2.57-.5-3.66.33-1.45,3.15-.72,5.1a3.23,3.23,0,0,0,3.27,2.32c.94-.12,1.25,0,1.81-.5s1.64-2.34,1.4-3.44ZM413.93,203s-.39-3.24-2.11-3.82-2.56-.49-3.66.34-1.44,3.14-.72,5.09a3.25,3.25,0,0,0,3.27,2.33c.94-.13,1.25,0,1.82-.5s1.63-2.35,1.4-3.44Zm211.35-39.71s-.39-3.23-2.1-3.81-2.58-.5-3.67.33-1.44,3.15-.73,5.1a3.23,3.23,0,0,0,3.29,2.32c.94-.12,1.24,0,1.81-.5s1.64-2.34,1.4-3.44Zm-307.36,78s-.39-3.23-2.1-3.81-2.57-.5-3.66.33-1.45,3.15-.72,5.1a3.23,3.23,0,0,0,3.27,2.32c.94-.12,1.25,0,1.81-.5s1.64-2.34,1.4-3.44Zm174,285.72s-.39-3.23-2.1-3.82-2.58-.49-3.67.34-1.44,3.15-.72,5.1a3.23,3.23,0,0,0,3.27,2.32c.94-.13,1.25,0,1.82-.5s1.64-2.34,1.4-3.44Zm119.34,7.09s-.38-3.24-2.1-3.82-2.57-.49-3.66.34-1.45,3.15-.73,5.1a3.26,3.26,0,0,0,3.28,2.32c.94-.13,1.25,0,1.81-.5s1.64-2.34,1.4-3.44ZM362.68,199.22s-.78-6.47-4.21-7.63-5.15-1-7.33.66-2.89,6.3-1.45,10.2a6.46,6.46,0,0,0,6.58,4.64c1.88-.25,2.5-.08,3.62-1s3.29-4.69,2.83-6.88Zm176-82.95s-.78-6.47-4.21-7.63-5.15-1-7.33.66-2.88,6.3-1.45,10.2a6.46,6.46,0,0,0,6.59,4.64c1.88-.25,2.49-.08,3.62-1s3.28-4.69,2.82-6.88Zm86.68,143.92s-.78-6.47-4.22-7.63-5.14-1-7.33.66-2.88,6.3-1.44,10.2a6.48,6.48,0,0,0,6.58,4.65c1.88-.25,2.49-.09,3.62-1s3.28-4.69,2.82-6.88ZM445.3,597.85s-.38-3.23-2.11-3.81-2.56-.5-3.65.33-1.45,3.15-.73,5.1a3.22,3.22,0,0,0,3.27,2.32c.94-.12,1.26,0,1.82-.49S445.54,599,445.3,597.85Zm-76-222.61s-.4-3.24-2.11-3.82-2.57-.5-3.67.33-1.43,3.15-.72,5.1a3.23,3.23,0,0,0,3.28,2.32c.94-.12,1.25,0,1.82-.49S369.53,376.33,369.3,375.24Zm220.05-27.66s-.39-3.23-2.11-3.81-2.57-.5-3.66.33-1.44,3.15-.72,5.1a3.22,3.22,0,0,0,3.27,2.32c.94-.12,1.25,0,1.82-.49s1.63-2.35,1.4-3.45ZM496.68,205.79s-.38-3.23-2.09-3.81-2.58-.5-3.67.33-1.45,3.15-.73,5.1a3.24,3.24,0,0,0,3.28,2.32c.94-.13,1.25,0,1.81-.5s1.64-2.34,1.4-3.44ZM416.75,92.46s-.39-3.24-2.11-3.82-2.56-.5-3.65.34-1.45,3.15-.73,5.09a3.21,3.21,0,0,0,3.23,2.34c.94-.12,1.25,0,1.81-.49s1.64-2.34,1.4-3.44Zm260,2.12s-.39-3.23-2.11-3.81-2.57-.5-3.66.33-1.44,3.15-.72,5.1a3.22,3.22,0,0,0,3.2,2.32c.94-.12,1.25,0,1.81-.5s1.64-2.34,1.4-3.44ZM517.48,512.3s-.79-6.47-4.22-7.63-5.14-1-7.32.66-2.89,6.31-1.45,10.2a6.48,6.48,0,0,0,6.58,4.65c1.88-.25,2.49-.08,3.63-1s3.27-4.68,2.82-6.88ZM482.68,475s-1.05-8.66-5.64-10.21-6.88-1.33-9.8.89-3.87,8.43-1.94,13.64,6.27,6.55,8.78,6.22,3.33-.12,4.84-1.34,4.38-6.27,3.76-9.2ZM305,82.71s-1.11-9.55-6.21-11.3-7.6-1.46-10.83,1-4.26,9.31-2.12,15.06,6.9,7.22,9.67,6.86,3.68-.13,5.35-1.47S305.7,85.94,305,82.7ZM1320.1,1280.28s-1.15,9.55-6.22,11.26-7.6,1.47-10.82-1-4.26-9.31-2.13-15.06,6.91-7.22,9.67-6.85,3.69.12,5.35,1.46,4.83,6.92,4.15,10.17ZM1308,1248.47s-.78,6.47-4.21,7.63-5.15,1-7.34-.66-2.88-6.31-1.43-10.2a6.45,6.45,0,0,1,6.58-4.65c1.88.25,2.49.09,3.62,1s3.27,4.68,2.82,6.88Zm-103,85.43s-.78,6.47-4.21,7.63-5.15,1-7.33-.66-2.89-6.3-1.45-10.2a6.46,6.46,0,0,1,6.59-4.64c1.88.25,2.49.08,3.62,1s3.28,4.69,2.82,6.88ZM1159,1155s-1,6-5.64,7.09-6.88.93-9.81-.62-3.86-5.86-1.88-9.48,6.26-4.55,8.76-4.32,3.34.08,4.86.93,4.38,4.35,3.76,6.4ZM856,1338.41s-.78,6.47-4.22,7.63-5.14,1-7.32-.66-2.89-6.3-1.45-10.2a6.49,6.49,0,0,1,6.58-4.65c1.88.25,2.5.09,3.62,1s3.29,4.69,2.83,6.88Zm13.79,45.67s-.38,3.23-2.1,3.81-2.57.5-3.66-.33-1.45-3.15-.73-5.1a3.24,3.24,0,0,1,3.28-2.32c.94.12,1.25,0,1.81.5s1.64,2.34,1.4,3.44Zm-17.1-82.67s-.4,3.24-2.11,3.82-2.58.5-3.67-.33-1.44-3.15-.72-5.1a3.23,3.23,0,0,1,3.28-2.32c.94.12,1.24,0,1.81.49s1.64,2.35,1.41,3.44Zm426.78,108.3s-.38,3.23-2.1,3.81-2.57.5-3.66-.33-1.45-3.15-.73-5.1a3.25,3.25,0,0,1,3.28-2.32c.94.12,1.25,0,1.81.49s1.64,2.35,1.4,3.45Zm80,5s-.38,3.23-2.1,3.81-2.57.5-3.66-.33-1.45-3.15-.73-5.1a3.25,3.25,0,0,1,3.28-2.32c.94.12,1.25,0,1.81.5s1.64,2.34,1.4,3.44Zm-337.94,52.35s-.78,6.47-4.21,7.63-5.14,1-7.32-.67-2.89-6.3-1.44-10.19a6.45,6.45,0,0,1,6.58-4.65c1.88.25,2.5.09,3.63,1s3.27,4.68,2.82,6.88Zm59.84-80.53s-.39,3.24-2.11,3.82-2.57.5-3.66-.33-1.44-3.15-.73-5.1a3.23,3.23,0,0,1,3.28-2.32c.94.12,1.25,0,1.81.49S1081.61,1385.44,1081.37,1386.53Zm-38-124.92s-.39,3.23-2.1,3.81-2.58.5-3.67-.33-1.44-3.15-.73-5.1a3.25,3.25,0,0,1,3.29-2.32c.94.12,1.24,0,1.81.5s1.64,2.34,1.4,3.44Zm119.34-7.09s-.39,3.23-2.1,3.81-2.58.5-3.67-.33-1.44-3.15-.72-5.1a3.24,3.24,0,0,1,3.27-2.32c.94.12,1.25,0,1.82.5s1.63,2.34,1.4,3.44Zm-166-63.73s-.4,3.24-2.11,3.82-2.58.49-3.67-.33-1.44-3.15-.72-5.1a3.25,3.25,0,0,1,3.27-2.33c.94.13,1.25,0,1.82.5S996.93,1189.7,996.71,1190.79Zm-76,222.62s-.39,3.24-2.11,3.82-2.57.49-3.66-.34-1.45-3.15-.72-5.1a3.24,3.24,0,0,1,3.27-2.32c.94.13,1.25,0,1.81.5s1.64,2.34,1.41,3.44Zm220,27.65s-.39,3.24-2.1,3.82-2.58.49-3.67-.34-1.45-3.15-.72-5.09a3.25,3.25,0,0,1,3.27-2.33c.94.13,1.25,0,1.82.5S1141,1440,1140.75,1441.06Zm-71.84-164.71s-.77,6.47-4.2,7.63-5.16,1-7.34-.67-2.89-6.3-1.44-10.2a6.46,6.46,0,0,1,6.59-4.64c1.88.25,2.5.08,3.63,1s3.27,4.69,2.82,6.89Zm-34.79,37.31s-1,8.66-5.65,10.21-6.88,1.33-9.8-.89-3.86-8.43-1.89-13.64,6.26-6.55,8.77-6.22,3.34.11,4.85,1.33,4.38,6.27,3.76,9.21Zm212-154.79s-.63,5.22-3.4,6.16-4.15.8-5.91-.54-2.33-5.09-1.17-8.23a5.23,5.23,0,0,1,5.29-3.75c1.51.2,2,.07,2.92.8s2.64,3.78,2.27,5.56Zm46.19-119.4s-1.15,9.55-6.21,11.26-7.59,1.47-10.82-1-4.26-9.3-2.13-15,6.91-7.22,9.67-6.86,3.68.12,5.35,1.47,4.84,6.92,4.14,10.16Zm-28-282.76s-1.15,9.54-6.22,11.26-7.6,1.47-10.82-1-4.26-9.31-2.13-15.06,6.9-7.22,9.67-6.85,3.68.12,5.35,1.46,4.84,6.92,4.15,10.17Zm-12.06-31.81s-.78,6.47-4.21,7.63-5.15,1-7.34-.66-2.88-6.31-1.44-10.2a6.46,6.46,0,0,1,6.59-4.65c1.88.25,2.49.09,3.62,1s3.27,4.68,2.82,6.88Zm-103,85.43s-.78,6.47-4.22,7.63-5.14,1-7.32-.66-2.89-6.3-1.45-10.2a6.46,6.46,0,0,1,6.58-4.64c1.88.25,2.5.08,3.63,1s3.28,4.69,2.82,6.88Zm-46-178.92s-1,6-5.64,7.09-6.88.92-9.81-.62-3.86-5.86-1.88-9.48,6.27-4.55,8.77-4.32,3.34.08,4.85.93,4.38,4.35,3.76,6.4ZM800.18,814.83s-.78,6.47-4.21,7.63-5.14,1-7.32-.66-2.89-6.31-1.45-10.2a6.48,6.48,0,0,1,6.58-4.65c1.88.25,2.49.09,3.63,1s3.27,4.69,2.82,6.88ZM814,860.5s-.39,3.23-2.1,3.81-2.57.5-3.66-.33-1.44-3.15-.73-5.1a3.23,3.23,0,0,1,3.27-2.32c.94.12,1.25,0,1.82.49s1.64,2.35,1.4,3.45Zm-17.11-82.62s-.39,3.24-2.1,3.82-2.58.5-3.67-.33-1.44-3.15-.72-5.1a3.21,3.21,0,0,1,3.28-2.32c.94.12,1.25,0,1.81.49s1.64,2.35,1.4,3.44Zm426.8,108.29s-.39,3.24-2.11,3.82-2.57.5-3.66-.33-1.44-3.15-.73-5.1a3.22,3.22,0,0,1,3.27-2.32c1,.12,1.26,0,1.82.49S1223.9,885.08,1223.67,886.17Zm100.88,56.42s-.4,3.23-2.11,3.81-2.58.5-3.67-.33-1.44-3.15-.72-5.1a3.23,3.23,0,0,1,3.28-2.32c.94.12,1.24,0,1.81.5S1324.78,941.49,1324.55,942.59Zm-59.55,35s-.39,3.24-2.11,3.82-2.56.49-3.65-.34-1.45-3.14-.73-5.1a3.25,3.25,0,0,1,3.27-2.32c.94.13,1.25.05,1.82.5S1265.24,976.49,1265,977.59ZM965.73,943.45s-.77,6.47-4.2,7.63-5.16,1-7.34-.67-2.88-6.3-1.44-10.19a6.46,6.46,0,0,1,6.59-4.65c1.88.25,2.5.08,3.63,1s3.27,4.68,2.82,6.88Zm59.84-80.53s-.4,3.24-2.11,3.82-2.58.5-3.67-.33-1.43-3.15-.72-5.1a3.23,3.23,0,0,1,3.28-2.32c.94.12,1.24,0,1.82.49S1025.8,861.83,1025.57,862.92ZM909.51,1062s-.39,3.24-2.1,3.81-2.58.5-3.67-.33-1.44-3.15-.71-5.1a3.24,3.24,0,0,1,3.27-2.32c.94.13,1.24,0,1.81.5s1.64,2.34,1.4,3.44Zm211.36,39.7s-.4,3.24-2.11,3.82-2.58.49-3.67-.33-1.45-3.15-.72-5.1a3.25,3.25,0,0,1,3.27-2.33c.94.13,1.25,0,1.82.5S1121.09,1100.64,1120.87,1101.74Zm-307.36-78s-.39,3.24-2.11,3.82-2.57.5-3.66-.33-1.44-3.15-.73-5.1a3.23,3.23,0,0,1,3.28-2.32c.94.12,1.25,0,1.81.49s1.65,2.35,1.41,3.44ZM987.48,738s-.39,3.23-2.1,3.81-2.58.5-3.67-.33-1.44-3.15-.72-5.1a3.22,3.22,0,0,1,3.28-2.32c.94.12,1.25,0,1.81.5S987.72,736.93,987.48,738Zm119.35-7.09s-.4,3.23-2.11,3.81-2.58.5-3.67-.33-1.44-3.15-.72-5.1a3.24,3.24,0,0,1,3.28-2.32c.94.12,1.24,0,1.81.5S1107.06,729.84,1106.83,730.94ZM858.27,1065.86s-.77,6.47-4.2,7.63-5.15,1-7.34-.66-2.87-6.3-1.43-10.2a6.45,6.45,0,0,1,6.58-4.65c1.88.25,2.49.09,3.62,1s3.27,4.68,2.82,6.88Zm176,83s-.79,6.47-4.21,7.63-5.15,1-7.33-.66-2.89-6.3-1.44-10.2a6.46,6.46,0,0,1,6.58-4.65c1.88.25,2.5.09,3.63,1s3.27,4.69,2.82,6.88ZM1121,1004.94s-.78,6.47-4.21,7.63-5.15,1-7.33-.67-2.88-6.3-1.45-10.19a6.49,6.49,0,0,1,6.59-4.65c1.88.25,2.49.09,3.63,1s3.27,4.69,2.82,6.89ZM940.9,667.22s-.39,3.24-2.1,3.82-2.58.5-3.67-.33-1.44-3.15-.72-5.1a3.24,3.24,0,0,1,3.28-2.33c.94.13,1.24,0,1.8.5s1.65,2.35,1.41,3.44Zm-76,222.62s-.38,3.24-2.1,3.82-2.57.49-3.66-.34-1.44-3.15-.73-5.1a3.26,3.26,0,0,1,3.28-2.32c.94.13,1.25,0,1.81.5s1.64,2.34,1.4,3.44Zm220.05,27.65s-.39,3.24-2.1,3.82-2.58.49-3.67-.34-1.44-3.15-.72-5.09a3.24,3.24,0,0,1,3.28-2.33c.94.13,1.24,0,1.8.5s1.64,2.34,1.41,3.44Zm-92.67,141.8s-.4,3.23-2.11,3.81-2.57.5-3.67-.33-1.43-3.15-.72-5.1a3.24,3.24,0,0,1,3.28-2.32c.94.12,1.24,0,1.82.49s1.63,2.35,1.4,3.45Zm-79.93,113.33s-.4,3.24-2.11,3.82-2.58.49-3.67-.34-1.44-3.15-.72-5.1a3.24,3.24,0,0,1,3.28-2.32c.94.13,1.24,0,1.8.5s1.65,2.34,1.42,3.44Zm260-2.12s-.39,3.23-2.1,3.81-2.58.5-3.67-.33-1.44-3.15-.72-5.1a3.24,3.24,0,0,1,3.28-2.33c.94.13,1.24,0,1.8.5s1.65,2.35,1.41,3.45ZM1013.08,752.78s-.78,6.46-4.21,7.62-5.15,1-7.34-.66-2.88-6.3-1.44-10.2a6.47,6.47,0,0,1,6.59-4.64c1.88.25,2.49.08,3.62,1s3.28,4.68,2.82,6.88Zm-34.84,37.31s-1,8.66-5.64,10.21-6.89,1.33-9.81-.89-3.86-8.43-1.88-13.65a8.65,8.65,0,0,1,8.76-6.21c2.5.34,3.34.11,4.85,1.33s4.39,6.27,3.77,9.21ZM946.74,1285s-.38,3.23-2.1,3.81-2.58.5-3.67-.33-1.44-3.15-.71-5.1a3.21,3.21,0,0,1,3.27-2.32c.94.12,1.25,0,1.81.5s1.64,2.34,1.4,3.44ZM863,1183.55s-1.14,9.55-6.21,11.26-7.6,1.47-10.83-1-4.26-9.3-2.12-15,6.91-7.23,9.67-6.86,3.68.12,5.36,1.47,4.83,6.92,4.13,10.16Zm36.11,80.28s-1.15,9.55-6.21,11.27-7.6,1.46-10.83-1-4.26-9.31-2.12-15.06,6.9-7.22,9.67-6.86,3.68.13,5.35,1.47,4.83,6.92,4.14,10.16Zm0,219.9s-1.15,9.55-6.21,11.26-7.6,1.47-10.83-1-4.26-9.3-2.12-15,6.9-7.23,9.67-6.86,3.68.12,5.35,1.47,4.83,6.92,4.14,10.16Zm338.09-8.72s-1.15,9.54-6.21,11.26-7.6,1.47-10.83-1-4.26-9.31-2.13-15.06,6.91-7.22,9.68-6.86,3.67.13,5.35,1.47,4.83,6.92,4.14,10.17Zm158.51-157.77s-.78,6.47-4.22,7.63-5.14,1-7.33-.67-2.88-6.3-1.44-10.2a6.47,6.47,0,0,1,6.58-4.64c1.88.25,2.49.08,3.62,1s3.28,4.69,2.82,6.89Zm13.79,45.66s-.38,3.24-2.11,3.82-2.56.49-3.66-.34-1.44-3.14-.72-5.1a3.26,3.26,0,0,1,3.28-2.32c.94.13,1.25,0,1.81.5S1409.73,1361.8,1409.49,1362.9Zm-17.1-82.61s-.4,3.24-2.11,3.82-2.58.49-3.67-.34-1.44-3.15-.72-5.1a3.25,3.25,0,0,1,3.28-2.32c.94.13,1.24,0,1.81.5S1392.61,1279.19,1392.39,1280.29Zm168.85,165.61s-.78,6.46-4.21,7.62-5.14,1-7.33-.66-2.88-6.3-1.44-10.2a6.45,6.45,0,0,1,6.58-4.64c1.88.25,2.5.08,3.63,1s3.27,4.69,2.82,6.89Zm59.84-80.53s-.4,3.24-2.11,3.82-2.57.49-3.67-.34-1.43-3.15-.72-5.09a3.25,3.25,0,0,1,3.27-2.33c.94.13,1.25,0,1.82.5S1621.3,1364.27,1621.08,1365.37Zm-38-125s-.4,3.24-2.11,3.82-2.57.5-3.66-.33-1.44-3.15-.73-5.1a3.23,3.23,0,0,1,3.28-2.32c.94.12,1.24,0,1.81.49S1583.28,1239.32,1583.05,1240.41Zm-46.62-70.81s-.39,3.23-2.1,3.81-2.58.5-3.67-.33-1.44-3.15-.72-5.1a3.24,3.24,0,0,1,3.27-2.32c.94.13,1.25,0,1.81.5s1.64,2.34,1.41,3.44Zm-76,222.62s-.38,3.23-2.1,3.81-2.57.5-3.67-.33-1.44-3.15-.72-5.1a3.23,3.23,0,0,1,3.28-2.32c.94.12,1.25,0,1.81.5s1.64,2.34,1.4,3.44Zm148.18-137.07s-.78,6.47-4.2,7.63-5.16,1-7.34-.66-2.89-6.3-1.44-10.2a6.46,6.46,0,0,1,6.59-4.65c1.88.26,2.5.09,3.63,1s3.27,4.69,2.82,6.88Zm-34.79,37.32s-1,8.65-5.65,10.2-6.89,1.34-9.81-.88-3.86-8.43-1.88-13.65a8.64,8.64,0,0,1,8.77-6.21c2.5.33,3.34.11,4.84,1.33s4.39,6.27,3.76,9.21ZM1643,610.22s-1,6-5.64,7.09-6.88.93-9.81-.61-3.86-5.86-1.88-9.48,6.26-4.55,8.77-4.32,3.33.08,4.85.92,4.38,4.36,3.76,6.4Zm-358.29,212.4s-.78,6.46-4.21,7.62-5.14,1-7.32-.66-2.89-6.3-1.45-10.2a6.46,6.46,0,0,1,6.58-4.64c1.88.25,2.49.08,3.63,1s3.27,4.69,2.82,6.89Zm69.12,16.68s-.38,3.24-2.1,3.82-2.57.49-3.66-.33-1.45-3.15-.73-5.1a3.26,3.26,0,0,1,3.28-2.33c.94.13,1.25,0,1.81.5S1354,838.2,1353.78,839.3Zm-17.1-82.61s-.4,3.23-2.11,3.82-2.58.49-3.67-.34-1.44-3.15-.72-5.1a3.26,3.26,0,0,1,3.28-2.32c.94.13,1.24,0,1.81.5S1336.91,755.59,1336.68,756.69Zm168.85,165.6s-.78,6.47-4.2,7.63-5.15,1-7.34-.66-2.87-6.3-1.43-10.2a6.42,6.42,0,0,1,6.58-4.64c1.88.25,2.5.08,3.63,1s3.27,4.69,2.82,6.88Zm59.84-80.52s-.39,3.24-2.11,3.82-2.57.49-3.66-.34-1.44-3.15-.73-5.1a3.26,3.26,0,0,1,3.28-2.32c.94.13,1.25,0,1.81.5S1565.61,840.67,1565.37,841.77Zm-116,199.08s-.4,3.23-2.11,3.81-2.58.5-3.67-.33-1.44-3.15-.72-5.1a3.23,3.23,0,0,1,3.28-2.32c.94.12,1.24,0,1.81.49s1.64,2.35,1.41,3.45Zm-96-38.29s-.39,3.24-2.1,3.82-2.58.49-3.67-.34-1.44-3.15-.73-5.09a3.26,3.26,0,0,1,3.28-2.33c.94.13,1.25,0,1.81.5s1.64,2.34,1.41,3.44Zm174-285.72s-.39,3.24-2.1,3.82-2.58.49-3.67-.33-1.44-3.15-.71-5.1a3.23,3.23,0,0,1,3.27-2.33c.94.13,1.24.05,1.81.5A4.75,4.75,0,0,1,1527.28,716.84Zm119.34-7.09s-.39,3.24-2.1,3.82-2.57.5-3.66-.33-1.44-3.15-.73-5.1a3.23,3.23,0,0,1,3.28-2.32c.94.12,1.24,0,1.81.49S1646.86,708.66,1646.62,709.75ZM1398,1044.67s-.78,6.47-4.21,7.63-5.15,1-7.33-.67-2.89-6.3-1.44-10.2a6.46,6.46,0,0,1,6.58-4.64c1.88.25,2.5.08,3.63,1s3.28,4.68,2.82,6.88Zm176,83s-.78,6.47-4.2,7.63-5.16,1-7.34-.67-2.89-6.3-1.44-10.2a6.46,6.46,0,0,1,6.59-4.64c1.88.25,2.5.08,3.63,1s3.27,4.68,2.82,6.88Zm-93.38-481.59s-.4,3.23-2.11,3.81-2.57.5-3.66-.33-1.44-3.15-.73-5.1a3.25,3.25,0,0,1,3.28-2.32c.94.13,1.24,0,1.81.5S1480.9,645,1480.67,646.08Zm-76,222.62s-.39,3.23-2.11,3.81-2.57.5-3.66-.33-1.44-3.15-.72-5.1a3.23,3.23,0,0,1,3.27-2.32c.94.12,1.25,0,1.82.5S1404.89,867.6,1404.66,868.7Zm220,27.65s-.39,3.23-2.1,3.81-2.57.5-3.67-.33-1.43-3.15-.72-5.1a3.25,3.25,0,0,1,3.17-2.32c.94.13,1.25,0,1.81.5s1.64,2.34,1.41,3.44ZM1532,1038.14s-.39,3.24-2.1,3.82-2.58.5-3.67-.33-1.44-3.15-.72-5.1a3.24,3.24,0,0,1,3.28-2.33c.94.13,1.24,0,1.8.5S1532.28,1037.05,1532,1038.14Zm-79.93,113.34s-.39,3.23-2.1,3.81-2.57.5-3.66-.33-1.44-3.15-.73-5.1a3.24,3.24,0,0,1,3.28-2.32c.94.12,1.24,0,1.81.49s1.64,2.35,1.4,3.45ZM1552.8,731.61s-.77,6.47-4.21,7.63-5.14,1-7.33-.66-2.88-6.3-1.44-10.2a6.46,6.46,0,0,1,6.58-4.65c1.88.26,2.5.09,3.63,1s3.27,4.69,2.82,6.88ZM1518,768.93s-1,8.65-5.64,10.2-6.88,1.34-9.81-.88-3.85-8.43-1.88-13.65a8.67,8.67,0,0,1,8.77-6.21c2.5.33,3.33.11,4.85,1.33s4.38,6.27,3.76,9.21Zm-31.49,494.9s-.39,3.24-2.11,3.82-2.57.49-3.66-.33-1.44-3.16-.72-5.1a3.25,3.25,0,0,1,3.27-2.33c.94.13,1.25,0,1.82.5S1486.74,1262.73,1486.51,1263.83Zm-146.14-102.62s-1.14,9.55-6.21,11.26-7.6,1.47-10.83-1-4.25-9.3-2.12-15.06,6.91-7.22,9.67-6.85,3.68.12,5.35,1.46,4.84,6.92,4.14,10.17Zm98.5,81.46s-1.16,9.55-6.22,11.26-7.6,1.47-10.82-1-4.26-9.3-2.14-15.06,6.92-7.22,9.68-6.85,3.68.12,5.35,1.47,4.84,6.91,4.15,10.16Zm0,219.9s-1.16,9.55-6.22,11.26-7.6,1.47-10.82-1-4.26-9.3-2.14-15.06,6.92-7.22,9.68-6.85,3.68.12,5.35,1.47,4.84,6.91,4.15,10.16Zm-1126.14-695s-1.14-9.55-6.21-11.26-7.6-1.47-10.83,1-4.29,9.3-2.13,15.1,6.9,7.22,9.67,6.85,3.68-.12,5.35-1.47,4.83-6.92,4.14-10.16Zm-28,282.84s-1.15-9.55-6.22-11.26-7.6-1.47-10.81,1-4.26,9.3-2.14,15,6.91,7.23,9.68,6.86,3.68-.12,5.35-1.47,4.83-6.92,4.14-10.16Zm-12.06,31.8s-.78-6.46-4.21-7.62-5.15-1-7.33.66-2.88,6.3-1.45,10.2a6.48,6.48,0,0,0,6.59,4.64c1.88-.25,2.49-.08,3.63-1s3.27-4.69,2.82-6.89Zm-103-85.43s-.78-6.47-4.21-7.63-5.16-1-7.34.66-2.88,6.3-1.44,10.2a6.46,6.46,0,0,0,6.58,4.65c1.89-.25,2.51-.09,3.63-1s3.28-4.69,2.83-6.88ZM123.66,1175.7s-1-6-5.64-7.09-6.9-.93-9.82.61-3.86,5.86-1.93,9.48,6.26,4.55,8.77,4.32,3.34-.08,4.86-.92,4.38-4.36,3.76-6.4ZM244.14,920.89s-.38-3.24-2.1-3.82-2.58-.49-3.67.33-1.44,3.16-.72,5.11a3.24,3.24,0,0,0,3.28,2.32c.94-.13,1.24,0,1.81-.5S244.38,922,244.14,920.89Zm80-5s-.39-3.24-2.11-3.82-2.57-.5-3.66.33-1.44,3.15-.73,5.1a3.23,3.23,0,0,0,3.28,2.32c.94-.12,1.25,0,1.82-.49S324.39,917,324.15,915.89Zm-38.67-86.48s-.39-3.23-2.11-3.81-2.57-.5-3.66.33-1.44,3.15-.73,5.1a3.26,3.26,0,0,0,3.29,2.38c1-.12,1.25,0,1.81-.5s1.65-2.34,1.41-3.44ZM46,944.1s-.39-3.24-2.11-3.82-2.56-.49-3.66.34-1.44,3.15-.72,5.1A3.24,3.24,0,0,0,42.82,948c.94-.13,1.25,0,1.82-.5S46.27,945.2,46,944.1Zm95.3-238.78s-.4-3.23-2.11-3.81-2.57-.5-3.67.33-1.43,3.15-.72,5.1a3.26,3.26,0,0,0,3.28,2.32c.94-.13,1.25,0,1.82-.5S141.57,706.42,141.34,705.32ZM8,1069s-.38-3.24-2.1-3.82-2.57-.5-3.66.33-1.45,3.15-.73,5.1A3.25,3.25,0,0,0,4.78,1073c.94-.13,1.25,0,1.81-.5S8.23,1070.12,8,1069Zm119.35,7.09s-.39-3.24-2.11-3.82-2.58-.5-3.67.33-1.44,3.15-.71,5.1a3.21,3.21,0,0,0,3.27,2.32c.94-.12,1.25,0,1.81-.49s1.64-2.35,1.41-3.44ZM54.77,658.25s-.78-6.47-4.22-7.63-5.14-1-7.32.67-2.89,6.3-1.45,10.19a6.48,6.48,0,0,0,6.58,4.65c1.88-.25,2.49-.08,3.62-1s3.28-4.69,2.82-6.89Zm86.67,143.93s-.78-6.47-4.21-7.63-5.14-1-7.34.66-2.87,6.3-1.43,10.2a6.45,6.45,0,0,0,6.58,4.64c1.88-.25,2.49-.08,3.62-1s3.27-4.69,2.82-6.88Zm-36,87.39s-.39-3.23-2.11-3.81-2.58-.5-3.67.33-1.44,3.15-.71,5.1a3.22,3.22,0,0,0,3.27,2.32c.94-.12,1.25,0,1.82-.5S105.62,890.67,105.39,889.57ZM12.71,747.78s-.38-3.24-2.1-3.82S8,743.47,7,744.29s-1.45,3.12-.73,5.12a3.25,3.25,0,0,0,3.28,2.33c.94-.13,1.25,0,1.81-.5s1.64-2.34,1.4-3.44ZM192.8,636.57s-.4-3.23-2.11-3.82-2.58-.49-3.66.34-1.45,3.15-.72,5.1a3.24,3.24,0,0,0,3.27,2.32c.94-.13,1.25,0,1.82-.5s1.63-2.34,1.4-3.44ZM33.55,1054.29s-.78-6.47-4.21-7.63-5.15-1-7.33.66-2.88,6.3-1.45,10.2a6.49,6.49,0,0,0,6.59,4.65c1.88-.26,2.49-.09,3.63-1s3.27-4.69,2.82-6.88ZM210.7,1171.77s-.63-5.23-3.4-6.16-4.15-.81-5.92.53-2.32,5.09-1.16,8.24a5.23,5.23,0,0,0,5.29,3.75c1.51-.21,2-.07,2.93-.81s2.64-3.78,2.26-5.55Zm46.18,119.39s-1.14-9.55-6.21-11.26-7.6-1.47-10.83,1-4.25,9.3-2.12,15.06,6.91,7.22,9.68,6.85,3.67-.12,5.34-1.47,4.84-6.91,4.14-10.16Zm-68.55,153.3s-.39-3.24-2.11-3.82-2.57-.49-3.66.33-1.44,3.16-.72,5.1a3.24,3.24,0,0,0,3.27,2.33c.94-.13,1.25,0,1.82-.5S188.56,1445.56,188.33,1444.46Zm100.88-56.41s-.39-3.24-2.1-3.82-2.58-.49-3.67.34-1.45,3.15-.72,5.09A3.25,3.25,0,0,0,286,1392c.94-.13,1.25,0,1.81-.5S289.44,1389.15,289.21,1388.05Zm-59.54-35s-.4-3.23-2.11-3.81-2.57-.5-3.66.33-1.44,3.15-.72,5.1a3.23,3.23,0,0,0,3.27,2.32c.94-.12,1.24,0,1.82-.5s1.63-2.34,1.4-3.44ZM85.54,1228.89s-.4-3.23-2.11-3.81-2.58-.5-3.67.33-1.44,3.15-.71,5.1a3.23,3.23,0,0,0,3.27,2.32c.94-.12,1.25,0,1.81-.5s1.64-2.34,1.41-3.44Zm.1,96.86s-.78-6.47-4.21-7.63-5.15-1-7.34.66-2.88,6.3-1.44,10.2a6.46,6.46,0,0,0,6.59,4.64c1.88-.25,2.49-.08,3.62-1s3.28-4.69,2.82-6.88Zm-36.06,87.39s-.38-3.23-2.1-3.81-2.57-.5-3.67.33-1.44,3.15-.71,5.1a3.22,3.22,0,0,0,3.27,2.32c.94-.12,1.25,0,1.81-.5s1.64-2.34,1.4-3.44Zm87.41-253s-.38-3.23-2.09-3.81-2.58-.5-3.67.33-1.45,3.15-.72,5.1a3.23,3.23,0,0,0,3.27,2.32c.94-.13,1.25,0,1.81-.5s1.64-2.34,1.4-3.44Zm64.89-304.51s-1.15-9.55-6.22-11.26-7.59-1.47-10.82,1-4.25,9.3-2.12,15,6.91,7.23,9.66,6.86,3.69-.12,5.35-1.47,4.85-6.92,4.15-10.16ZM806.23,669.41s-.63-5.22-3.4-6.16-4.16-.8-5.92.54-2.33,5.08-1.16,8.23a5.21,5.21,0,0,0,5.28,3.75c1.52-.2,2-.07,2.94-.81S806.61,671.18,806.23,669.41Zm46.19,119.4s-1.14-9.55-6.21-11.27-7.6-1.47-10.83,1-4.26,9.31-2.12,15.06,6.9,7.22,9.67,6.86,3.68-.13,5.35-1.47,4.83-6.92,4.14-10.16Zm-27.93,282.76s-1.14-9.55-6.21-11.26-7.6-1.47-10.83,1-4.25,9.3-2.12,15.06,6.91,7.22,9.67,6.85,3.68-.12,5.36-1.47,4.83-6.91,4.13-10.16Zm-12,31.81s-.78-6.47-4.21-7.63-5.15-1-7.33.66-2.89,6.3-1.45,10.2a6.49,6.49,0,0,0,6.58,4.65c1.88-.26,2.5-.09,3.62-1s3.29-4.69,2.83-6.88Zm-103-85.44s-.78-6.47-4.21-7.63-5.15-1-7.33.67-2.89,6.3-1.44,10.2a6.46,6.46,0,0,0,6.58,4.64c1.88-.25,2.5-.08,3.63-1s3.27-4.69,2.82-6.89Zm-46.08,178.92s-1-6-5.65-7.09-6.89-.93-9.81.62-3.86,5.86-1.93,9.48,6.26,4.55,8.76,4.32,3.34-.08,4.87-.93,4.38-4.36,3.76-6.4Zm-303-183.45s-.78-6.47-4.2-7.63-5.15-1-7.34.66-2.88,6.3-1.43,10.2a6.45,6.45,0,0,0,6.58,4.65c1.88-.26,2.5-.09,3.63-1s3.27-4.69,2.82-6.88Zm13.81-45.67s-.4-3.23-2.11-3.81-2.57-.5-3.67.33-1.43,3.15-.72,5.1a3.24,3.24,0,0,0,3.28,2.32c.94-.12,1.24,0,1.81-.5s1.64-2.34,1.41-3.44Zm-17.12,82.61s-.38-3.23-2.1-3.81-2.57-.5-3.66.33-1.45,3.15-.73,5.1a3.23,3.23,0,0,0,3.28,2.32c.94-.12,1.25,0,1.81-.49s1.64-2.35,1.4-3.45Zm426.8-108.3s-.4-3.23-2.11-3.81-2.57-.5-3.66.33-1.44,3.15-.73,5.1a3.24,3.24,0,0,0,3.28,2.32c.94-.12,1.24,0,1.82-.5s1.63-2.34,1.4-3.44Zm80-5s-.4-3.24-2.11-3.82-2.58-.49-3.67.34-1.44,3.15-.72,5.1a3.26,3.26,0,0,0,3.28,2.32c.94-.13,1.24,0,1.82-.5s1.63-2.34,1.4-3.44Zm-38.67-86.5s-.4-3.23-2.11-3.81-2.57-.5-3.67.33-1.43,3.15-.72,5.1a3.23,3.23,0,0,0,3.28,2.32c.94-.12,1.24,0,1.81-.49s1.64-2.35,1.41-3.45ZM525.94,884.74s-.78-6.47-4.21-7.63-5.15-1-7.34.66-2.88,6.3-1.44,10.2a6.49,6.49,0,0,0,6.58,4.65c1.89-.25,2.5-.09,3.63-1s3.28-4.69,2.82-6.88Zm59.83,80.52s-.39-3.23-2.11-3.81-2.58-.5-3.67.33-1.44,3.15-.71,5.1a3.22,3.22,0,0,0,3.27,2.32c.94-.12,1.25,0,1.82-.5s1.63-2.34,1.4-3.44ZM469.71,766.19s-.38-3.24-2.1-3.82-2.57-.49-3.66.33-1.45,3.16-.73,5.1a3.26,3.26,0,0,0,3.28,2.33c.94-.13,1.25,0,1.81-.5S470,767.29,469.71,766.19Zm211.36-39.71s-.4-3.23-2.11-3.81-2.58-.5-3.67.33-1.44,3.15-.72,5.1a3.23,3.23,0,0,0,3.28,2.32c.94-.12,1.24,0,1.81-.5s1.64-2.34,1.41-3.44Zm-307.36,78s-.4-3.23-2.11-3.81-2.57-.5-3.67.33-1.43,3.15-.72,5.1a3.24,3.24,0,0,0,3.28,2.32c.94-.12,1.25,0,1.82-.5S373.94,805.58,373.71,804.48Zm174,285.72s-.38-3.23-2.11-3.81-2.56-.5-3.65.33-1.45,3.15-.73,5.1a3.25,3.25,0,0,0,3.27,2.32c.94-.13,1.26,0,1.82-.5s1.64-2.34,1.4-3.44ZM667,1097.29s-.4-3.23-2.11-3.82-2.58-.49-3.67.34-1.44,3.15-.71,5.1a3.23,3.23,0,0,0,3.27,2.32c.94-.13,1.24,0,1.81-.5s1.64-2.34,1.41-3.44ZM418.48,762.41s-.78-6.47-4.21-7.63-5.15-1-7.34.66-2.87,6.3-1.44,10.2a6.46,6.46,0,0,0,6.59,4.64c1.88-.25,2.49-.08,3.62-1s3.28-4.69,2.82-6.88Zm176-83s-.78-6.47-4.21-7.63-5.14-1-7.33.66-2.88,6.3-1.44,10.2a6.46,6.46,0,0,0,6.58,4.64c1.88-.25,2.49-.08,3.62-1s3.28-4.69,2.82-6.88Zm86.67,143.92s-.78-6.47-4.2-7.63-5.16-1-7.34.66-2.88,6.3-1.44,10.2a6.46,6.46,0,0,0,6.59,4.65c1.88-.25,2.5-.09,3.63-1s3.27-4.69,2.82-6.88ZM501.1,1161s-.39-3.23-2.1-3.81-2.57-.5-3.67.33-1.44,3.15-.72,5.1a3.23,3.23,0,0,0,3.28,2.32c.94-.12,1.25,0,1.81-.49s1.64-2.35,1.4-3.45Zm-76-222.59s-.39-3.24-2.11-3.82-2.57-.5-3.66.33-1.44,3.15-.73,5.1a3.23,3.23,0,0,0,3.28,2.32c.95-.12,1.25,0,1.81-.49s1.65-2.35,1.41-3.44Zm220-27.65s-.39-3.24-2.1-3.82-2.58-.5-3.67.33-1.44,3.15-.72,5.1a3.22,3.22,0,0,0,3.28,2.32c.94-.12,1.24,0,1.81-.49s1.64-2.35,1.4-3.44ZM552.48,769s-.39-3.23-2.11-3.81-2.57-.5-3.66.33-1.45,3.15-.72,5.1a3.23,3.23,0,0,0,3.27,2.32c.94-.13,1.25,0,1.82-.5s1.63-2.34,1.4-3.44ZM472.54,655.63s-.39-3.24-2.1-3.82-2.58-.49-3.67.34-1.44,3.14-.71,5.09a3.21,3.21,0,0,0,3.27,2.32c.94-.12,1.24,0,1.81-.49s1.64-2.35,1.4-3.44Zm260,2.12s-.39-3.23-2.11-3.81-2.57-.5-3.65.33-1.45,3.15-.73,5.1a3.22,3.22,0,0,0,3.28,2.32c.94-.12,1.25,0,1.81-.5s1.64-2.34,1.4-3.44ZM573.28,1075.41s-.78-6.47-4.21-7.63-5.15-1-7.33.66-2.89,6.31-1.45,10.2a6.49,6.49,0,0,0,6.58,4.65c1.88-.25,2.5-.08,3.62-1s3.29-4.68,2.83-6.88Zm-34.84-37.31s-1.05-8.66-5.65-10.21-6.88-1.33-9.8.89-3.86,8.43-1.93,13.64,6.26,6.55,8.76,6.22,3.34-.12,4.86-1.34S539.06,1041,538.44,1038.1Zm212,154.79s-.63-5.22-3.41-6.16-4.14-.8-5.91.54-2.32,5.08-1.17,8.23a5.24,5.24,0,0,0,5.3,3.75c1.5-.2,2-.07,2.92-.8s2.64-3.79,2.27-5.56Zm46.24,119.44s-1.15-9.55-6.22-11.27-7.6-1.47-10.82,1-4.26,9.31-2.13,15.06,6.91,7.22,9.67,6.86,3.69-.13,5.35-1.47,4.84-6.92,4.15-10.16Zm-478.24,179s-.39-3.23-2.1-3.81-2.58-.5-3.67.33-1.44,3.15-.73,5.1a3.25,3.25,0,0,0,3.29,2.32c.94-.12,1.24,0,1.81-.5s1.64-2.34,1.4-3.44Zm409.68-25.68s-.39-3.23-2.1-3.81-2.58-.5-3.67.33-1.44,3.15-.72,5.1a3.24,3.24,0,0,0,3.28,2.32c.94-.12,1.25,0,1.81-.5s1.64-2.34,1.4-3.44Zm80-5s-.39-3.24-2.1-3.81-2.58-.5-3.67.33-1.44,3.15-.73,5.1a3.26,3.26,0,0,0,3.29,2.32c.94-.13,1.24,0,1.81-.5s1.64-2.34,1.4-3.44Zm-38.72-86.48s-.4-3.24-2.11-3.82-2.58-.5-3.67.33-1.44,3.15-.72,5.1a3.23,3.23,0,0,0,3.28,2.32c.94-.12,1.24,0,1.81-.49s1.64-2.35,1.41-3.44Zm-299.26,34.14s-.78-6.47-4.22-7.63-5.14-1-7.32.66-2.89,6.31-1.45,10.2a6.49,6.49,0,0,0,6.58,4.65c1.88-.25,2.49-.09,3.62-1s3.28-4.68,2.82-6.88ZM530,1488.83s-.38-3.23-2.1-3.81-2.57-.5-3.66.33-1.45,3.15-.72,5.1a3.24,3.24,0,0,0,3.27,2.32c.94-.12,1.25,0,1.81-.5s1.64-2.34,1.4-3.44Zm-116-199.07s-.39-3.24-2.11-3.82-2.56-.49-3.66.33-1.44,3.16-.72,5.1a3.25,3.25,0,0,0,3.27,2.33c.94-.13,1.25,0,1.82-.5S414.16,1290.86,413.93,1289.76Zm211.35-39.71s-.39-3.23-2.1-3.81-2.58-.5-3.67.33-1.44,3.15-.73,5.1a3.23,3.23,0,0,0,3.29,2.32c.94-.12,1.24,0,1.81-.49s1.64-2.35,1.4-3.45Zm-307.36,78s-.39-3.23-2.1-3.81-2.57-.5-3.66.33-1.45,3.15-.72,5.1a3.23,3.23,0,0,0,3.27,2.32c.94-.12,1.25,0,1.81-.5s1.64-2.34,1.4-3.44ZM362.7,1286s-.78-6.47-4.22-7.63-5.14-1-7.32.66-2.89,6.3-1.45,10.2a6.46,6.46,0,0,0,6.58,4.64c1.88-.25,2.49-.08,3.62-1s3.29-4.69,2.82-6.88Zm176-83s-.78-6.47-4.21-7.63-5.15-1-7.33.66-2.89,6.3-1.45,10.2a6.49,6.49,0,0,0,6.59,4.65c1.88-.26,2.49-.09,3.62-1s3.28-4.69,2.82-6.88Zm86.68,143.92s-.79-6.47-4.22-7.63-5.14-1-7.33.66-2.88,6.31-1.44,10.2a6.48,6.48,0,0,0,6.58,4.65c1.88-.25,2.49-.09,3.62-1s3.28-4.68,2.82-6.88Zm-256.07,115s-.4-3.24-2.11-3.82-2.58-.49-3.67.34-1.44,3.14-.72,5.09a3.23,3.23,0,0,0,3.28,2.32c.94-.12,1.25,0,1.82-.49S369.55,1463,369.32,1461.87Zm220.05-27.65s-.39-3.24-2.11-3.82-2.57-.5-3.67.33-1.43,3.15-.71,5.1a3.21,3.21,0,0,0,3.27,2.32c.94-.12,1.25,0,1.82-.49s1.63-2.35,1.4-3.44Zm-92.69-141.71s-.38-3.23-2.09-3.81-2.58-.5-3.67.33-1.45,3.15-.73,5.1a3.25,3.25,0,0,0,3.28,2.32c.94-.12,1.25,0,1.81-.5s1.64-2.34,1.4-3.44Zm-79.93-113.33s-.39-3.24-2.11-3.82-2.56-.49-3.65.34-1.45,3.15-.73,5.09a3.25,3.25,0,0,0,3.27,2.33c.94-.13,1.25,0,1.82-.5S417,1180.28,416.75,1179.18Zm260,2.12s-.39-3.23-2.11-3.81-2.57-.5-3.66.33-1.44,3.15-.72,5.1a3.23,3.23,0,0,0,3.27,2.32c.94-.12,1.25,0,1.82-.49s1.63-2.35,1.4-3.45ZM451.2,1066.8s-.4-3.23-2.11-3.81-2.58-.5-3.67.33-1.44,3.15-.72,5.1a3.24,3.24,0,0,0,3.28,2.32c.94-.13,1.24,0,1.81-.5s1.64-2.34,1.41-3.44ZM305,1169.41s-1.14-9.55-6.21-11.27-7.6-1.46-10.83,1-4.26,9.31-2.12,15.06,6.9,7.22,9.67,6.86,3.68-.13,5.35-1.47,4.83-6.92,4.14-10.16ZM403.5,1088s-1.15-9.55-6.22-11.27-7.59-1.47-10.82,1-4.25,9.31-2.12,15.06,6.91,7.22,9.66,6.86,3.69-.13,5.36-1.47,4.84-6.92,4.14-10.16Zm0-219.9s-1.15-9.55-6.22-11.27-7.59-1.46-10.82,1-4.25,9.31-2.12,15.06,6.91,7.22,9.66,6.86,3.69-.13,5.36-1.47,4.84-6.92,4.14-10.16ZM392,670.86s-1.16-9.55-6.22-11.27-7.61-1.47-10.82,1-4.26,9.3-2.14,15.06,6.92,7.22,9.68,6.86,3.68-.13,5.35-1.47,4.83-6.92,4.15-10.16ZM741.59,876.79s-1.15-9.55-6.22-11.26-7.6-1.47-10.82,1-4.26,9.3-2.13,15.06,6.91,7.22,9.67,6.85,3.69-.12,5.35-1.46S742.28,880,741.59,876.79Z" transform="translate(0.98 0.72)"/><path class="cls-3" d="M1246.3,781.39s-18-26.2-20-48.27-17.67-40.55-33.11-53.49-19.65-21.47-34-37.36-30.9-21.51-48.56-26.69-51.13-7.4-67.77-25-34.14-41.6-54.51-46.5-70.48-10.33-99-33.11-45.67-52.05-45.67-52.05-4.89,19.49,17.31,62.62,46.37,66.87,46.37,66.87-12.68-9.34-36-17-35.79-8.93-50.65-28.26S789.12,484,749.6,450.67s-93.49-41.32-93.49-41.32,32.26,19.19,39.2,47.3,9.8,45.85,19.05,69,21.89,35,21.89,35-43.71-33.5-85.37-54.78-64.65-24-99.42-58.84-52.7-99.4-52.7-99.4-7.93,22.85-3.2,75.63,48.65,111.16,48.65,111.16-49-39.1-79.3-90.58S411,373.36,398.27,323.36s-39-80.49-78.55-100.23-68.05-16.63-68.05-16.63,58.49,34.2,72.08,88.3S320.87,380,356,469.86,470.63,643.28,470.63,643.28s-26.88.67-62.16-32.73-52.64-70.71-52.64-70.71,10.11,62.6,34.68,104.52,37.65,41.67,60.91,64.3,32,42.69,61.27,51.7,73.64,6.63,101.13,21.4,43.7,47.6,43.7,47.6-29.13-34.14-56-36.09-52.63,18.14-52.63,18.14,46-12.23,77,36.57,38.84,84.34,77.38,125.16,81.81,48.73,104.53,47.84,34.56-1.07,53.07,11.34,23,21.34,23,21.34-17.39-14.27-38.2-17.17a89.9,89.9,0,0,0-36.77,2.33s29.07,4.56,56,33.47,59.07,59.14,98.22,43.8,72.17-14.29,112.92-7.64,70.11,3.54,107-16.37,52.33-49.87,82.91-73.28,41.08-53.09,26.5-93.29S1252.94,844.12,1252,821.7s3.4-24.58-5.66-40.34Zm-571-335.17c4.32,11.41-6.44,16.47-16.68,10.46s-14.5-16.79-24.68-29.35-48.46-19.11-48.46-19.11,30.71,0,55.62,10.56,34.2,27.44,34.2,27.44ZM593.71,848.29c2.32,6.12,3.17,15.2-3,14.77s-13.31-5.7-31.88-22.16-59.07-6.33-59.07-6.33,11.82-9.29,47.07-8S593.71,848.29,593.71,848.29Z" transform="translate(0.98 0.72)"/><path class="cls-4" d="M1069.21,652.6a67,67,0,0,0-8-4.82c-29.18-14.27-49.85-17.83-67.45-25.65s-35.35-21.27-35.35-21.27A82.35,82.35,0,0,1,977.61,633c6.15,19.67,7.22,25.9,7.22,25.9s-30.8-19.53-64.17-21.4-72.48,0-92.06-10-38.68-34.7-38.68-34.7,5.23,19.12,19.49,49.76,28.5,44,28.5,44-32-30-74.89-39.62-79-18.37-110.78-39.57-55.18-61.6-55.18-61.6,4.07,40,26.77,78.47S673.93,685,673.93,685s-40.66-7-71.32-33.56-34.57-43.62-61.7-59.19-45.46-15.44-45.46-15.44,41.88,18.86,53,46.33,22.38,52.51,54.87,75.61,50.42,27.81,50.42,27.81-32.06-6.11-55.82-3.69-32.26,7.22-32.26,7.22,87.85,11.56,126.28,58.5S744,878,744,878s-14.65-13.12-35.77-14.68-32.92,2.53-32.92,2.53,35.47,9.69,63.59,41.32c11.88,13.38,28.73,24.62,45.53,33.11a66.46,66.46,0,0,1-8,2.88c-18.08,5.3-39.9-10.52-39.9-10.52a253.88,253.88,0,0,0,21.32,30.66c12,14.51,30.25,19.46,30.25,19.46S781,989,750.63,985.24c-30.23-3.75-50.57-15.75-50.81-15.9l3.4,3.72c38.54,40.82,81.81,48.73,104.53,47.84s34.56-1.07,53.06,11.35,23,21.33,23,21.33-17.39-14.27-38.2-17.17a89.9,89.9,0,0,0-36.77,2.33s29.06,4.57,56,33.47,59.07,59.14,98.22,43.8,72.17-14.29,112.92-7.64,70.11,3.55,107-16.36,52.33-49.87,82.91-73.29,41.08-53.09,26.5-93.29S1252.94,844.12,1252,821.7s3.4-24.58-5.66-40.34c0,0-18-26.21-20-48.28-.85-10-4.58-19.25-9.8-27.6h0c-6.31-10.07-14.83-18.8-23.25-25.88-15.41-12.94-19.65-21.47-34-37.35s-30.9-21.52-48.57-26.7c-6.79-2-15.9-3.55-25.47-5.7h0c32.65,11.67,46.28,27,42.06,32.91-15.42,21.65-66.57-14.38-83.06-23.23,0,0,1.76,2.14,12.9,14.54s12.17,18.5,12.17,18.5Z" transform="translate(0.98 0.72)"/><path class="cls-5" d="M942.44,739.79S906.85,705.44,882,695.31s-33-13-33-13,20,20.66,27.54,32.56a84.29,84.29,0,0,1,10.14,22.32s-27.12-21.9-63.25-20.84-49.24,7.64-74.86-2-51.11-38.88-51.11-38.88,13.26,44.48,45.33,74.18,53.92,51.47,53.92,51.47-21.13-12.47-36.24-17.26a88.24,88.24,0,0,0-29.42-3.79s31.41,23.22,60,63.74,49.74,63.93,80.6,77.2,62.41,4.12,62.41,4.12Z" transform="translate(0.98 0.72)"/><path class="cls-6" d="M1181.24,1048.72s-42.23,26.78-65.55,27.17-42.73-16.6-63.51-21.23-63.52-8.58-84.67-14.72S921,1020,902.54,1000s-35.23-73.68-41.07-101-6.42-43.67-7.84-70.37,4.13-45.14,17.74-57.2,28.15-23.61,31.87-44.93,6.83-40,21.82-47.2,35.91-6.4,60.28-6.92,33.87-8.25,57.11-5.16,31.13-.78,57.91.64,57.62,19.22,73.07,50.83,19.59,27.25,33.42,40.9,25.68,37.77,21.74,56.94-6.08,30.31,1.8,45.44,31.32,53.45,37.8,76.37-8.42,56.52-23.77,68.56-26.77,15.84-38,23.53S1181.24,1048.72,1181.24,1048.72Z" transform="translate(0.98 0.72)"/><path class="cls-7" d="M959.36,827.23s-25.15-19.91-42-11.44-22.66,15.28-25.13,29.11,10.87,32.71,29.66,41.15,34.32.11,40.46-7.64,9-9.41,10.18-16.75S968.66,833.24,959.36,827.23Z" transform="translate(0.98 0.72)"/><path class="cls-8" d="M945.21,818.59c-8.49-4.05-19.23-7.12-27.82-2.8-16.82,8.49-22.67,15.28-25.14,29.12-2.32,13,9.4,30.56,26.5,39.6-7-7.26-18-21.66-14.2-36.82C910,826.07,924.32,816.52,945.21,818.59Z" transform="translate(0.98 0.72)"/><path class="cls-7" d="M1051.48,915.5s18.3,12,29.2,5.18,14.43-11.81,15.28-21.33-9.41-21.54-22.69-26.11-23.3,2-27,7.64-5.56,7-5.85,12S1044.78,912,1051.48,915.5Z" transform="translate(0.98 0.72)"/><path class="cls-8" d="M1061.62,920.5c6,2.21,13.5,3.64,19.06.18,10.9-6.8,14.43-11.81,15.28-21.33.77-9-8.28-20.18-20.45-25.26,5.18,4.5,13.58,13.58,11.88,24.12C1085.06,913.24,1076,920.6,1061.62,920.5Z" transform="translate(0.98 0.72)"/><path class="cls-8" d="M1193,1024.24s.77-7.27-2.92-9.48-5.7-2.48-8.67-1.28-5,6.08-4.29,10.73a7.69,7.69,0,0,0,6.4,6.86c2.22.23,2.91.59,4.46-.1s5-4.24,5-6.73Zm-212.57-71.9s1.05-9.87-4-12.88-7.76-3.39-11.79-1.74-6.79,8.26-5.85,14.58,5.67,9,8.71,9.34,4,.8,6.06-.13,6.79-5.73,6.79-9.16ZM995,980.51s.51-4.91-2-6.41-3.87-1.69-5.87-.84-3.39,4.11-2.91,7.26a5.21,5.21,0,0,0,4.33,4.65c1.51.16,2,.4,3-.07s3.4-2.84,3.4-4.56Zm37.11-230.21s.26-2.46-1-3.21-1.93-.85-2.94-.43-1.69,2.05-1.46,3.62a2.62,2.62,0,0,0,2.18,2.33c.75.09,1,.2,1.51,0a3.56,3.56,0,0,0,1.7-2.27Zm48,121.91s.26-2.46-1-3.21-1.93-.85-2.94-.43-1.69,2.06-1.46,3.63a2.62,2.62,0,0,0,2.18,2.32c.75.08,1,.21,1.51,0a3.59,3.59,0,0,0,1.7-2.27Zm-177.6-20.37s.25-2.46-1-3.2-1.92-.85-2.92-.44-1.7,2.06-1.47,3.63a2.61,2.61,0,0,0,2.17,2.32c.76.08,1,.2,1.51,0a3.58,3.58,0,0,0,1.7-2.28Zm221.16-37.44s.52-4.92-2-6.42-3.87-1.69-5.88-.84-3.39,4.11-2.91,7.25a5.19,5.19,0,0,0,4.33,4.65c1.51.17,2,.41,3-.06s3.39-2.85,3.39-4.56ZM928.12,720.59s.51-4.93-2-6.42-3.87-1.7-5.87-.85-3.39,4.12-2.91,7.26a5.19,5.19,0,0,0,4.33,4.64c1.51.16,2,.4,3-.06s3.4-2.85,3.4-4.56Zm44.27,266.07s.27-2.46-1-3.21-1.94-.85-2.94-.43-1.7,2.05-1.45,3.63a2.59,2.59,0,0,0,2.16,2.32c.76.09,1,.2,1.51,0a3.58,3.58,0,0,0,1.7-2.28Zm168.19-243.85s.26-2.46-1-3.2-1.93-.85-2.93-.44-1.7,2.06-1.46,3.64a2.62,2.62,0,0,0,2.17,2.32c.75.08,1,.2,1.51,0a3.61,3.61,0,0,0,1.7-2.28Zm-172.9-9.9s.26-2.46-1-3.21-1.94-.84-2.94-.43-1.7,2.06-1.45,3.64a2.53,2.53,0,0,0,2.16,2.31c.76.09,1,.21,1.51,0a3.54,3.54,0,0,0,1.7-2.28Zm56.39,168.59s.27-2.46-1-3.2-1.94-.85-2.94-.44-1.7,2.07-1.45,3.64a2.53,2.53,0,0,0,2.16,2.31c.76.09,1,.21,1.51,0a3.58,3.58,0,0,0,1.7-2.28Zm-32.92-70.56s.52-4.92-2-6.42-3.87-1.69-5.88-.85-3.39,4.12-2.91,7.27a5.2,5.2,0,0,0,4.34,4.65c1.51.16,2,.4,3-.06s3.4-2.86,3.4-4.56Zm237.19,26.62a48.94,48.94,0,0,0,2.08,4.46l.58,1.1a2.44,2.44,0,0,1-.59.42c-.53.23-.75.12-1.51,0a2.58,2.58,0,0,1-2.17-2.31c-.22-1.57.45-3.23,1.46-3.64l.15-.06Zm19,74.71s.27-2.46-1-3.21-1.94-.85-2.94-.43-1.7,2.06-1.45,3.63a2.6,2.6,0,0,0,2.16,2.32c.76.09,1,.21,1.52,0a3.46,3.46,0,0,0,1.69-2.27Zm-63.67-11.19s.26-2.45-1-3.2-1.93-.85-2.94-.44-1.69,2.06-1.46,3.63a2.63,2.63,0,0,0,2.18,2.33c.75.08,1,.2,1.51,0a3.58,3.58,0,0,0,1.7-2.28ZM913.53,943.26a36.6,36.6,0,0,0-15.28,2c-8.58,3-.48,4.32,9.47,3.77s20.69-1.61,5.8-5.82Zm-57.38-77.18q-.3-2.88-.55-5.74a6.13,6.13,0,0,1,.92.47c1.25.75,1,3.21,1,3.21A3.46,3.46,0,0,1,856.15,866.08ZM1112,963.29s.52-4.93-2-6.42-3.86-1.7-5.86-.85-3.4,4.12-2.92,7.26a5.19,5.19,0,0,0,4.33,4.64c1.52.16,2,.4,3-.06s3.37-2.87,3.38-4.57Z" transform="translate(0.98 0.72)"/><path class="cls-7" d="M1033.85,1008.11s-15.2-2.85-20.49,4.53-6.24,11.62-4.2,18.08,12,11.53,21.9,10.91,14.68-7.64,15.57-12.33,1.75-6,.57-9.43S1039.19,1008.59,1033.85,1008.11Z" transform="translate(0.98 0.72)"/><path class="cls-8" d="M1025.89,1007.63c-4.53.18-9.81,1.28-12.51,5.1-5.29,7.38-6.24,11.62-4.19,18.07,1.93,6.08,10.88,11,20.2,11-4.6-1.53-12.56-5.2-14.33-12.53C1012.54,1018.67,1016.49,1011.41,1025.89,1007.63Z" transform="translate(0.98 0.72)"/><path class="cls-7" d="M1067,745.08s1-15.43-6.93-19.8-12.29-4.82-18.45-2-10,13.26-8.24,23,9.34,13.67,14.1,14,6.21,1,9.43-.55S1067.18,750.42,1067,745.08Z" transform="translate(0.98 0.72)"/><path class="cls-8" d="M1066.58,737.1c-.71-4.47-2.43-9.59-6.49-11.82-8-4.37-12.29-4.82-18.45-2-5.82,2.64-9.58,12.1-8.49,21.36,1-4.75,3.67-13.09,10.74-15.71C1054,725.16,1061.68,728.22,1066.58,737.1Z" transform="translate(0.98 0.72)"/><path class="cls-8" d="M1168,877.37s1-9.22-3.7-12-7.23-3.16-11-1.63-6.3,7.71-5.45,13.59,5.28,8.38,8.11,8.7,3.69.75,5.66-.12S1168,880.57,1168,877.37Z" transform="translate(0.98 0.72)"/><path class="cls-8" d="M924.62,790.88s1-9.22-3.7-12-7.24-3.16-11-1.63-6.3,7.71-5.45,13.59,5.28,8.38,8.11,8.7,3.69.75,5.65-.12S924.58,794.08,924.62,790.88Z" transform="translate(0.98 0.72)"/><path class="cls-7" d="M1176.24,821.37s5.84-18.51-2.54-26.19-13.59-9.51-21.88-7.93-16.13,13.2-16.86,25.63,7.33,19.41,13,21.23,7.27,3.08,11.65,2.11S1174.85,827.92,1176.24,821.37Z" transform="translate(0.98 0.72)"/><path class="cls-8" d="M1178.08,811.51c.46-5.66-.12-12.41-4.41-16.33-8.4-7.64-13.58-9.51-21.88-7.93-7.86,1.5-15.28,11.89-16.66,23.52,2.59-5.5,8.35-14.87,17.74-16C1166.29,793.23,1174.73,799.23,1178.08,811.51Z" transform="translate(0.98 0.72)"/><path class="cls-8" d="M1057.06,695.12s-14.16-4.11-28.87-3.1-13.32-.65-30.88-1.3-39.51.39-39.51.39-17.09-1.55,1.36-4.67,31.93-3.19,40.1-4,23.78-.38,34-1.21,15.28-4.38,30.81-2.69,23.78.85,40.76,2.65,34.58,9.92,41.44,21,13.15,15.08,18.68,27.61a58.69,58.69,0,0,0,8.7,13.47h0c3.12,4,10,17.51,5.16,12.55a38,38,0,0,0-10.3-7.42c-1.46-1.75-3.47-4-6.47-7.31-10.1-11.12-14.17-16.07-25.78-21.82s-8.65-6.57-24.39-9.91-21.78-3.74-28.37-7.54S1064.9,698.21,1057.06,695.12Z" transform="translate(0.98 0.72)"/><path class="cls-7" d="M1208.05,972.65s-.85-15.44-9.26-18.83-12.73-3.31-18.56.21-8.36,14.37-5.4,23.85,10.91,12.45,15.66,12.21,6.29.26,9.34-1.7S1208.85,977.92,1208.05,972.65Z" transform="translate(0.98 0.72)"/><path class="cls-8" d="M1206.66,964.77c-1.24-4.35-3.57-9.22-7.87-10.95-8.43-3.39-12.73-3.31-18.56.21-5.45,3.31-8,13.15-5.85,22.22.39-4.84,2.07-13.44,8.77-16.88C1192.71,954.43,1200.72,956.55,1206.66,964.77Z" transform="translate(0.98 0.72)"/></svg>