<?xml version="1.0" encoding="utf-8"?>
<!-- Generator: Adobe Illustrator 24.1.0, SVG Export Plug-In . SVG Version: 6.00 Build 0)  -->
<svg version="1.1" id="Layer_1" xmlns="http://www.w3.org/2000/svg" xmlns:xlink="http://www.w3.org/1999/xlink" x="0px" y="0px"
	 viewBox="0 0 1644.1 1496.3" style="enable-background:new 0 0 1644.1 1496.3;" xml:space="preserve">
<style type="text/css">
	.st0{fill:#05101F;}
	.st1{clip-path:url(#SVGID_2_);}
	.st2{opacity:0.75;fill:url(#SVGID_3_);enable-background:new    ;}
	.st3{display:none;opacity:0.75;fill:url(#SVGID_4_);enable-background:new    ;}
	.st4{fill:#FF9F38;}
	.st5{opacity:0.5;fill:#AB4031;enable-background:new    ;}
	.st6{opacity:0.3;fill:#F7F0E8;enable-background:new    ;}
	.st7{opacity:0.15;fill:#F7F0E8;enable-background:new    ;}
	.st8{opacity:0.7;}
	.st9{fill:#F7F0E8;}
	.st10{fill:#2F3A4A;}
	.st11{fill:#81E6D9;}
	.st12{fill:#B3FFF4;}
	.st13{fill:#153F4D;}
	.st14{fill:#194959;}
	.st15{fill:#FFFFFF;}
	.st16{fill:#D4C6B6;}
	.st17{opacity:0.4;}
	.st18{opacity:0.5;fill:#58595B;enable-background:new    ;}
	.st19{fill:#11323D;}
	.st20{opacity:0.3;}
	.st21{fill:#EF5A45;}
	.st22{fill:#6592A1;}
	.st23{opacity:0.6;}
	.st24{opacity:0.6;fill:#EF5A45;enable-background:new    ;}
	.st25{opacity:0.3;fill:#FFFFFF;enable-background:new    ;}
	.st26{opacity:0.3;fill:#58595B;enable-background:new    ;}
	.st27{opacity:0.7;fill:#FFFFFF;enable-background:new    ;}
	.st28{opacity:0.5;fill:#FFFFFF;enable-background:new    ;}
	.st29{fill:#F0E0CE;}
</style>
<rect class="st0" width="1645.3" height="1496.8"/>
<g>
	<defs>
		<rect id="SVGID_1_" width="1645.3" height="1496.8"/>
	</defs>
	<clipPath id="SVGID_2_">
		<use xlink:href="#SVGID_1_"  style="overflow:visible;"/>
	</clipPath>
	<g class="st1">
		
			<radialGradient id="SVGID_3_" cx="24.71" cy="1506.3629" r="1619.5573" gradientTransform="matrix(1 0 0 -0.91 797.93 2498.3853)" gradientUnits="userSpaceOnUse">
			<stop  offset="0" style="stop-color:#152B4A"/>
			<stop  offset="0.49" style="stop-color:#09172B"/>
			<stop  offset="0.76" style="stop-color:#05101F"/>
		</radialGradient>
		<path class="st2" d="M2441.4,1197.4l-1616.9-69.9l1618.7-68.2l-19.2-168l-1.7,0.2l-0.3-2.2l-1594,237l1564.2-372l-57.1-160.7
			l-1.6,0.5l-0.9-2.4L830.8,1124.2l1441.8-658.3l-92.6-146.3l-1.2,0.7l-1.5-2.4l-1345,803.2l1257.5-914.8l-124-125.6l-0.9,0.8
			l-2.2-2.2L832.4,1117.7L1851.6-13.1l-150-99.4l-0.5,0.7l-2.8-1.9L830.8,1114.6l737.6-1297.3l-169.5-68.9l-0.2,0.5l-3.3-1.3
			l-571.7,1375l0.2-2.4l425.2-1415.9l-181.5-35.1L824.5,1111.2l93.7-1456.3l-185.6-0.2L823,1120.2l-0.4,2.3l-243-1453.3l-3.5,0.7
			l-0.1-0.6l-181.6,35.1l423.1,1408.9L251.6-252.8l-3.2,1.3l-0.3-0.8L78.5-183.7l736.8,1299.7L-51.4-114.5l-2.6,1.8l-0.7-1
			l-150.2,99.3L814.5,1119.4L-316.1,78.1l-2,2.1l-1-1l-124.3,125.5l1258.7,918L-531,316.6l-1.4,2.2l-1.4-0.8l-92.8,146.2
			l1444.1,661.3l-1504.3-535l-0.8,2.1l-1.7-0.6l-57.3,160.6l1567.3,374.6L-776.5,887.9l-0.2,1.9l-1.8-0.3l-19.4,167.9L742.8,1124
			l77.9,3.5l-209.4,9l-1407.7,59.3l0.2,1.6l-1.8,0.1l19.4,167.9l1238.2-184l357.6-52.8l-472.2,112.9l-1090.4,259.3l0.4,1.2l-1.6,0.4
			l57.3,160.6l915.7-324.5l588-207.6l-665.8,304.9l-774.5,353.6l0.5,0.8l-1.3,0.6l92.8,146.2l617.6-368.8l729.3-434.4l-756.8,552
			L-442.9,2049l0.5,0.5l-1,0.7l124.2,125.5l375.5-345L813,1137.1L83.6,1948.5l-288.3,319.8l0.4,0.3l-0.6,0.7l150.1,99.2l203-287.5
			l666.2-940.9L226,2178.4L78.5,2437.9l0.4,0.1l-0.3,0.5l169.6,68.7l96.3-231.6l472.9-1133.2L458.9,2335.9l-64.7,214.3l0.3,0.1
			l-0.1,0.3l181.6,35.1l34.5-205l210.2-1237.2L742,2393.3l-13.3,207l185.6,0.2v-0.3h0.3l-14-221.9L824.4,1143l202,1198.2l40.9,244.8
			l181.6-34.9l-0.2-0.6l0.4-0.1l-84.6-281.7l-337-1127.3l435.3,1046.9l132.4,319.7l169.7-68.5l-0.4-0.8l0.5-0.2L1356.6,2071
			l-526.9-932.3l580.7,822.3l287.9,408.7l150.3-99.1l-0.8-0.9l0.6-0.4l-404.6-450l-613.3-683.9l613.4,563.5l519.1,478.1l124.4-125.3
			l-1.2-0.9l0.7-0.7l-676.1-493.1l-581.1-424.9l527.3,314.9l820.9,491.5l93-146.1l-1.5-0.7l0.7-1.1l-1006.7-461l-435.8-200.2
			l337.5,119.6l1168.5,415.6l57.6-160.5l-1.7-0.4l0.5-1.5l-1362.9-325.7l-202.7-48.7l77,11.4l1522,228l19.6-167.9l-1.8-0.1
			L2441.4,1197.4z M825.7,1127.3l-1.8,0.3c-0.2,0,0.7-0.2,0.7-0.2L825.7,1127.3z M821.4,1127.1c0.1,0,0.3,0.2,0.3,0.2
			C821.6,1127.3,821.5,1127.2,821.4,1127.1z M821.6,1127.3c0,0-0.5-0.3-0.5-0.3C821.3,1127.1,821.4,1127.2,821.6,1127.3
			L821.6,1127.3z M824,1127.1c-0.1,0,0.1-0.2,0.1-0.2C824.3,1126.8,824,1127.1,824,1127.1L824,1127.1z M824.6,1126.8l0.4-0.1
			l-0.7,0.4C824.1,1127.1,824.6,1126.8,824.6,1126.8z M821.6,1127c-0.1,0-0.2-0.3-0.2-0.3L821.6,1127L821.6,1127z M823.5,1126.7
			l0.4-0.2l-0.1,0.3l-0.3,0.1L823.5,1126.7z M822.4,1126.5C822.3,1126.5,822.3,1126.4,822.4,1126.5L822.4,1126.5z M821.9,1126.7
			l-0.3-0.2v-0.3l0.4,0.3L821.9,1126.7z M823.8,1127c0.1,0,0,0.2,0,0.2V1127L823.8,1127z M824.4,1126.5l0.4-0.5l0.6-0.3l-0.7,0.6
			L824.4,1126.5z M824.1,1126.6c-0.2,0.1,0-0.2,0-0.2l0.3-0.1L824.1,1126.6z M824.4,1125.8l0.3-0.6l0.7-0.5l-0.6,0.9L824.4,1125.8z
			 M824.1,1126.1l-0.6,0.3v-0.2l0.7-0.5L824.1,1126.1z M823.5,1125.8v-0.4l1.5-1.6l-0.4,1L823.5,1125.8z M823.3,1126
			c-0.1,0.1-0.2-0.1-0.2-0.1l0.2-0.2L823.3,1126z M823.1,1125.6l-0.1-0.4l0.2-0.4v0.5L823.1,1125.6z M822.9,1125.8
			c-0.2,0-0.1-0.3-0.1-0.3L822.9,1125.8z M822.5,1125.5l-0.1-0.3l0.1-0.5l0.1,0.4L822.5,1125.5z M822.4,1125.8l-0.1,0.2
			c-0.1-0.1-0.1-0.3,0-0.4L822.4,1125.8z M822,1125.7l-0.8-1.1l-0.2-1.1l1,1.8L822,1125.7z M822,1126v0.2l-0.5-0.4l-0.1-0.5
			L822,1126z M821.2,1125.5l-0.4-0.3l-0.4-1l0.6,0.6L821.2,1125.5z M821.3,1126.1l0.1,0.3c-0.2-0.1-0.3-0.5-0.3-0.5L821.3,1126.1z
			 M821,1126.2l-0.3-0.2l-0.5-0.7l0.5,0.4L821,1126.2z M821.3,1126.6l0.2,0.3c-0.1,0-0.3-0.4-0.3-0.4L821.3,1126.6z M821.2,1126.8
			c-0.3-0.2-0.5-0.4-0.8-0.6l0.4,0.2L821.2,1126.8z M821.5,1127.2l0.2,0.2C821.6,1127.3,821.6,1127.2,821.5,1127.2L821.5,1127.2z
			 M822.2,1127.3c0.1,0-0.2,0.1-0.2,0.1L822.2,1127.3L822.2,1127.3z M822.6,1127.4l0.4,0.1L822.6,1127.4l-0.4,0L822.6,1127.4z
			 M822.8,1127.4c0.1,0,0.3,0.1,0.4,0.1C823.2,1127.5,822.8,1127.4,822.8,1127.4L822.8,1127.4z M823,1127.4c0.1,0,0.2,0.1,0.2,0.1
			C823.2,1127.5,823.1,1127.5,823,1127.4L823,1127.4z M823.6,1127.4c0,0-0.1,0.2-0.1,0.2L823.6,1127.4L823.6,1127.4z M823.8,1127.4
			c0.1,0-0.2,0.2-0.2,0.2C823.6,1127.5,823.7,1127.4,823.8,1127.4L823.8,1127.4z M824,1127.4c0.2,0-0.3,0.2-0.3,0.2L824,1127.4
			L824,1127.4z M828.3,1125.9l-2.9,1l-0.7,0.1l1.2-0.6L828.3,1125.9z M830.2,1123.6l-3.6,2.2l-1.1,0.4l1.4-1L830.2,1123.6z
			 M830.8,1120.9l-3.8,3.4l-1.4,0.8l1.4-1.5L830.8,1120.9z M830.2,1118.1l-3.3,4.7l-1.4,1.3l1.1-2L830.2,1118.1z M828.4,1115.8
			l-2.4,5.6l-2.4,3.4v-0.7L828.4,1115.8z M823.1,1122.9l0.1,1.1l-0.3,0.7l-0.1-0.7L823.1,1122.9z M819.6,1115l2.7,9l-0.1,0.7
			l-1.6-3.8L819.6,1115z M817.3,1116.9l2.6,4.6l0.6,2.1l-1.1-1.6L817.3,1116.9z M816,1119.5l3,3.4l1,1.8l-1.2-1.1L816,1119.5z
			 M816,1122.3l2.9,2.1l1.2,1.3l-1-0.6L816,1122.3z M817.3,1124.9l2.2,1l1.1,0.8l-0.6-0.2L817.3,1124.9z M819.6,1126.8l1,0.2
			l0.8,0.4C821.3,1127.3,819.6,1126.7,819.6,1126.8L819.6,1126.8z M823.8,1128c-0.1-0.1-0.2-0.1-0.3-0.2
			C823.6,1127.8,823.7,1127.9,823.8,1128L823.8,1128z M823.6,1127.8c0.2,0.1,0.4,0.2,0.5,0.3C823.9,1128,823.7,1127.9,823.6,1127.8
			L823.6,1127.8z M821.6,1127.6l-0.2,0.2L821.6,1127.6L821.6,1127.6z M821.1,1127.8c-0.2,0,0.3-0.2,0.3-0.2L821.1,1127.8
			L821.1,1127.8z M823.5,1128.3c-0.1,0-0.1-0.2-0.1-0.2L823.5,1128.3L823.5,1128.3z M823.5,1128.2c0.1,0,0.2,0.3,0.2,0.3l-0.1-0.3
			L823.5,1128.2z M821.3,1128.2c-0.1,0,0-0.2,0-0.2l0.1,0.1L821.3,1128.2z M822.7,1128.5c0.1,0.1,0,0.2,0,0.2
			C822.7,1128.6,822.7,1128.5,822.7,1128.5c0.1,0,0.1-0.1,0.1-0.1L822.7,1128.5z M821.4,1128.4l-0.1,0.2
			C821.2,1128.7,821.3,1128.4,821.4,1128.4L821.4,1128.4z M821.6,1128.7v0.2c-0.2,0.1-0.1-0.2-0.1-0.2L821.6,1128.7z M821.9,1129
			v0.2l-0.2,0.2v-0.3L821.9,1129z M822.3,1129.1c0,0.1,0,0.3-0.1,0.4l-0.1-0.3L822.3,1129.1z M822.7,1129.1c0.1,0.1,0.1,0.3,0,0.4
			l-0.1-0.2L822.7,1129.1z M823.1,1128.9c0.1,0.1,0.1,0.4,0.1,0.4c-0.1-0.2-0.1-0.3,0-0.5L823.1,1128.9z M823.1,1128.7
			C823.2,1128.5,823.2,1128.7,823.1,1128.7L823.1,1128.7z M823.3,1128.6c0.1,0.1,0.2,0.3,0.2,0.3c-0.1-0.1-0.1-0.3,0-0.4
			L823.3,1128.6z M822.1,1127.8l-0.3-0.1c0.1,0,0.3,0.1,0.4,0.1L822.1,1127.8z M822,1127.8c-0.1,0-0.2-0.1-0.2-0.1
			c0.1,0,0.2,0,0.4,0L822,1127.8z M821.4,1127.8l0.1-0.2l0,0.1L821.4,1127.8z M820.9,1128l-0.4,0.3l-0.4,0.1l0.7-0.4L820.9,1128z
			 M821.1,1128c0.1,0-0.1,0.2-0.1,0.2c0-0.1,0.3-0.3,0.3-0.3L821.1,1128z M820.6,1128.7l-0.4,0.5l-0.6,0.3l0.7-0.6L820.6,1128.7z
			 M820.9,1128.6c0.2-0.1,0,0.2,0,0.2l-0.3,0.1L820.9,1128.6z M820.6,1129.3l-0.3,0.6l-0.7,0.5l0.6-0.8L820.6,1129.3z M821,1129.1
			l0.2-0.1l-0.1,0.4l-0.3,0.2L821,1129.1z M820.9,1129.9l-0.2,0.7l-0.7,0.7l0.4-1L820.9,1129.9z M821.3,1129.6l0.2-0.2v0.4l-0.3,0.3
			L821.3,1129.6z M821.4,1130.3l0,0.7l-0.5,0.9l0.2-1.1L821.4,1130.3z M821.8,1129.9l0.2-0.3l0.1,0.4l-0.2,0.4L821.8,1129.9z
			 M822.1,1130.5l0.1,0.7l-0.3,1.1l-0.1-1.1L822.1,1130.5z M822.3,1130l0.1-0.3l0.1,0.3l-0.1,0.5L822.3,1130z M822.8,1130.5l0.3,0.6
			l-0.1,1.1l-0.3-1L822.8,1130.5z M822.9,1129.9l0.1-0.4l0.2,0.2v0.5L822.9,1129.9z M823.4,1130.2l0.3,0.5l0.2,1.1l-0.5-0.8
			L823.4,1130.2z M823.4,1129.6v-0.4l0.2,0.2l0.1,0.5L823.4,1129.6z M823.9,1129.6l0.4,0.3l0.4,0.9l-0.5-0.6L823.9,1129.6z
			 M823.7,1129.1l-0.1-0.3c0.2,0.1,0.3,0.5,0.3,0.5L823.7,1129.1z M824,1129l0.3,0.2l0.5,0.7l-0.5-0.4L824,1129z M823.8,1128.5
			l-0.2-0.3c0.1,0,0.3,0.3,0.3,0.3L823.8,1128.5z M823.9,1128.4c0.3,0.2,0.5,0.4,0.8,0.6l-0.4-0.2L823.9,1128.4z M823.5,1128
			l-0.2-0.2l0.3,0.1L823.5,1128z M822.8,1127.8c-0.1,0,0.2-0.1,0.2-0.1l-0.1,0L822.8,1127.8z M822.5,1127.8l-0.4-0.1L822.5,1127.8
			l0.4,0L822.5,1127.8z M819.5,1127.9l1.7-0.3c0.1,0-0.7,0.2-0.7,0.2L819.5,1127.9z M816.8,1129.3l2.8-1l0.7-0.1l-1.2,0.6
			L816.8,1129.3z M815,1131.5l3.5-2.1l1.1-0.4l-1.4,1L815,1131.5z M814.4,1134.2l3.6-3.3l1.3-0.8l-1.3,1.5L814.4,1134.2z
			 M815,1136.9l3.2-4.5l1.4-1.3l-1.1,1.9L815,1136.9z M816.8,1139.2l2.3-5.5l1.2-1.7l-0.7,2.2L816.8,1139.2z M819.5,1140.6l1-6
			l0.9-2.1l-0.2,2.3L819.5,1140.6z M822.5,1140.8l-0.4-6l0.4-2.3l0.4,2.2L822.5,1140.8z M825.3,1140l-1.6-5.4l-0.1-2.3l0.8,1.9
			L825.3,1140z M827.6,1138.1l-2.5-4.5l-0.6-2.1l1.1,1.5L827.6,1138.1z M828.9,1135.6l-3-3.3l-1-1.7l1.1,1L828.9,1135.6z
			 M828.9,1132.8l-2.8-2l-1.1-1.3l1,0.6L828.9,1132.8z M827.6,1130.3l-2.1-1l-1.1-0.8l0.6,0.2L827.6,1130.3z M825.4,1128.5l-1-0.2
			l-0.8-0.4c0.3-0.1,1.9,0.5,1.9,0.5L825.4,1128.5z"/>
		
			<radialGradient id="SVGID_4_" cx="24.71" cy="1506.3629" r="1619.5573" gradientTransform="matrix(1 0 0 -0.91 797.93 2498.3853)" gradientUnits="userSpaceOnUse">
			<stop  offset="0" style="stop-color:#152B4A"/>
			<stop  offset="0.49" style="stop-color:#09172B"/>
			<stop  offset="0.76" style="stop-color:#05101F"/>
		</radialGradient>
		<path class="st3" d="M2441.4,1197.4l-1616.9-69.9l1618.7-68.2l-19.2-168l-1.7,0.2l-0.3-2.2l-1594,237l1564.2-372l-57.1-160.7
			l-1.6,0.5l-0.9-2.4L830.8,1124.2l1441.8-658.3l-92.6-146.3l-1.2,0.7l-1.5-2.4l-1345,803.2l1257.5-914.8l-124-125.6l-0.9,0.8
			l-2.2-2.2L832.4,1117.7L1851.6-13.1l-150-99.4l-0.5,0.7l-2.8-1.9L830.8,1114.6l737.6-1297.3l-169.5-68.9l-0.2,0.5l-3.3-1.3
			l-571.7,1375l0.2-2.4l425.2-1415.9l-181.5-35.1L824.5,1111.2l93.7-1456.3l-185.6-0.2L823,1120.2l-0.4,2.3l-243-1453.3l-3.5,0.7
			l-0.1-0.6l-181.6,35.1l423.1,1408.9L251.6-252.8l-3.2,1.3l-0.3-0.8L78.5-183.7l736.8,1299.7L-51.4-114.5l-2.6,1.8l-0.7-1
			l-150.2,99.3L814.5,1119.4L-316.1,78.1l-2,2.1l-1-1l-124.3,125.5l1258.7,918L-531,316.6l-1.4,2.2l-1.4-0.8l-92.8,146.2
			l1444.1,661.3l-1504.3-535l-0.8,2.1l-1.7-0.6l-57.3,160.6l1567.3,374.6L-776.5,887.9l-0.2,1.9l-1.8-0.3l-19.4,167.9L742.8,1124
			l77.9,3.5l-209.4,9l-1407.7,59.3l0.2,1.6l-1.8,0.1l19.4,167.9l1238.2-184l357.6-52.8l-472.2,112.9l-1090.4,259.3l0.4,1.2l-1.6,0.4
			l57.3,160.6l915.7-324.5l588-207.6l-665.8,304.9l-774.5,353.6l0.5,0.8l-1.3,0.6l92.8,146.2l617.6-368.8l729.3-434.4l-756.8,552
			L-442.9,2049l0.5,0.5l-1,0.7l124.2,125.5l375.5-345L813,1137.1L83.6,1948.5l-288.3,319.8l0.4,0.3l-0.6,0.7l150.1,99.2l203-287.5
			l666.2-940.9L226,2178.4L78.5,2437.9l0.4,0.1l-0.3,0.5l169.6,68.7l96.3-231.6l472.9-1133.2L458.9,2335.9l-64.7,214.3l0.3,0.1
			l-0.1,0.3l181.6,35.1l34.5-205l210.2-1237.2L742,2393.3l-13.3,207l185.6,0.2v-0.3h0.3l-14-221.9L824.4,1143l202,1198.2l40.9,244.8
			l181.6-34.9l-0.2-0.6l0.4-0.1l-84.6-281.7l-337-1127.3l435.3,1046.9l132.4,319.7l169.7-68.5l-0.4-0.8l0.5-0.2L1356.6,2071
			l-526.9-932.3l580.7,822.3l287.9,408.7l150.3-99.1l-0.8-0.9l0.6-0.4l-404.6-450l-613.3-683.9l613.4,563.5l519.1,478.1l124.4-125.3
			l-1.2-0.9l0.7-0.7l-676.1-493.1l-581.1-424.9l527.3,314.9l820.9,491.5l93-146.1l-1.5-0.7l0.7-1.1l-1006.7-461l-435.8-200.2
			l337.5,119.6l1168.5,415.6l57.6-160.5l-1.7-0.4l0.5-1.5l-1362.9-325.7l-202.7-48.7l77,11.4l1522,228l19.6-167.9l-1.8-0.1
			L2441.4,1197.4z M825.7,1127.3l-1.8,0.3c-0.2,0,0.7-0.2,0.7-0.2L825.7,1127.3z M821.4,1127.1c0.1,0,0.3,0.2,0.3,0.2
			C821.6,1127.3,821.5,1127.2,821.4,1127.1z M821.6,1127.3c0,0-0.5-0.3-0.5-0.3C821.3,1127.1,821.4,1127.2,821.6,1127.3
			L821.6,1127.3z M824,1127.1c-0.1,0,0.1-0.2,0.1-0.2C824.3,1126.8,824,1127.1,824,1127.1L824,1127.1z M824.6,1126.8l0.4-0.1
			l-0.7,0.4C824.1,1127.1,824.6,1126.8,824.6,1126.8z M821.6,1127c-0.1,0-0.2-0.3-0.2-0.3L821.6,1127L821.6,1127z M823.5,1126.7
			l0.4-0.2l-0.1,0.3l-0.3,0.1L823.5,1126.7z M822.4,1126.5C822.3,1126.5,822.3,1126.4,822.4,1126.5L822.4,1126.5z M821.9,1126.7
			l-0.3-0.2v-0.3l0.4,0.3L821.9,1126.7z M823.8,1127c0.1,0,0,0.2,0,0.2V1127L823.8,1127z M824.4,1126.5l0.4-0.5l0.6-0.3l-0.7,0.6
			L824.4,1126.5z M824.1,1126.6c-0.2,0.1,0-0.2,0-0.2l0.3-0.1L824.1,1126.6z M824.4,1125.8l0.3-0.6l0.7-0.5l-0.6,0.9L824.4,1125.8z
			 M824.1,1126.1l-0.6,0.3v-0.2l0.7-0.5L824.1,1126.1z M823.5,1125.8v-0.4l1.5-1.6l-0.4,1L823.5,1125.8z M823.3,1126
			c-0.1,0.1-0.2-0.1-0.2-0.1l0.2-0.2L823.3,1126z M823.1,1125.6l-0.1-0.4l0.2-0.4v0.5L823.1,1125.6z M822.9,1125.8
			c-0.2,0-0.1-0.3-0.1-0.3L822.9,1125.8z M822.5,1125.5l-0.1-0.3l0.1-0.5l0.1,0.4L822.5,1125.5z M822.4,1125.8l-0.1,0.2
			c-0.1-0.1-0.1-0.3,0-0.4L822.4,1125.8z M822,1125.7l-0.8-1.1l-0.2-1.1l1,1.8L822,1125.7z M822,1126v0.2l-0.5-0.4l-0.1-0.5
			L822,1126z M821.2,1125.5l-0.4-0.3l-0.4-1l0.6,0.6L821.2,1125.5z M821.3,1126.1l0.1,0.3c-0.2-0.1-0.3-0.5-0.3-0.5L821.3,1126.1z
			 M821,1126.2l-0.3-0.2l-0.5-0.7l0.5,0.4L821,1126.2z M821.3,1126.6l0.2,0.3c-0.1,0-0.3-0.4-0.3-0.4L821.3,1126.6z M821.2,1126.8
			c-0.3-0.2-0.5-0.4-0.8-0.6l0.4,0.2L821.2,1126.8z M821.5,1127.2l0.2,0.2C821.6,1127.3,821.6,1127.2,821.5,1127.2L821.5,1127.2z
			 M822.2,1127.3c0.1,0-0.2,0.1-0.2,0.1L822.2,1127.3L822.2,1127.3z M822.6,1127.4l0.4,0.1L822.6,1127.4l-0.4,0L822.6,1127.4z
			 M822.8,1127.4c0.1,0,0.3,0.1,0.4,0.1C823.2,1127.5,822.8,1127.4,822.8,1127.4L822.8,1127.4z M823,1127.4c0.1,0,0.2,0.1,0.2,0.1
			C823.2,1127.5,823.1,1127.5,823,1127.4L823,1127.4z M823.6,1127.4c0,0-0.1,0.2-0.1,0.2L823.6,1127.4L823.6,1127.4z M823.8,1127.4
			c0.1,0-0.2,0.2-0.2,0.2C823.6,1127.5,823.7,1127.4,823.8,1127.4L823.8,1127.4z M824,1127.4c0.2,0-0.3,0.2-0.3,0.2L824,1127.4
			L824,1127.4z M828.3,1125.9l-2.9,1l-0.7,0.1l1.2-0.6L828.3,1125.9z M830.2,1123.6l-3.6,2.2l-1.1,0.4l1.4-1L830.2,1123.6z
			 M830.8,1120.9l-3.8,3.4l-1.4,0.8l1.4-1.5L830.8,1120.9z M830.2,1118.1l-3.3,4.7l-1.4,1.3l1.1-2L830.2,1118.1z M828.4,1115.8
			l-2.4,5.6l-2.4,3.4v-0.7L828.4,1115.8z M823.1,1122.9l0.1,1.1l-0.3,0.7l-0.1-0.7L823.1,1122.9z M819.6,1115l2.7,9l-0.1,0.7
			l-1.6-3.8L819.6,1115z M817.3,1116.9l2.6,4.6l0.6,2.1l-1.1-1.6L817.3,1116.9z M816,1119.5l3,3.4l1,1.8l-1.2-1.1L816,1119.5z
			 M816,1122.3l2.9,2.1l1.2,1.3l-1-0.6L816,1122.3z M817.3,1124.9l2.2,1l1.1,0.8l-0.6-0.2L817.3,1124.9z M819.6,1126.8l1,0.2
			l0.8,0.4C821.3,1127.3,819.6,1126.7,819.6,1126.8L819.6,1126.8z M823.8,1128c-0.1-0.1-0.2-0.1-0.3-0.2
			C823.6,1127.8,823.7,1127.9,823.8,1128L823.8,1128z M823.6,1127.8c0.2,0.1,0.4,0.2,0.5,0.3C823.9,1128,823.7,1127.9,823.6,1127.8
			L823.6,1127.8z M821.6,1127.6l-0.2,0.2L821.6,1127.6L821.6,1127.6z M821.1,1127.8c-0.2,0,0.3-0.2,0.3-0.2L821.1,1127.8
			L821.1,1127.8z M823.5,1128.3c-0.1,0-0.1-0.2-0.1-0.2L823.5,1128.3L823.5,1128.3z M823.5,1128.2c0.1,0,0.2,0.3,0.2,0.3l-0.1-0.3
			L823.5,1128.2z M821.3,1128.2c-0.1,0,0-0.2,0-0.2l0.1,0.1L821.3,1128.2z M822.7,1128.5c0.1,0.1,0,0.2,0,0.2
			C822.7,1128.6,822.7,1128.5,822.7,1128.5c0.1,0,0.1-0.1,0.1-0.1L822.7,1128.5z M821.4,1128.4l-0.1,0.2
			C821.2,1128.7,821.3,1128.4,821.4,1128.4L821.4,1128.4z M821.6,1128.7v0.2c-0.2,0.1-0.1-0.2-0.1-0.2L821.6,1128.7z M821.9,1129
			v0.2l-0.2,0.2v-0.3L821.9,1129z M822.3,1129.1c0,0.1,0,0.3-0.1,0.4l-0.1-0.3L822.3,1129.1z M822.7,1129.1c0.1,0.1,0.1,0.3,0,0.4
			l-0.1-0.2L822.7,1129.1z M823.1,1128.9c0.1,0.1,0.1,0.4,0.1,0.4c-0.1-0.2-0.1-0.3,0-0.5L823.1,1128.9z M823.1,1128.7
			C823.2,1128.5,823.2,1128.7,823.1,1128.7L823.1,1128.7z M823.3,1128.6c0.1,0.1,0.2,0.3,0.2,0.3c-0.1-0.1-0.1-0.3,0-0.4
			L823.3,1128.6z M822.1,1127.8l-0.3-0.1c0.1,0,0.3,0.1,0.4,0.1L822.1,1127.8z M822,1127.8c-0.1,0-0.2-0.1-0.2-0.1
			c0.1,0,0.2,0,0.4,0L822,1127.8z M821.4,1127.8l0.1-0.2l0,0.1L821.4,1127.8z M820.9,1128l-0.4,0.3l-0.4,0.1l0.7-0.4L820.9,1128z
			 M821.1,1128c0.1,0-0.1,0.2-0.1,0.2c0-0.1,0.3-0.3,0.3-0.3L821.1,1128z M820.6,1128.7l-0.4,0.5l-0.6,0.3l0.7-0.6L820.6,1128.7z
			 M820.9,1128.6c0.2-0.1,0,0.2,0,0.2l-0.3,0.1L820.9,1128.6z M820.6,1129.3l-0.3,0.6l-0.7,0.5l0.6-0.8L820.6,1129.3z M821,1129.1
			l0.2-0.1l-0.1,0.4l-0.3,0.2L821,1129.1z M820.9,1129.9l-0.2,0.7l-0.7,0.7l0.4-1L820.9,1129.9z M821.3,1129.6l0.2-0.2v0.4l-0.3,0.3
			L821.3,1129.6z M821.4,1130.3l0,0.7l-0.5,0.9l0.2-1.1L821.4,1130.3z M821.8,1129.9l0.2-0.3l0.1,0.4l-0.2,0.4L821.8,1129.9z
			 M822.1,1130.5l0.1,0.7l-0.3,1.1l-0.1-1.1L822.1,1130.5z M822.3,1130l0.1-0.3l0.1,0.3l-0.1,0.5L822.3,1130z M822.8,1130.5l0.3,0.6
			l-0.1,1.1l-0.3-1L822.8,1130.5z M822.9,1129.9l0.1-0.4l0.2,0.2v0.5L822.9,1129.9z M823.4,1130.2l0.3,0.5l0.2,1.1l-0.5-0.8
			L823.4,1130.2z M823.4,1129.6v-0.4l0.2,0.2l0.1,0.5L823.4,1129.6z M823.9,1129.6l0.4,0.3l0.4,0.9l-0.5-0.6L823.9,1129.6z
			 M823.7,1129.1l-0.1-0.3c0.2,0.1,0.3,0.5,0.3,0.5L823.7,1129.1z M824,1129l0.3,0.2l0.5,0.7l-0.5-0.4L824,1129z M823.8,1128.5
			l-0.2-0.3c0.1,0,0.3,0.3,0.3,0.3L823.8,1128.5z M823.9,1128.4c0.3,0.2,0.5,0.4,0.8,0.6l-0.4-0.2L823.9,1128.4z M823.5,1128
			l-0.2-0.2l0.3,0.1L823.5,1128z M822.8,1127.8c-0.1,0,0.2-0.1,0.2-0.1l-0.1,0L822.8,1127.8z M822.5,1127.8l-0.4-0.1L822.5,1127.8
			l0.4,0L822.5,1127.8z M819.5,1127.9l1.7-0.3c0.1,0-0.7,0.2-0.7,0.2L819.5,1127.9z M816.8,1129.3l2.8-1l0.7-0.1l-1.2,0.6
			L816.8,1129.3z M815,1131.5l3.5-2.1l1.1-0.4l-1.4,1L815,1131.5z M814.4,1134.2l3.6-3.3l1.3-0.8l-1.3,1.5L814.4,1134.2z
			 M815,1136.9l3.2-4.5l1.4-1.3l-1.1,1.9L815,1136.9z M816.8,1139.2l2.3-5.5l1.2-1.7l-0.7,2.2L816.8,1139.2z M819.5,1140.6l1-6
			l0.9-2.1l-0.2,2.3L819.5,1140.6z M822.5,1140.8l-0.4-6l0.4-2.3l0.4,2.2L822.5,1140.8z M825.3,1140l-1.6-5.4l-0.1-2.3l0.8,1.9
			L825.3,1140z M827.6,1138.1l-2.5-4.5l-0.6-2.1l1.1,1.5L827.6,1138.1z M828.9,1135.6l-3-3.3l-1-1.7l1.1,1L828.9,1135.6z
			 M828.9,1132.8l-2.8-2l-1.1-1.3l1,0.6L828.9,1132.8z M827.6,1130.3l-2.1-1l-1.1-0.8l0.6,0.2L827.6,1130.3z M825.4,1128.5l-1-0.2
			l-0.8-0.4c0.3-0.1,1.9,0.5,1.9,0.5L825.4,1128.5z"/>
		<path class="st4" d="M1768.5,1450.1l-38.3,28.4l-36.5,50.7c-12.9,32.2-41.7,66.8-78.6,102.6l0.3,12.4c-1.8,5.6-5.4,11.9-10.1,18.2
			c-9.4,12.4-23.2,24.8-35.3,32.1l-46.3,8.6l-16.7,8.2l-35,17.3l-49.3,24.3l-34,21.6c-43.4,16-97,28.4-160,37.4l-28.5,0.2
			c-40.6,7-81.1,10.8-121.5,9.6l-124.7,5.5l-59.7,12.7c-47.3,6.7-95.2,7.8-142.8,3.5l-43.9-15.6l-57.1,0.3l-83.1-15.5
			c0,0-79.8-6.5-84.3-6.5s-51.4-10.8-51.4-10.8c-35.5-4.1-68.4-13.9-99.9-27.1l-69.9-31.4l-69.8-26.5l-70.1-34.9L47.4,1642
			L35,1624.1c-46.2-36.7-79.5-74.3-99.1-112.7l-31.9-12.9c-17.6-32.1-24.9-63.3-15.8-93.3l21.1-20.4l6.8-6.5l-11.1-21.3
			c2.6-26,15.3-49.1,38.9-69.2l45.8-30.6l-0.3-11.4c-0.1-1.6,0-3.1,0.2-4.7c1.3-13.9,10.3-27.4,26.1-39.3l21.3-16
			c13.8-10.4,33.3-19,56.5-24.9l55.8-14.2l60.8-32.1l55.3-26l13.1-6.2c20.1-11.2,63.3-23.6,120.1-36.6c21-4.8,43.9-9.8,68.1-14.8
			l118.5-9.6c65.8-13.7,139.7-21.5,226.5-19.8l93.3,2.3c61.7,0.5,119.1,3.4,173,8.1c71.5,11.6,149.5,34,230,60.9l79.9,9.9
			c45.2,8.9,85.4,20.5,121.1,34.6l64.3,47.3c54.8,21.8,101.3,57.1,142.3,100.8l-2.2,32.4l16.3,48.6l43.2,49
			C1778.8,1414,1776.5,1432.2,1768.5,1450.1z"/>
		<path class="st5" d="M278.6,1082.3l-13.1,6.2l-55.3,26l-60.8,32.1l-55.8,14.2c-23.2,5.9-42.7,14.5-56.5,24.9l-21.3,16
			c-15.9,11.8-24.8,25.4-26.1,39.3c15.2-5.5,29.4-10.9,42-16.1c7.1-2.9,13.6-5.8,19.7-8.5c6.6-3,13.2-5.9,19.6-8.9
			c3.9-1.8,7.7-3.6,11.4-5.4c1.9-0.9,3.9-1.6,5.8-2.2c2.1-0.7,4.1-1.4,6.1-2.1c8.9-3.1,17-6.1,23.9-9c16.6-6.8,27.4-12.8,29.9-16.5
			c0.7-1,0.7-1.8,0.1-2.4c-0.3-0.3-0.7-0.6-1.1-0.7c-0.5-0.2-2-0.2-0.9-0.7c4.9-2.8,9.7-5.7,14.3-8.4c9.6-5.8,18.5-11.3,26.9-16.8
			c2.3-1.5,4.5-2.9,6.7-4.4c1-0.7,2-1.4,3-2c0.7-0.5,0.1-0.4,2.6-1.1l4.9-1.3c9.8-2.7,19.7-5.8,27.6-8.8c7.5-2.8,11.7-5,14-6.7
			c0.7-0.6,1.5-1.2,2.3-1.8c0.6-0.5,9.2-2.8,11.8-3.6c44.1-13,83.9-27.3,98.6-36.9c4.5-2.9,7.2-5.5,10.6-8.1
			c6.2-4.8,12.4-9.6,18.6-14.4l10.6-8.3C342,1058.8,298.7,1071.1,278.6,1082.3z"/>
		<path class="st6" d="M1768.5,1450.1l-38.3,28.4l-36.4,50.7c-12.9,32.3-41.7,66.8-78.6,102.6l0.3,12.4c-1.8,5.7-5.4,11.9-10.1,18.2
			c-9.4,12.4-23.2,24.8-35.3,32.1l-46.3,8.6l-51.7,25.5c-16.4-44.4,24.4-133.4-1.3-147.1c-24.2-12.9-19.4-37.3-35-52.9
			c-17.8-18,28.2-63.2-4.2-75.8c-60.1-23.4-119.1-37.4-154.5-69.6c-43.9-39.9-33.5-97.2-125.5-124.1
			c-71.4-20.9-117.4-42.2-173.1-73.2c-57.6-32-184.9-21.6-274.9-31.7c-78.6-8.9-146.6-27.2-224.8-35.5c-31.2-3.3-66.5-4.7-70.2-22.7
			c-1.4-6.5-68.6-8-143.1-7.6l13.1-6.2c27.5-15.3,98.6-32.9,188.1-51.4l118.5-9.6c65.8-13.8,139.7-21.5,226.5-19.8l93.3,2.3
			c61.6,0.5,119.1,3.4,173,8.1c71.5,11.5,149.5,34,230.1,60.9l79.9,9.9c45.1,8.9,85.4,20.5,121.1,34.6l64.3,47.3
			c54.8,21.8,101.3,57.1,142.3,100.7l-2.2,32.4l16.3,48.6l43.2,49C1778.8,1414,1776.5,1432.2,1768.5,1450.1z"/>
		<path class="st7" d="M367.1,1198.1c-8.9-2.6-26.5-2.3-30,2.9c-2.6,3.9,7.5,10.8,10.9,13.8c10.1,9.2,36,13.8,59,14.2
			c10.7,0.2,26.6,3.3,35.8-0.2c8.2-3.2,7.7-10.2,2.6-13.7c-10.6-7.2-43.9-15.6-61.7-16.4C376.8,1198.4,372.9,1199.8,367.1,1198.1z"
			/>
		<path class="st7" d="M771.7,1205.6c-12.5,1-16.9,1.8-21.2,7.7c-3.8,5.3-4.1,7.8,6.6,10.3c18.1,4.3,41.1,2.4,60.2,3.1
			c5.7,0.2,27.4,5.2,31.4,2c5.2-4.2-19.1-8.4-24.1-9.8C805.6,1213.7,791.1,1210.4,771.7,1205.6z"/>
		<path class="st7" d="M614,1332.8c-20.5-4.7-48.4,6.6-60.9,13.5c-19.5,10.7-17.9,20.5-10.4,33.2c3,5.1,3.1,12.5,9.4,17.2
			c6.9,5.2,23,8.9,34.1,11.7c25.9,6.4,60,11.2,88.7,13c22.8,1.4,54.1,1.7,74.8-1.8c26.9-4.6,60.3-3,66-18.1
			c5.2-13.8-3-24.9-24.8-35.1c-13.9-6.5-34.5-8.8-50-14.3c-12.4-4.3-24.8-8.9-37.9-12.7c-13.6-3.9-30.9-7.5-46.8-8.2
			C640.8,1330.5,627.5,1335.9,614,1332.8z"/>
		<path class="st7" d="M136.8,1308.4c-17,4.2-32.6,16.4-37,24.4c-7.2,13.1,2.7,21.8,14.7,33.1c12.2,11.4,20.4,17.1,51.1,15.6
			c25.9-1.3,45.1-5.2,58.6-15.3c17.4-13,1-26.4-19.7-37.4C193.2,1322.6,154,1304.1,136.8,1308.4z"/>
		<path class="st7" d="M255.1,1107.5c-16.2,3.3-30.5,13.6-28,21.6c2.6,8.2,29.1,12.4,45,10c12.6-1.9,30.7-17.1,28.4-22.8
			C296.9,1107.3,269.4,1104.6,255.1,1107.5z"/>
		<path class="st7" d="M998.6,1505.4c-28.3,3.3-10.6,19.6,5.4,24c19.1,5.2,46.3,0.6,67.4,3.2c8.3,1,22.1,4.3,25.2-1.5
			s-25.8-12.5-34.3-15C1040.8,1509.7,1022.8,1502.6,998.6,1505.4z"/>
		<path class="st7" d="M448.3,1562.2c-25.5-2.8-26.5,23.1-26.3,29.8c0.3,12-3.1,23.4,11.7,33.8c16.1,11.2,45.5,18.3,72.4,22.9
			c26.3,4.5,44.1,0.1,69.1-3.6c25.7-3.8,35.9-6.8,37-20.2c1.2-13.8-23.8-26-44.1-35.1c-20-9-39.8-18.1-65.6-23.5
			C489.6,1563.5,457.9,1558.7,448.3,1562.2z"/>
		<path class="st7" d="M890.2,1680c-27.7-1.6-58.5,9-37.1,20.2c20.6,10.7,41.3,14.8,70.7,17.1c30.9,2.4,68.7,6.9,100,4.3
			c10.9-0.9,34.6-5.1,41.5-9.3c15.1-9.3-19.8-14.3-33.2-16.4c-29-4.6-64.1-6.5-90.8-12.8C931.1,1680.6,897.8,1672.6,890.2,1680z"/>
		<path class="st7" d="M1405.3,1599.3c-27.6-1.6-41.3,12-43.1,21.6s-4.4,24.3,4.2,33.2c12.8,13.1,52.2,7.1,70-0.5
			c24.2-10.4,13.7-26.1-0.2-37.8C1429.6,1610.1,1419.1,1600.1,1405.3,1599.3z"/>
		<path class="st7" d="M1067.6,1376.7c-13.7,0.1-19.8,11.5-19.1,16.7c0.8,5.5,7,8.1,16.8,11.2c13.2,4.1,25.8,7.4,37.8,12.2
			c10.8,4.3,17,6.3,31.8,5.9c7.7-0.2,29.9-0.9,32.7-5.1c3.6-5.4-28.7-20.8-36.4-25.4C1124.1,1388,1080.6,1366.5,1067.6,1376.7z"/>
		<path class="st5" d="M444.1,1557.8c-4.5,2.3-8.6,5.7-4.9,8.2c24.9-0.8,51.8,0.6,70.9,7.9c7.7,3,13.8,6.8,21.9,9.5
			c10,3.3,22.5,4.8,32.6,8.1c25.4,8.2,29.2,24.7,46.9,36.4c1.8,1.3,3.9,2.1,6.1,2.3c6.2,0.5,9.1-3.3,9.5-6.2
			c1.2-8.2,2.4-16.5,3.6-24.7c0.5-3.7,1-7.4-1-10.9c-1.8-3.1-5.5-6-9.3-8.7c-18.5-13.5-40.9-27-73.2-32.9
			C512.3,1540.6,469.5,1545.1,444.1,1557.8z"/>
		<path class="st5" d="M806,1630.2l-9.3-3c-11.2-3.6-23-7.4-36.7-8.1c-14.4-0.8-28.5,2-41.8,4.7c-5.2,1.1-10.7,2.3-13.8,4.5
			c-1.8,1.2-2.9,3.2-2.9,5.4c-0.1,6.6,8.1,12.9,19.8,16.7s26.7,5.2,41,4.7c5.5-0.2,11-0.7,16.5-0.6c9.5,0.2,18.9,2,28.3,1.3
			c14.3-1,24.5-8.7,19.9-15C823.7,1636.1,814.6,1633,806,1630.2z"/>
		<path class="st5" d="M508,1364.4c0.4,17.8,8.5,32,35.7,44.7c24.9,11.6,60,13.7,92.2,19.5c29.8,5.4,63.8,7.3,96.4,6.4
			c14.7-0.4,23.1-1.9,36-5c7.8-1.9,23.9-7.8,32.8-7.2c0,0,4.1-0.4,4.3-0.4c0.5,0.1,0.9,0.4,1.3,0.7c-15.5,9.3-35.6,9.1-56.3,13.8
			c-18.3,4.2-21.9,13.1-44.5,15c3.9,5,22.1,2.9,28.4,7.2c-22.8,3-53.7-0.8-74.9,4.6c-10.9,2.8-14,9.4-26.4,12.1
			c-13.1,2.8-26,0.2-39.5,0c-14-0.2-26.8,3.8-40.5,3.7c-16-0.1-29-4.8-39.3-9.8c-21-10.2-27.2-18.9-23.3-32
			c2.8-9.5-4.4-14.7-10-23.5s2.4-13.4,8.5-21.4c6.9-9.1-9.9-40.3,20.2-41.4c0.9,6.5-2.7,15.3,2.3,21.3L508,1364.4z"/>
		<path class="st5" d="M89,1320.3c-16.9,3.3-21.3,21-26.7,28.3c-3.8,5-4.3,9.8-5.3,15.4c-1.1,6.1-5.4,10.7-7.2,16.6
			c-4.6,14.8,19,18.4,29,29c2,2.2,3.5,5.3,7.7,6.9c7.4,2.8,7.3,0.2,12.4,0.9c8.3,1.2,5.5,0.4,12.4,3.6c4.3,2,7.6,5.8,13.7,6.6
			c13,1.7,17.3-7.3,29.5-10.1c12.5-2.9,25.2-4.7,37.4-8.5c11.3-3.5,20.9-6.4,32.8-9.3c12.8-3.1,19.2-6.4,17.5-13.7
			c-22.3,5.3-32.6,10.7-59.4,10.3c4.9-6,21.4-3,30.8-6.4c18.9-6.8-4.5-6.4-14.8-5.3c-23,2.4-49,9.6-72.1,3.7
			c-26.8-6.9-44.1-17.4-44.4-31.4c-0.1-6.2-0.3-12.4-0.5-18.6c-0.1-2.5-1.6-5.9-0.3-8.3s6.7-3.3,7.4-5.5S92.2,1321.2,89,1320.3z"/>
		<path class="st5" d="M603.3,1327.3c1.8-9.6,51.6-12.5,67.3-13.6c25.2-1.8,55.2-3.1,79.7,0.6c56.6,8.4,97.4,40.3,97.9,67.1
			c0.1,5.5,2.3,14-8.6,17.9c-15.2,5.3-11-2.7-15.5-7.4c-10-10.3-40.3-5.2-58.6-11.4c-23.6-7.9-22.8-21.2-45.8-29.5
			c-19.5-7-41.8-13.8-66.5-15c-16.2-0.8-46.8,2.7-60.2-0.5c-24.8-6,12.9-14.2,25.3-11.7L603.3,1327.3z"/>
		<path class="st5" d="M113,1315.4c1.2-9,36.8-19.2,53.6-22.2c25.7-4.5,42.4-0.5,64.8,3.6c23.9,4.3,41.1,10.9,47,23.2
			c6.2,13-12.4,20-26.6,29.8c-5.6,3.9-28.8,24.1-29.5,8.4c-0.3-6,8.1-7.3-0.4-13.1c-5.3-3.6-15.1-5.9-23-8
			c-16.7-4.5-22.5-11-36.5-17.1c-16.5-7.2-32.3-5.7-53.8-6.2c3.8-1.8,8.5-3.7,11.7-5.4L113,1315.4z"/>
		<path class="st5" d="M190.9,1426.8c-21.5-2.3-29.5,20.2-23,26.9c5.1,5.3,14.1,6.2,22.8,9.5c9.4,3.5,12.5,8.4,26.9,8.3
			C270.3,1471.3,230.9,1431.1,190.9,1426.8z"/>
		<path class="st5" d="M-36.7,1341c-5.4,6.9-12.5,13.4-13,20.8c-0.5,6.2,4.1,11.8,5,17.9c1,6.8,0,9.6,7.5,15.3
			c3.2,2.4,13.3,14.6,18.8,15c18.4,1.2,0.6-34.7,0.5-39.4c-0.3-10.8,9-22.5,2.5-33.3C-24.4,1322.3-29.4,1338.5-36.7,1341z"/>
		<path class="st5" d="M110.2,1204.3c-5.7,5-7.5,8.4-17.7,11.7c-7.3,2.3-12.9,1.8-19.5,5.8c-11.3,6.8-9.7,15-17.1,22.2
			c-7.6,7.4-9.7,13-10.3,21.4c-0.2,3.3-2.4,8,6.2,9.1c9.7,1.3,8.6-4.7,17.7-5c3.5,9.9,17.7-0.2,21.2-3.7
			c5.8-5.8,10.7-12.1,19.1-17.2c13.7-8.3,30.1-16.5,43.3-25.2c10.8-7.1,24.7-26.6-4-27.6c-11.8-0.4-55.3,10.1-43.2,16.1
			L110.2,1204.3z"/>
		<path class="st5" d="M216.4,1121.6c-0.7,6.9-6.8,11.7,4.6,17.4c8,4,23.6,5.9,35.1,5.9c8.6,0,33.5-5.6,24.1,3.3
			c-4.6,4.3-22.7,5.3-31.4,7.2c-24.8,5.3-36.8,15.8-65.8,15.3c-13.9-0.2-17.5-1.4-11.1-9.1c4.2-5,14-8.5,18.2-13.7
			c6.1-7.8,6.1-21.4,21.8-27.1c3.6,1.1,3.9,2.7,3.2,4.9L216.4,1121.6z"/>
		<path class="st5" d="M256.8,1114.8c4.6-3.9,26.9-7.6,34.9-3.8c9.7,4.5-2.8,11.5-2.8,16c19.2-0.4,49.1-16.8,63.9-22.8
			c18.2-7.3,41.5-24,5.2-28.5c-23.6-2.9-43.7,4.9-59.5,12.1c-12.4,5.7-40.8,13.7-47.9,20.9c-1.7,1.9-2.2,4.6-1.1,6.9
			c7.3-1,14.9-3.7,22.2-5.6L256.8,1114.8z"/>
		<path class="st5" d="M603.9,1105.7c-12.8,3.3-22.8,7.2-37.4,9.2c-12.1,1.6-22.1,2.4-32.8,5.9c-15.5,5.1-47.9,17.7-23.1,26
			c9.3,3.1,26.6,2.5,37.3,3.4c11.2,0.9,20.1,2.8,31.7,3.3c27.3,1.1,51.1-7.5,76.4-10.8c32.3-4.1,66.4-19.3,21.8-29
			c-29.6-6.4-56.4-12.7-84.3-3.8L603.9,1105.7z"/>
		<path class="st5" d="M623.6,1051.8c-10.7,5.1-70.1,18.8-29.5,21.6c12,0.8,24.7,1.2,36.1,1.9c18.3,1.1,22-2.1,35.5-5.9
			c7.8-2.2,75.5-8.3,43.6-17.5c-19.7-5.7-51.8-1.1-72.2-0.1C631.2,1052,628.3,1049.5,623.6,1051.8z"/>
		<path class="st5" d="M864.3,1058.1c-6.6-0.2-24.9-4-25.5-8.2c-0.8-5.7,15.7-5.2,23.7-5.7c23.5-1.2,51-2.1,73.7,1.7
			c35.6,5.9,64.6,17.3,80.3,32.6c-23.2,4-27.8-5.5-43.7-10c-13.2-3.7-36-3.5-51.2-5.1c-12.3-1.3-103-1.5-83.1-16.3L864.3,1058.1z"/>
		<path class="st5" d="M814.6,1054.2c28.6,28.5,138.2,9.3,161.6,38.4c-22.5,1.5-41.6-5.8-64.6-4.2c-20.6,1.4-46.4,7.7-67.5,4.2
			c-20.7-3.5-36.4-13.3-46.8-21.7C788.6,1063.8,793.1,1052.9,814.6,1054.2z"/>
		<path class="st5" d="M1080.2,1155.7c4.3,31.2,64.8,39,116.9,47.9c30.4,5.2,33.3,15.8-4.1,13.7c-10.8-0.6-25.2-3.5-31.2,2.4
			c-2.7,2.6,5.3,4,1.4,6.2c-3.6,2-14.8,1.4-19.6,1.2c-12.2-0.7-22.4-2-35.8-1.6c-12.1,0.3-22.7,1.9-34.9,0.2
			c-14.3-1.9-26.7-5.3-35.3-10.9c-10.2-6.5-9.3-8.2-4.4-15.2c3.8-5.4-2.1-9.9-0.4-15.3c2.1-6.5,16.6-6.1,22-12
			c4.6-5-3.9-11.5,2.5-16.5C1064.6,1150.1,1072.3,1150.9,1080.2,1155.7z"/>
		<path class="st5" d="M1140.2,1151.2c-11.7,2-39.1,13.9-29.6,20.2c8.4,5.6,42.3,3.4,55.9,6.8c18.6,4.6,27,11.7,41.4,18.2
			c23.4,10.6,10-5.8,8.6-11.7c13-0.7,22.8,7.4,31.6,10.9c15-8.1-63.5-37.3-80.4-41.3c-11.2-2.6-39.9-7.4-52-5.6
			c-26.8,4.1,19.8,6.4,23.1,10.1L1140.2,1151.2z"/>
		<path class="st5" d="M734.1,1212.8c0.6,16.6,18.6,19.6,56.7,21c12.2,0.4,75.8-3.9,62.7,7.9c-4,3.6-12,2.9-18.8,3.6
			c-8.6,0.9-8,0-15.6,3.4c-9.9,4.4-15.1,8.7-31.1,7.9c-11.1-0.5-21.5-4.1-33.1-4.7c-12.8-0.6-26.3,2.4-32.8-4
			c-2.9-2.8-1.5-9.3-2.2-12.4c-1-4.1-3.6-8-4.8-11.7c-2-6,1.1-16,8.5-20.9c3,1.3,5.9,2.9,8.6,4.8L734.1,1212.8z"/>
		<path class="st5" d="M448,1187.8c-30.8-7.4-53.9,2.1-82.1,4.8c-5.1-0.2-10.2,0.1-15.3,0.8c-2.6,7.2,13.6,7,24,8
			c5.3,0.5,11.8,0.5,16.3,2.1s4.8,6.1,10.6,7.6c9.6,2.5,24.6-0.1,35.1,2.9c9.8,2.7,12.1,10.2,22.8,11.8c13.4,2,17.6-3.9,19.6-9.1
			C484.5,1203.5,473.8,1194,448,1187.8z"/>
		<path class="st5" d="M378.5,1231.2c-14.9-1.7-50.6-12.4-53.5-20.4c-1.8-0.4-3.6-1.1-5.3-2c-3.4-2.1-1-7.1-5.4-8.8
			c-23.9-9.4-16.2,20.8-17.1,24.8c-2.5,11.5-13.7,22.3,21.7,25.4c12.1,1.1,23.1,1.7,34.6,2.7c12.2,1.1,24.7,0.6,34.5-3.2
			c10.8-4.2,10-6.7,25.4-7.6c12.8-0.7,21.9,0.3,32.8-3.1C445.2,1230.4,393.1,1232.8,378.5,1231.2z"/>
		<path class="st5" d="M374.1,1175.3c-3.8,1.1-6.3,1.9-5.7,4.1c13.5,1,25.6-4.3,40.2-4.2s30,2.2,43.7,4.8c12.5,2.4,26.2,5.2,34.8,10
			c8.2,4.6,7.6,12.7,17,15.9c20.1-10-28.6-27.4-45.9-31.8C445,1170.6,371.9,1164.4,374.1,1175.3z"/>
		<path class="st5" d="M1073.3,1364.2c-9.4,4.9-28.5,15.4-9.7,21.3c6.4,2,14.3-0.6,20.7,0c8.5,0.8,14,3.7,20.1,6.8
			c10.1,5.1,19.9,12.8,31.6,17.1c8.6,3.2,14.2,1.3,21.2,4c6.2,2.4,5.9,7.2,12.3,9.6c15.1-15.4,7.2-31.3-13.6-45.4
			c-22.3-15.2-58.2-21.2-80.6-14.1L1073.3,1364.2z"/>
		<path class="st5" d="M1042.3,1380.6c0.3,15.6,4.8,19.6,30.3,30.7c24.2,10.6,52.4,12.6,81.7,16.8c0.6,0.7,1.2,1.6,1.6,2.5
			c-22.8,9.9-96.9-10.2-116.4-17.7c-16.6-6.4-16.2-16.7-19.3-25.6c-1.5-4.1-5.6-11.2,0.3-15.2c11.1-7.4,12.3-2.3,20,1.7
			L1042.3,1380.6z"/>
		<path class="st5" d="M1119.7,1358.5c13.5,10.7,48.1,10.5,62.2,22.4c10.6,8.9,5.7,23.8,21.8,30.4c16.4-7.5-15.5-30.7-28.3-37
			c-8.7-4.3-17.7-8.8-28.4-11.9C1141.2,1360.6,1108.6,1349.6,1119.7,1358.5z"/>
		<path class="st5" d="M1264.5,1285.4c-0.3,23.2,18.8,27.2,49.6,44.5c23.4,13.1,43.1,23.9,77.4,30.7c30.5,6.1,62.9,11.2,96.9,11.1
			c8.4,0,26.3-3.4,31.6-0.2c9.6,5.7-11.2,10-19.3,11.3c-9.6,1.6-27.1,2.4-34.1,5.7c-10.5,5-3,11-21,13.1
			c-12.7,1.5-29.6-0.2-42.2-0.6c-14.6-0.5-23.6,1.9-37.6,2.4c-27.4,1-74.5-10-88.8-20.2c-8.8-6.3-11.1-12.1-23.3-17.3
			c-10.7-4.6-24-8.4-31.6-14.5c-14.4-11.7-6.4-22.7-8.8-34.9c-1-4.9-5.4-10.1-3.4-15.2s10-9.8,13.2-14.6c4.9-7.3,3.3-20,17.4-25.6
			c22.5-9,3.3,8,15.9,8.9L1264.5,1285.4z"/>
		<path class="st5" d="M1382.8,1236.3c-24.1,5.2-71,21.3-39.7,34.7c13.3,5.7,23-1.9,37.3,2.6c9.7,3,14.2,10,23.6,13.5
			c9.8,3.6,19.3,8,28.4,13.2c15.7,8.6,16,1,32,3.1c19.8,2.7,27.7,20.9,42.1,27.1c4,1.8,8.2,3.1,12.6,3.6
			c-0.8-10.7,0.4-21.6,2.4-32.2c2.4-12.6-9.4-23-25.1-33c-13.7-8.7-38-17.3-56.3-23.7C1420.7,1238.4,1403.7,1231.8,1382.8,1236.3z"
			/>
		<path class="st5" d="M859.2,1202.4c-1-0.8-2.1-1.6-3.3-2.2c-1.4-1.3-2.9-2.4-4.7-3.3c-13.8-6.2-66.2-9.4-76.3,0.8
			c-1.5,0.7-3,1.6-4.3,2.8c-4.5,0.7-8.1,1.8-8,5.2c0.1,5.5,14.5,8,24.2,8.9c12.5,1.2,25.2-0.8,36.3,2.4c8.1,2.3,14.8,9.7,26.5,9
			C875.6,1234.5,867.9,1210,859.2,1202.4z"/>
		<path class="st5" d="M853.9,1185.3c-11.1-1.4-47.5-6.4-51,1.4c14.5,1.1,35.3,0.1,45.1,2.4c9.6,2.2,16,5,21.7,9
			c4.3,3.1,7,10.7,14.7,10.9C886,1198.6,876.5,1188.2,853.9,1185.3z"/>
		<path class="st5" d="M1091.4,1671.3c-21.1-8.4-55.6-13.7-83.1-15.4c-29.7-1.8-61.6-0.4-90.1,2.6c-22.9,2.4-33.5,14.7-55.5,16.5
			l-18,3.8c-15.8,2.2-20.5,8-15.8,15.4c1.5,2.3,2.8,6.1,10.7,4.6c7.3-1.3,1.7-4.6,4.2-6.8c4.6-4,18.1-7.8,27.3-9.1
			c12.3-1.7,18.9,1.7,32.7,1.4c16.2-0.4,24.4-0.7,39.3,3.8c14.6,4.3,20.3,13.2,33.3,17.1c10.8,3.2,32.2,0.4,44.9,0.4
			c18.5,0,35.7,1.5,54.4,0.6c5.3-0.3,20.1,0.1,24.1-1.6c6.6-2.9,1.2-3.1,1.7-6.3c0.2-1-3.9-1.8-3.6-3.4c0.4-2.4,5.9-0.4,7.3-2.1
			c1.7-2,3.4-5.4,3.2-7.6C1107.6,1678.8,1101.5,1675.4,1091.4,1671.3z"/>
		<path class="st5" d="M865.9,1730.5c-11.6,0.4-29.5-10.6-24.9-15.7c7.7-8.6,23.5,0.5,33.5,2.8c27.5,6.2,69.5,8.3,99.5,8.3
			c10.2,0,35.3-2.3,43.2,0.6c14.4,5.3-11.3,10.3-21.5,11c-19.1,1.4-43,2.2-62.4,1.7c-15.4-0.4-27.1-3.7-41.9-5.5
			C882.3,1732.6,874.2,1732.9,865.9,1730.5z"/>
		<path class="st5" d="M1011.8,1490.9c-10.3,2.8-36.9,12.5-23.3,19.3c7.6,3.8,26.1,0.6,35.8,2c14.4,2.1,12,7.8,28.8,8.8
			c13.1,0.8,22.7-0.3,34.3,4.1c6.9,2.6,17.6,12.8,28.9,9.4c7.9-2.4,2.9-15.6,1.4-18.7c-6.2-12.8-29.7-25.4-57.9-27.8
			c-8.1-0.7-17.5-1.6-25.6-1.4C1022.8,1486.9,1020.5,1488.5,1011.8,1490.9z"/>
		<path class="st5" d="M976.4,1514.4c0.7,16.7,26.6,18.4,59,21.4c19.5,1.8,57.5-1.9,66.3,8.5c6.8,8-6.9,7.2-20.8,7.7
			c-5.8,0.2-13.4-0.8-17.8,1.4c-4.1,2,1.2,5.6-4.5,8.2c-10.9,5-22.5,2.8-29.4,10.8c-6,7-0.4,9.2-18.1,11c-3.9,0.2-7.8,0.1-11.7-0.5
			c-11.7,14.8-22.7,5.1-26.4-5.5c-1.5-4.5,1-10.1-1.5-14.5c-2.9-5.2-13.2-7.2-18.7-11.6c-9.9-8-3.4-21.3,1.4-29.7
			c1.5-2.7,1.8-11.4,8.1-12.9c5.4-1.2,7.2-2.2,12.5,1.4L976.4,1514.4z"/>
		<path class="st5" d="M1289,1453.5c-17.3,0.1-35.6-0.5-38.9,9.2c-1.2,3.6,3.5,4.9-1.3,8.3c-3.6,2.6-15.3,2.5-18,4.9
			c-12.9,11,51.5,9.9,63.5,10c16.8,0.3,28.6,1.8,42.1-3.5c9.4-3.7,15.9-9.5,14.6-15.4c-1.4-6.3-12-8.3-24.3-10.4
			c-10.6-1.8-29.1-0.2-37.8-2.4l-1.2-0.2C1287.9,1453.1,1287.6,1453.9,1289,1453.5z"/>
		<path class="st5" d="M1570.5,1469.3c-3.5-8.4,11.9-26.7,35.5-25c21.1,1.5,26.1,19.7,26.2,27.7c0.1,5.8,7.9,27.6-5.2,31
			c-16.5,4.3-18.3-16.7-21.9-21.2c-5.4-0.3-10.8,0.4-15.9,2c-0.8-1.8-3.7-3.3-3.7-5.3c-12.9-0.1-9.4,7.1-14.5,10.4
			C1562.1,1484.5,1566.6,1474.2,1570.5,1469.3z"/>
		<path class="st5" d="M1539.3,1485.4c0.4,8.8,15.3,19.9,31,24.5s34.3,1.7,52.1,2.1c1.1,5-18.7,7.9-26.2,11.1
			c-8.6,3.7-19.3,6.8-27.1,10.5c-7.7,3.7-11.5,9.8-20.8,12.6c-12.1,3.6-28.1,2.2-31.7-4c-3.3-5.7,5-11.3,7.1-16.6
			c2.1-5.2,1.3-11,1.1-16.5s-1.7-11.7-0.4-17.3c0.9-4.2,7.8-15.9,16-6.8c1.2,1.3,0.8,3.9,0.5,5.4L1539.3,1485.4z"/>
		<path class="st5" d="M1390.5,1609.7c-13.1-9,9.2-25.3,27.8-29.3c23.8-5.2,61.2-6.7,65,8.3s-4.1,33.4-15.4,47.5
			c-2.9,3.7-9.5,11.4-19.1,7c-6.2-2.8-3.4-13.2-4-17.2c-13.9-2-23.9-1.2-30-6.8c-3.5-3.2,3.4-6.4-7.8-6.9c-4-0.2-12.1,3.4-14.5,4.7
			c-4.1-4.9-3.6-10.2-3.8-15.6L1390.5,1609.7z"/>
		<path class="st5" d="M1352.8,1603.7c-7.3,9.4-2.4,26.4-2.1,36.6c0.3,8.8-0.3,18.1,15.3,24.2c12.4,4.9,29,4.7,44,2.5
			c14.3-2.1,31.9-10.3,46.1-10c2.8,5.4-17.1,11-26.5,13c-14.3,3.1-21.3,3.1-31.7,9.3c-7.7,4.6-13,10.3-23.4,13.8
			c-3.5,1.2-11,3.6-15.2,3.6c-11.2,0-6.2-2.2-13.3-4.6c-11.2-3.8-19.5-0.4-31.6-1.9c-12.5-1.5-6-8-21.2-8.9
			c-11.1-0.7-25.3,8.4-30.1,1.6c-3.6-5.1,14.2-12.6,20.7-16c20.7-10.8,29.8-20.8,41.6-34.1
			C1330.7,1626.8,1338.3,1603.3,1352.8,1603.7z"/>
		<path class="st5" d="M1279.8,1082.2c-14.4-1.8-29.1-9-45.3-5.5c-15.7,3.4-10.9,10.8-2.7,16.1c10.7,6.9,27.7,8.7,39.1,14.5
			c9.2,4.7,12.9,10.7,24.7,14.4c11.1,3.5,27,4.6,39.3,6.3c16.6,2.3,25.5,4.9,39.3,9.5c13.4,4.5,24,6,40.4,6.8
			c20,1,33.6,5.3,50.6,10.1c9.2,2.6,20.2,6.7,29.6,8c4.5-14.1-36.6-23.6-54.7-32.1c-20.1-9.5-30.4-20.2-54.5-27.5
			c-19.8-6-36.4-14.5-59.1-18.4c-16.1-2.7-46.5-1.3-59.1-5.7L1279.8,1082.2z"/>
		<path class="st5" d="M1720.8,1339.1c-30.6-11.2-41.8-13.7-66.4,1.9c14.6,5.6,25.7,12,29.9,20.7c3.5,7.2-0.8,18,13.9,23.5
			C1734.2,1398.6,1772,1339.2,1720.8,1339.1z"/>
		<path class="st0" d="M1553.7,1703.9l-45.9,38.5l-48.8,23.7l-49.8,21c-43.4,16-80.2,27.6-143.2,36.6l-47.3,5.8
			c-40.6,7-80.9,16.2-121.3,15l-105.7,0.6l-74.8,10.6c-45.3,6.3-102.9,4.3-153.2-0.2l-47-8.9l-63.8,0.3l-73.4-15.3
			c0,0-79.5-7.9-84-7.8s-51.7-8-51.7-8c-35.5-4.1-82.4-13.8-113.9-27l-66.9-32.8l-58.9-20.6l-98.1-38L40.3,1660l-44.7-26.3
			c-46.2-36.7-71.3-64-90.8-102.5l-18.8-31.7c-17.6-32-38.6-71.1-29.5-101.1l52.9-13.6c30.9,48.8,29.8,109.7,127.2,136.4
			c30-10.7,115-8.7,135.4,6s34.9,33.2,69.5,40.3c8.6,1.8,18.3,2.8,25.8,5.5c9.4,3.4,13.9,9.2,23.9,12.4c18.2,5.8,43.1,0.1,59.9-6.6
			s35.2-14.8,57.2-13.7c-30.9,25.2-18,60,29.4,79.1s124,20.6,174.6,3.3c-5.9,15.4,26.9,27.6,56.8,35
			c57.9,14.4,119.6,25.3,181.1,36.2c18.3,3.2,36.6,6.5,55.5,8.8c30.3,3.7,60.8,5.1,91.3,4.1c15.9-0.5,31.8-1.6,47.5-0.4
			c14.1,1.1,27.2,4,40.5,6.5c76.7,14.1,163.3,11.4,243.7,2.9C1390.3,1734.1,1497,1716.8,1553.7,1703.9z"/>
	</g>
</g>
<path class="st5" d="M1254.4,1255.5c2.2,3.4,3.9,7.1,5,11.1c0.8,2.9,1.2,5.9,1.2,8.8c0,28.5-35.8,51.6-79.9,51.6
	c-12.2,0-24.3-1.8-35.8-5.5c-15.7,14.4-41.6,23.8-70.9,23.8c-23.2,0-44.2-5.9-59.7-15.4c-17.7,26.8-58.9,45.7-107,45.7
	c-40.1,0-75.4-13.1-96.3-33.1c-8.2,1.8-16.7,2.8-25.1,2.8c-5.7,0-11.3-0.4-16.9-1.2c-12.3,12.6-34,21-58.7,21
	c-20.6,0-39-5.8-51.8-15c-13.7,6.6-30.6,10.6-49.1,10.6c-28.7,0-53.9-9.5-68.6-23.9c-20-1.1-38.5-5.8-53.7-13.2
	c-17.6,8.5-39.4,13.4-63.1,13.4c-58.5,0-106-30.6-106-68.4c0-21.8,15.9-41.3,40.5-53.8c-28.5-8.3-47.2-17.2-47.2-38.7
	c0-3.3,75.8-29.1,115.9-29.1c28,0,17.4-24.1,32.1-10.2c10.3-2.9,21-4.3,31.7-4.3c43.5,0,78.8,22.8,78.8,50.8
	c-0.1,6.2-1.8,12.2-4.9,17.6c34.5,3.1,63.8,17,79.3,36.2c6.4-1.2,13-1.8,19.5-1.8c4.4,0,8.7,0.3,13.1,0.8
	c-7.4-19.2,20.1-36.1,50.2-29.8c11,2.3,19.8,8,23.4,15.1c5.1,10.1,0.6,19.7-9.2,26c3.6,0.4,7.1,1.4,10.3,3c22.6-7.1,46.9-7,69.5,0.2
	c21.3-15.3,52.1-24.9,86.4-24.9c0.7,0,1.4,0,2.1,0c6.2-13.8,26-24,49.4-24c12.3,0,23.6,2.8,32.4,7.4c11.1-12.5,29.9-21.8,52.3-25.1
	c0-0.2-0.1-0.5-0.1-0.7c0-28.5,35.8-51.6,79.9-51.6c33.9,0,62.8,13.7,74.4,32.9c1.8-0.1,3.7-0.2,5.5-0.2c44.1,0,79.9,23.1,79.9,51.6
	C1283.1,1231.8,1271.9,1246,1254.4,1255.5z"/>
<g class="st8">
	<path class="st9" d="M1399.1,623.7c-3.5,0-3.5,5.5,0,5.5S1402.6,623.7,1399.1,623.7z"/>
	<path class="st9" d="M1230.9,709c-3.5,0-3.5,5.5,0,5.5S1234.4,709,1230.9,709z"/>
	<path class="st9" d="M1248,613.9c-3.5,0-3.5,5.5,0,5.5S1251.5,613.9,1248,613.9z"/>
	<path class="st9" d="M1145.3,553.3v2.4c0,3.5,5.5,3.5,5.5,0v-2.4C1150.8,549.8,1145.3,549.8,1145.3,553.3z"/>
	<path class="st9" d="M1464.6,390v2.4c0,3.5,5.5,3.5,5.5,0V390C1470.1,386.5,1464.6,386.5,1464.6,390z"/>
	<path class="st9" d="M1248,384.8c-3.5,0-3.5,5.5,0,5.5S1251.5,384.8,1248,384.8z"/>
	<path class="st9" d="M1491.7,801.6c-3.5,0-3.5,5.5,0,5.5S1495.2,801.6,1491.7,801.6z"/>
	<path class="st9" d="M1318.7,867.4c-3.5,0-3.5,5.5,0,5.5S1322.2,867.4,1318.7,867.4z"/>
	<path class="st9" d="M1452.4,1031v2.4c0,3.5,5.5,3.5,5.5,0v-2.4C1457.9,1027.5,1452.4,1027.5,1452.4,1031z"/>
	<path class="st9" d="M1620.9,879.6h-2.4c-3.5,0-3.5,5.5,0,5.5h2.4C1624.4,885.1,1624.4,879.6,1620.9,879.6z"/>
	<path class="st9" d="M1616,299.5c-3.5,0-3.5,5.5,0,5.5S1619.6,299.5,1616,299.5z"/>
	<path class="st9" d="M1187,340.9c-3.5,0-3.5,5.5,0,5.5S1190.6,340.9,1187,340.9z"/>
	<path class="st9" d="M687.4,287.3c-3.5,0-3.5,5.5,0,5.5S690.9,287.3,687.4,287.3z"/>
	<path class="st9" d="M684.9,102.1c-3.5,0-3.5,5.5,0,5.5S688.5,102.1,684.9,102.1z"/>
	<path class="st9" d="M472.9,172.8h-2.4c-3.5,0-3.5,5.5,0,5.5h2.4C476.4,178.2,476.4,172.8,472.9,172.8z"/>
	<path class="st9" d="M504.5,331.2c-3.5,0-3.5,5.5,0,5.5S508.1,331.2,504.5,331.2z"/>
	<path class="st9" d="M619.1,416.5c-3.5,0-3.5,5.5,0,5.5S622.7,416.5,619.1,416.5z"/>
	<path class="st9" d="M497.2,489.6h-2.4c-3.5,0-3.5,5.5,0,5.5h2.4C500.8,495.1,500.8,489.6,497.2,489.6z"/>
	<path class="st9" d="M282.4,516.7v2.4c0,3.5,5.5,3.5,5.5,0v-2.4C287.9,513.2,282.4,513.2,282.4,516.7z"/>
	<path class="st9" d="M321.7,338.5c-3.5,0-3.5,5.5,0,5.5S325.3,338.5,321.7,338.5z"/>
	<path class="st9" d="M329.1,411.6c-3.5,0-3.5,5.5,0,5.5S332.6,411.6,329.1,411.6z"/>
	<path class="st9" d="M482.6,694.4h-2.4c-3.5,0-3.5,5.5,0,5.5h2.4C486.1,699.8,486.1,694.4,482.6,694.4z"/>
	<path class="st9" d="M372.9,808.9c-3.5,0-3.5,5.5,0,5.5S376.5,808.9,372.9,808.9z"/>
	<path class="st9" d="M285.2,740.7c-3.5,0-3.5,5.5,0,5.5S288.7,740.7,285.2,740.7z"/>
	<path class="st9" d="M246.2,925.9c-3.5,0-3.5,5.5,0,5.5S249.7,925.9,246.2,925.9z"/>
	<path class="st9" d="M209.6,1103.9c-3.5,0-3.5,5.5,0,5.5S213.2,1103.9,209.6,1103.9z"/>
	<path class="st9" d="M73.1,1189.2c-3.5,0-3.5,5.5,0,5.5S76.7,1189.2,73.1,1189.2z"/>
	<path class="st9" d="M146.2,1045.4h-2.4c-3.5,0-3.5,5.5,0,5.5h2.4C149.8,1050.8,149.8,1045.4,146.2,1045.4z"/>
	<path class="st9" d="M73.1,913.7c-3.5,0-3.5,5.5,0,5.5S76.7,913.7,73.1,913.7z"/>
	<path class="st9" d="M185.2,813.8c-3.5,0-3.5,5.5,0,5.5S188.8,813.8,185.2,813.8z"/>
	<path class="st9" d="M75.6,633.4c-3.5,0-3.5,5.5,0,5.5S79.1,633.4,75.6,633.4z"/>
	<path class="st9" d="M85.3,336.1c-3.5,0-3.5,5.5,0,5.5S88.8,336.1,85.3,336.1z"/>
	<path class="st9" d="M224.2,145.9c-3.5,0-3.5,5.5,0,5.5S227.8,145.9,224.2,145.9z"/>
	<path class="st9" d="M621.5,677.3c-3.5,0-3.5,5.5,0,5.5S625.1,677.3,621.5,677.3z"/>
	<path class="st9" d="M1077.3,511.6c-3.5,0-3.5,5.5,0,5.5S1080.9,511.6,1077.3,511.6z"/>
	<path class="st9" d="M977.4,306.8c-3.5,0-3.5,5.5,0,5.5S981,306.8,977.4,306.8z"/>
	<path class="st9" d="M1152.9,472.6h-2.4c-3.5,0-3.5,5.5,0,5.5h2.4C1156.4,478,1156.4,472.6,1152.9,472.6z"/>
	<path class="st9" d="M1121.2,728.5c-3.5,0-3.5,5.5,0,5.5S1124.8,728.5,1121.2,728.5z"/>
	<path class="st9" d="M1574.1,1131.5c-2.5-2.5-6.4,1.4-3.9,3.9l2.4,2.4c2.5,2.5,6.4-1.4,3.9-3.9L1574.1,1131.5z"/>
	<path class="st9" d="M1576.7,524v2.4c0,3.5,5.5,3.5,5.5,0V524C1582.2,520.5,1576.7,520.5,1576.7,524z"/>
	<path class="st9" d="M1518.5,143.5c-3.5,0-3.5,5.5,0,5.5S1522.1,143.5,1518.5,143.5z"/>
	<path class="st9" d="M1260.2,138.6h-2.4c-3.5,0-3.5,5.5,0,5.5h2.4C1263.7,144.1,1263.7,138.6,1260.2,138.6z"/>
	<path class="st9" d="M1040.8,89.9c-3.5,0-3.5,5.5,0,5.5S1044.3,89.9,1040.8,89.9z"/>
	<path class="st9" d="M297.4,85c-3.5,0-3.5,5.5,0,5.5S300.9,85,297.4,85z"/>
	<path class="st9" d="M87.8,92.3c-3.5,0-3.5,5.5,0,5.5S91.3,92.3,87.8,92.3z"/>
</g>
<path class="st10" d="M1227.1,1038.4c-10.2,10.7-16.1,24.9-16.4,39.7c-20.6-9.7-44.8-8.3-64.2,3.7c0.1-1,0.1-1.9,0.1-2.9
	c0-11.9-6.5-22.9-17-28.5c15.7-0.9,29.1-11.9,33.1-27.1c4.4,17.1,21.8,27.5,38.9,23.1c17.1-4.4,27.5-21.8,23.1-38.9
	c-4.4-17.1-21.8-27.5-38.9-23.1c-10.9,2.8-19.5,11-22.7,21.7c-4.2-19.7-23.6-32.3-43.3-28.1c-3.1,0.7-6.1,1.7-8.9,3.1
	c-5.9,3-10.8,7.4-14.4,13c-25.2-32.1-71.7-37.7-103.8-12.5c-16,12.6-26.2,31.3-28,51.6c-8.1,0-15.9,3.3-21.7,9.1
	c-2.3,0.6-4.5,1.3-6.7,2.1c-23.7-29.9-67.2-34.9-97.1-11.2c-3,2.3-5.7,4.9-8.3,7.7c-8.8-23.9-35.3-36.1-59.2-27.3
	c-9.8,3.6-18.1,10.5-23.5,19.4c-16.2-19-39.9-29.9-64.8-29.9c-2.4,0-4.7,0.1-7.1,0.3c3.3-24.1-13.6-46.2-37.7-49.5
	c-5.8-0.8-11.7-0.4-17.3,1.1c-1.7-12.6-11.2-22.8-23.6-25.5c-3.5-25.2-26.7-42.8-51.9-39.3c-25.2,3.5-42.8,26.7-39.3,51.9
	s26.7,42.8,51.9,39.3c3.4-0.5,6.8-1.3,10-2.6c5.3,6.1,12.8,9.9,20.8,10.4c-3.9,20.2,6.6,40.4,25.4,48.7
	c-27.8,37.9-19.6,91.2,18.3,119c14.6,10.7,32.3,16.5,50.4,16.5c43.5,0,84.7,2.2,89.8-40c5.2,2.4,10.7,3.9,16.4,4.3l46.2,85.2
	c4.2-14.5,2.7-29.9-4-43.4c-0.5-1-1.1-2-1.7-3c14-1.4,26.8-8.4,35.6-19.4c5.1-0.2,10.6-0.4,16.3-0.4c14.1,0,27.8-4.3,39.3-12.4
	c25.2,19.4,61.4,14.6,80.7-10.6c2.5-3.3,4.7-6.9,6.5-10.7c25.9,18.6,62,12.7,80.6-13.1c1.5-2.1,2.8-4.2,4-6.5c5.8,5,13.3,7.8,21,7.8
	c2.2,0,4.3-0.2,6.5-0.7c-15.9,33.8-1.4,74.1,32.3,90c26.9,12.7,58.8,6.3,78.8-15.6L1227.1,1038.4z"/>
<polygon class="st11" points="875.5,1134 789.2,1134 784.3,842.2 880.5,842.2 "/>
<polygon class="st12" points="848.1,1134 816.6,1134 807.6,842.2 857.1,842.2 "/>
<path class="st10" d="M633.7,903.2c5,0,9.1-4.1,9.1-9.1s-4.1-9.1-9.1-9.1s-9.1,4.1-9.1,9.1S628.6,903.2,633.7,903.2L633.7,903.2z"/>
<path class="st10" d="M1182.9,1046.6c7.8,0,14.1-6.3,14.1-14.1c0-7.8-6.3-14.1-14.1-14.1c-7.8,0-14.1,6.3-14.1,14.1c0,0,0,0,0,0
	C1168.8,1040.2,1175.2,1046.6,1182.9,1046.6C1182.9,1046.6,1182.9,1046.6,1182.9,1046.6z"/>
<path class="st10" d="M1143.8,905.3c4.7,0,8.6-3.8,8.6-8.6s-3.8-8.6-8.6-8.6c-4.7,0-8.6,3.8-8.6,8.6l0,0
	C1135.2,901.5,1139.1,905.3,1143.8,905.3z"/>
<circle class="st10" cx="1042.4" cy="914.2" r="26.5"/>
<path class="st10" d="M1230.2,1006.8c10.8,0,19.6-8.8,19.6-19.6s-8.8-19.6-19.6-19.6c-10.8,0-19.6,8.8-19.6,19.6v0
	C1210.6,998,1219.3,1006.8,1230.2,1006.8z"/>
<path class="st10" d="M541.5,825.3c8,0,14.5-6.5,14.5-14.5c0-8-6.5-14.5-14.5-14.5c-8,0-14.5,6.5-14.5,14.5c0,0,0,0,0,0
	C527,818.8,533.5,825.3,541.5,825.3z"/>
<path class="st13" d="M894.2,858.7H771.4c-1.6,0-2.9-1.3-2.9-2.9v-26.3l64.3-19.3l64.2,19.3v26.3
	C897.1,857.4,895.8,858.7,894.2,858.7z"/>
<path class="st14" d="M924,800.2v128.1c0,11.4,7.3,18,18.3,17.9c32.1-1.2,52.4-27.8,56.2-51.6l16.5-159.1c5.3-40.3-18.1-72-56.1-88
	l-24.2-3.7L924,800.2z"/>
<g class="st8">
	<path class="st15" d="M959.1,647.6l-24.1-3.7l-1,13.7l21.1-2.1c61.4,26,57.7,76.4,51.2,161.7l8.8-81.6
		C1020.5,695.2,997.1,663.6,959.1,647.6z"/>
</g>
<path class="st9" d="M751.9,364.8c-32.2,113.1-23.2,265.8-3.5,435.4h169.1c19.6-169.7,28.6-322.3-3.5-435.4H751.9z"/>
<path class="st16" d="M810.5,800.2h-62.2c-10.3-89.3-17.7-173.8-17.7-250.4c0-69,6-131.5,21.2-185.1h38.5c-3.7,19-5.2,46.3-3.1,64.7
	c9-0.2,32.2-38.1,42.9-39.5c-6.7,37.4,3.2,86.6,2.6,127.7C765.2,517.7,795.4,636.6,810.5,800.2z"/>
<rect x="730.6" y="540.7" class="st14" width="204.5" height="1.8"/>
<g class="st17">
	<path class="st18" d="M914.2,364.4c0,0.1,0.1,0.3,0.1,0.4c32.2,113.1,23.2,265.8,3.5,435.4H896c19.6-169.7,36-322.3,3.8-435.4
		c0-0.1-0.1-0.3-0.1-0.4L914.2,364.4z"/>
</g>
<polygon class="st19" points="897.2,829.5 768.5,829.5 756.1,800.2 909.7,800.2 "/>
<path class="st14" d="M741.6,800.2v128.1c0,11.4-7.3,18-18.3,17.9c-32.1-1.2-52.4-27.8-56.2-51.6l-16.5-159.1
	c-5.3-40.3,18.1-72,56-88l24.2-3.7L741.6,800.2z"/>
<g class="st20">
	<path class="st14" d="M706.6,647.6l24.2-3.7l0.9,13.7l-21.1,10.3c-48.6,18-51.3,101.3-48.5,179.4l-11.6-111.7
		C645.3,695.2,668.7,663.6,706.6,647.6z"/>
</g>
<path class="st21" d="M752.3,800.2h-30.2l-16.3-160.7c-2.3-15.8,9.9-29.8,26.1-32.5c4.5,6.4,6.5,17.3,7.3,30.7L752.3,800.2z"/>
<path class="st21" d="M913.3,800.2h30.2l16.3-160.7c2.3-15.8-9.9-29.8-26.1-32.5c-4.5,6.4-6.5,17.3-7.3,30.7L913.3,800.2z"/>
<path class="st21" d="M802.4,638.7l8.1,161.5h44.7l8.1-161.5c0.8-16.6-12-30.8-28.6-31.6c-0.5,0-1,0-1.5,0h-0.6
	c-16.7,0-30.2,13.5-30.2,30.2C802.4,637.7,802.4,638.2,802.4,638.7z"/>
<path class="st21" d="M825.5,258.4c-38.3,28.5-63.5,63.6-73.7,106.4h162c-10.2-42.7-35.3-77.9-73.7-106.4H825.5z"/>
<polygon class="st9" points="832.9,159.4 832.9,159.1 825.5,258.4 840.2,258.4 832.9,159.1 "/>
<rect x="745.8" y="718" class="st14" width="59.9" height="1.8"/>
<rect x="860" y="718" class="st14" width="59.8" height="1.8"/>
<path class="st14" d="M762.6,370.5c-0.3,1.4,0.2,2.7,1,2.9s1.7-0.9,2-2.3s-0.2-2.7-1-2.9S762.8,369,762.6,370.5z"/>
<path class="st14" d="M785.2,370.6c-0.1,1.4,0.5,2.6,1.3,2.7s1.6-1.1,1.7-2.5s-0.5-2.6-1.3-2.7S785.3,369.2,785.2,370.6z"/>
<path class="st14" d="M815.7,370.8c0.1,1.4,1.2,2.4,2.6,2.3c1.4-0.1,2.4-1.2,2.3-2.6c-0.1-1.3-1.2-2.3-2.5-2.3
	C816.7,368.2,815.6,369.4,815.7,370.8z"/>
<path class="st14" d="M902.8,370.5c0.3,1.4-0.2,2.7-1,2.9s-1.7-0.9-2-2.3s0.2-2.7,1-2.9S902.5,369,902.8,370.5z"/>
<path class="st14" d="M880.7,370.1c0.1,1.4-0.5,2.6-1.3,2.7s-1.6-1-1.7-2.5s0.5-2.6,1.3-2.7S880.6,368.7,880.7,370.1z"/>
<path class="st14" d="M851.5,370.8c0,1.4-1.1,2.5-2.5,2.5c0,0-0.1,0-0.1,0c-1.4,0-2.6-1.2-2.6-2.6c0-1.4,1.1-2.5,2.4-2.5
	c0,0,0.1,0,0.1,0C850.3,368.2,851.5,369.3,851.5,370.8z"/>
<path class="st14" d="M756,713.4c0,1.4,0.8,2.6,1.8,2.6s1.8-1.2,1.8-2.6s-0.8-2.6-1.8-2.6S756,711.9,756,713.4z"/>
<ellipse class="st14" cx="759" cy="725.7" rx="1.8" ry="2.6"/>
<path class="st14" d="M784.3,713.4c0.2,1.2,1.3,2.1,2.6,1.9c1.2-0.2,2.1-1.3,1.9-2.6c-0.2-1.1-1.1-1.9-2.2-1.9
	C785.2,710.9,784.2,712,784.3,713.4z"/>
<ellipse class="st14" cx="787.7" cy="725.7" rx="2.2" ry="2.6"/>
<path class="st14" d="M910,713.4c0,1.4-0.8,2.6-1.8,2.6s-1.8-1.2-1.8-2.6s0.8-2.6,1.8-2.6S910,711.9,910,713.4z"/>
<ellipse class="st14" cx="907" cy="725.7" rx="1.8" ry="2.6"/>
<path class="st14" d="M881.7,713.4c-0.2,1.2-1.3,2-2.6,1.9c-1.2-0.2-2-1.3-1.9-2.6c0.2-1.1,1.1-1.9,2.2-1.9
	C880.8,710.9,881.8,712,881.7,713.4z"/>
<ellipse class="st14" cx="878.3" cy="725.7" rx="2.2" ry="2.6"/>
<path class="st14" d="M747.3,535.7c0,1.4,0.7,2.6,1.5,2.6s1.5-1.2,1.5-2.6s-0.7-2.6-1.5-2.6S747.3,534.3,747.3,535.7z"/>
<path class="st14" d="M774.9,535.7c0,1.4,0.8,2.6,1.8,2.6s1.8-1.2,1.8-2.6s-0.8-2.6-1.8-2.6S774.9,534.3,774.9,535.7z"/>
<path class="st14" d="M810.8,535.7c0.2,1.2,1.3,2,2.6,1.9c1.2-0.2,2-1.3,1.9-2.6c-0.2-1.1-1.1-1.9-2.2-1.9
	C811.7,533.2,810.7,534.4,810.8,535.7z"/>
<path class="st14" d="M919.2,535.7c0,1.4-0.7,2.6-1.5,2.6s-1.5-1.2-1.5-2.6s0.7-2.6,1.5-2.6S919.2,534.3,919.2,535.7z"/>
<path class="st14" d="M891.6,535.7c0,1.4-0.8,2.6-1.8,2.6s-1.8-1.2-1.8-2.6s0.8-2.6,1.8-2.6S891.6,534.3,891.6,535.7z"/>
<ellipse class="st14" cx="853.5" cy="535.7" rx="2.2" ry="2.6"/>
<path class="st14" d="M747.3,549c0,1.4,0.7,2.6,1.5,2.6s1.5-1.2,1.5-2.6s-0.7-2.6-1.5-2.6S747.3,547.6,747.3,549z"/>
<path class="st14" d="M774.9,549c0,1.4,0.8,2.6,1.8,2.6s1.8-1.2,1.8-2.6s-0.8-2.6-1.8-2.6S774.9,547.6,774.9,549z"/>
<path class="st14" d="M810.8,549c0.2,1.2,1.3,2,2.6,1.9c1.2-0.2,2-1.3,1.9-2.6c-0.2-1.1-1.1-1.9-2.2-1.9
	C811.7,546.5,810.7,547.7,810.8,549z"/>
<path class="st14" d="M919.2,549c0,1.4-0.7,2.6-1.5,2.6s-1.5-1.2-1.5-2.6s0.7-2.6,1.5-2.6S919.2,547.6,919.2,549z"/>
<path class="st14" d="M891.6,549c0,1.4-0.8,2.6-1.8,2.6s-1.8-1.2-1.8-2.6s0.8-2.6,1.8-2.6S891.6,547.6,891.6,549z"/>
<path class="st14" d="M855.7,549c-0.2,1.2-1.3,2-2.6,1.9c-1.2-0.2-2-1.3-1.9-2.6c0.2-1.1,1.1-1.9,2.2-1.9
	C854.8,546.5,855.8,547.7,855.7,549z"/>
<path class="st19" d="M824.2,891.2h17.4V948c0,1.3-1,2.3-2.3,2.3c0,0,0,0,0,0h-12.8c-1.3,0-2.3-1-2.3-2.3V891.2z"/>
<path class="st22" d="M826.5,646h12.8c1.3,0,2.3,1,2.3,2.3c0,0,0,0,0,0v56.9h-17.4v-56.9C824.2,647,825.2,646,826.5,646z"/>
<rect x="824.2" y="705.2" class="st14" width="17.4" height="186"/>
<g class="st23">
	<path class="st24" d="M808.1,619.5c-4,5.6-6.1,12.3-5.7,19.2l8.1,161.5h13.7V646C824.2,646,818.1,636.1,808.1,619.5z"/>
</g>
<path class="st15" d="M847.2,614.9c-6-3.9-12.2-5.1-13.9-2.6s1.9,7.8,7.9,11.7s12.2,5.1,13.9,2.6S853.2,618.9,847.2,614.9z"/>
<path class="st15" d="M947.8,616.5c-3.3-2.8-7.1-3.7-8.5-2.1s0.2,5.2,3.5,8s7.1,3.7,8.5,2.1S951.1,619.3,947.8,616.5z"/>
<path class="st24" d="M741.6,800.2h-19.5l-16.3-160.7c-1.8-12.5,5.4-23.9,16.6-29.5L741.6,800.2z"/>
<path class="st25" d="M924,800.2h19.5l16.3-160.7c1.8-12.5-5.4-23.9-16.6-29.5L924,800.2z"/>
<path class="st24" d="M825.5,258.4c-20.5,26.6-28,63.7-35.1,106.4h-38.5C762,322,787.2,286.9,825.5,258.4z"/>
<polygon class="st16" points="832.9,159.1 832.9,159.4 832.9,159.1 825.5,258.4 832.9,258.4 832.9,159.7 "/>
<path class="st14" d="M765.7,358.4c-0.3,1.4,0.2,2.7,1,2.8s1.7-0.9,2-2.3s-0.2-2.7-1-2.8S766,357,765.7,358.4z"/>
<path class="st14" d="M787.3,358.6c-0.1,1.4,0.5,2.6,1.3,2.7s1.6-1,1.7-2.5s-0.5-2.6-1.3-2.7S787.4,357.1,787.3,358.6z"/>
<path class="st14" d="M815.8,358.7c0.1,1.3,1.3,2.2,2.6,2c1.3-0.1,2.2-1.3,2-2.6c-0.1-1.2-1.1-2-2.3-2.1
	C816.8,356.2,815.7,357.3,815.8,358.7z"/>
<path class="st14" d="M901,358.4c0.3,1.4-0.2,2.7-1,2.8s-1.7-0.9-2-2.3s0.2-2.7,1-2.8S900.7,357,901,358.4z"/>
<path class="st14" d="M879.4,358.6c0.1,1.4-0.5,2.6-1.3,2.7s-1.6-1-1.7-2.5s0.5-2.6,1.3-2.7S879.3,357.1,879.4,358.6z"/>
<path class="st14" d="M851,358.7c0,1.4-1,2.6-2.4,2.6c0,0,0,0-0.1,0c-1.4,0-2.6-1.2-2.6-2.6c0-1.4,1-2.5,2.4-2.6c0,0,0.1,0,0.1,0
	C849.8,356.1,851,357.3,851,358.7z"/>
<polygon class="st26" points="924,928.4 943.5,800.2 924,800.2 "/>
<polygon class="st26" points="741.5,928.4 722,800.2 741.5,800.2 "/>
<path class="st27" d="M872.8,498.4c11,0,35.6-25.5,23.7-104.2c-9.3-61.5-34-106.9-49-104.3s-27.6,93.3-17.8,149.7
	S861.8,498.4,872.8,498.4z"/>
<ellipse transform="matrix(0.7071 -0.7071 0.7071 0.7071 -76.8768 721.8019)" class="st14" cx="832.9" cy="453.7" rx="63.9" ry="63.9"/>
<path class="st4" d="M880.8,453.8c0,26.5-21.5,48-48,48c-26.5,0-48-21.5-48-48s21.5-48,48-48c0,0,0,0,0,0c26.5,0,47.9,21.4,48,47.9
	C880.8,453.7,880.8,453.8,880.8,453.8z"/>
<path class="st28" d="M867.3,464.2c0,11.9-4.4,23.3-12.3,32.1c-23.5,12.2-52.4,3-64.7-20.5c-9.2-17.7-6.5-39.3,6.9-54.2
	c6.8-3.6,14.4-5.4,22.1-5.4C845.8,416.3,867.3,437.8,867.3,464.2z"/>
<path class="st15" d="M835.5,510.5c0-1.4-1.2-2.6-2.6-2.6c-1.4,0-2.6,1.2-2.6,2.6c0,1.4,1.2,2.6,2.6,2.6l0,0
	C834.3,513.1,835.4,511.9,835.5,510.5C835.5,510.5,835.5,510.5,835.5,510.5z"/>
<path class="st15" d="M835.5,397.1c0-1.4-1.2-2.6-2.6-2.6c-1.4,0-2.6,1.2-2.6,2.6c0,1.4,1.2,2.6,2.6,2.6l0,0
	C834.3,399.7,835.5,398.5,835.5,397.1z"/>
<path class="st15" d="M776.2,456.4c1.4,0,2.6-1.2,2.6-2.6s-1.2-2.6-2.6-2.6c-1.4,0-2.6,1.2-2.6,2.6c0,0,0,0,0,0
	C773.6,455.2,774.7,456.4,776.2,456.4C776.1,456.4,776.2,456.4,776.2,456.4z"/>
<circle class="st15" cx="889.5" cy="453.8" r="2.6"/>
<path class="st15" d="M794.6,495.7c1-1,1-2.7,0-3.7c-1-1-2.7-1-3.7,0c-1,1-1,2.7,0,3.7c0,0,0,0,0,0
	C791.9,496.7,793.6,496.7,794.6,495.7z"/>
<circle class="st15" cx="872.9" cy="413.7" r="2.6"/>
<path class="st15" d="M790.9,415.5c1,1,2.7,1,3.7,0c1-1,1-2.7,0-3.7c-1-1-2.7-1-3.7,0c0,0,0,0,0,0
	C789.9,412.9,789.9,414.5,790.9,415.5C790.9,415.5,790.9,415.5,790.9,415.5z"/>
<path class="st15" d="M871.1,495.7c1,1,2.7,1,3.7,0c1-1,1-2.7,0-3.7c-1-1-2.7-1-3.7,0C870.1,493,870.1,494.7,871.1,495.7z"/>
<path class="st15" d="M857,505.2c-0.5-1.3-2.1-2-3.4-1.4s-2,2.1-1.4,3.4c0.5,1.3,2.1,2,3.4,1.4c0,0,0,0,0,0
	C856.9,508,857.5,506.5,857,505.2z"/>
<path class="st15" d="M813.6,400.4c-0.6-1.3-2.1-2-3.4-1.4s-2,2.1-1.4,3.4c0.5,1.3,2.1,2,3.4,1.4
	C813.5,403.3,814.1,401.7,813.6,400.4C813.6,400.4,813.6,400.4,813.6,400.4z"/>
<path class="st15" d="M781.5,477.9c1.3-0.5,2-2.1,1.4-3.4c-0.5-1.3-2.1-2-3.4-1.4c-1.3,0.5-2,2.1-1.4,3.4c0,0,0,0,0,0
	C778.6,477.8,780.1,478.4,781.5,477.9z"/>
<path class="st15" d="M886.2,434.5c1.3-0.5,2-2.1,1.4-3.4c-0.5-1.3-2.1-2-3.4-1.4c-1.3,0.5-2,2.1-1.4,3.4c0,0,0,0,0,0
	C883.4,434.4,884.9,435,886.2,434.5z"/>
<path class="st15" d="M813.6,507.1c0.5-1.3-0.1-2.8-1.4-3.4c-1.3-0.5-2.8,0.1-3.4,1.4c-0.5,1.3,0.1,2.8,1.4,3.4
	C811.5,509.1,813,508.5,813.6,507.1C813.6,507.2,813.6,507.2,813.6,507.1z"/>
<path class="st15" d="M857,402.4c0.5-1.3-0.1-2.8-1.4-3.4c-1.3-0.5-2.8,0.1-3.4,1.4c-0.5,1.3,0.1,2.8,1.4,3.4
	C854.9,404.4,856.4,403.7,857,402.4C857,402.4,857,402.4,857,402.4z"/>
<path class="st15" d="M779.5,434.5c1.3,0.6,2.8-0.1,3.4-1.4c0.6-1.3-0.1-2.8-1.4-3.4c-1.3-0.6-2.8,0.1-3.4,1.4
	C777.5,432.4,778.2,433.9,779.5,434.5L779.5,434.5z"/>
<path class="st15" d="M884.2,477.9c1.3,0.5,2.8-0.1,3.4-1.4c0.5-1.3-0.1-2.8-1.4-3.4c-1.3-0.5-2.8,0.1-3.4,1.4
	C882.3,475.8,882.9,477.3,884.2,477.9C884.2,477.9,884.2,477.9,884.2,477.9z"/>
<path class="st14" d="M913.4,365.2H752.3c-0.5-0.1-0.8-0.5-0.8-1c0-0.4,0.4-0.7,0.8-0.8h161.1c0.5-0.1,0.9,0.3,1,0.8s-0.3,0.9-0.8,1
	C913.5,365.3,913.4,365.3,913.4,365.2z"/>
<path class="st15" d="M806.5,467.8c2.5,6.1,1.8,12.1-1.6,13.5s-8.1-2.4-10.6-8.5s-1.8-12.1,1.6-13.5S804,461.7,806.5,467.8z"/>
<circle class="st9" cx="1113.9" cy="896.7" r="26.5"/>
<path class="st9" d="M1333.8,1122.1c0,7.8-6.3,14.1-14.1,14.1c-7.8,0-14.1-6.3-14.1-14.1c0-7.8,6.3-14.1,14.1-14.1c0,0,0,0,0,0
	C1327.5,1108,1333.8,1114.3,1333.8,1122.1z"/>
<path class="st9" d="M1045.8,995.6c0,7.8-6.3,14.1-14.1,14.1c-7.8,0-14.1-6.3-14.1-14.1s6.3-14.1,14.1-14.1c0,0,0,0,0,0
	C1039.5,981.5,1045.8,987.9,1045.8,995.6C1045.8,995.6,1045.8,995.6,1045.8,995.6z"/>
<circle class="st9" cx="382.3" cy="1071.1" r="7.5"/>
<circle class="st9" cx="363.9" cy="1113.6" r="11"/>
<path class="st9" d="M1305.7,995.6c0,5.4-4.4,9.7-9.7,9.7s-9.7-4.4-9.7-9.7c0-5.4,4.4-9.7,9.7-9.7
	C1301.3,985.9,1305.7,990.3,1305.7,995.6C1305.7,995.6,1305.7,995.6,1305.7,995.6z"/>
<path class="st9" d="M1102.1,810.8c0,5.4-4.3,9.7-9.7,9.7c-5.4,0-9.7-4.3-9.7-9.7c0-5.4,4.3-9.7,9.7-9.7c0,0,0,0,0,0
	C1097.8,801.1,1102.1,805.4,1102.1,810.8z"/>
<path class="st9" d="M506.3,866.6c0,6-4.9,10.9-10.9,10.9s-10.9-4.9-10.9-10.9s4.9-10.9,10.9-10.9c0,0,0,0,0,0
	C501.4,855.7,506.3,860.6,506.3,866.6z"/>
<path class="st9" d="M1265.4,1123.5c3.8,9.1,5.7,18.8,5.7,28.6c0,40.9-33.1,74-73.9,74.1c-11.6,0-23-2.7-33.4-7.9
	c-25.5,36.3-75.6,45.1-111.9,19.6c-3.3-2.3-6.4-4.8-9.3-7.6c-23.2,54.7-86.5,80.3-141.2,57c-19.2-8.1-35.6-21.7-47.2-38.9
	c-7.5,2.6-15.4,4-23.3,4c-5.3,0-10.5-0.6-15.7-1.8c-18.8,30.1-58.4,39.2-88.5,20.4c-5.2-3.2-9.9-7.2-14-11.8
	c-33.6,25.2-81.2,18.3-106.4-15.3c-0.9-1.3-1.9-2.6-2.7-3.9c-18-1.5-35.3-8.1-49.8-18.9c-43.3,32.6-104.9,24-137.6-19.3
	c-32.4-43-24.2-104,18.4-136.9c-38.3-17-55.5-61.9-38.4-100.1s61.9-55.5,100.1-38.4c12.8,5.7,23.8,14.9,31.7,26.5
	c36.8-16.3,79.9,0.3,96.2,37.1c7.7,17.4,8.3,37.1,1.7,54.9c31.5,4.5,58.8,23.8,73.5,52c5.9-1.7,12-2.5,18.1-2.5
	c4.1,0,8.1,0.4,12.1,1.1c-6.8-27.6,18.6-51.9,46.5-42.7c10.3,3.4,18.3,11.4,21.7,21.7c4.8,14.5,0.5,28.3-8.6,37.3
	c3.5,0.6,6.7,2.1,9.5,4.2c20.3-10.2,44.2-10.1,64.4,0.2c20.4-22.8,49.5-35.8,80.1-35.8c0.7,0,1.3,0,1.9,0.1
	c7.3-25.3,33.7-39.9,59-32.6c6.2,1.8,11.9,4.8,16.9,8.8c10.5-18.2,28-31.3,48.5-36c0-0.3-0.1-0.7-0.1-1
	c-0.1-40.9,32.9-74.1,73.8-74.2c30.7-0.1,58.3,18.8,69.3,47.4c1.7-0.2,3.4-0.3,5.1-0.3c40.9-0.1,74.1,33,74.2,73.8
	C1292.1,1088.5,1282.3,1109.4,1265.4,1123.5L1265.4,1123.5z"/>
<path class="st11" d="M1265.4,1123.5c3.8,9.1,5.7,18.8,5.7,28.6c0,40.9-33.1,74-73.9,74.1c-11.6,0-23-2.7-33.4-7.9
	c-25.5,36.3-75.6,45.1-111.9,19.6c-3.3-2.3-6.4-4.8-9.3-7.6c-23.2,54.7-86.5,80.3-141.2,57c-19.2-8.1-35.6-21.7-47.2-38.9
	c-7.5,2.6-15.4,4-23.3,4c-5.3,0-10.5-0.6-15.7-1.8c-18.8,30.1-58.4,39.2-88.5,20.4c-5.2-3.2-9.9-7.2-14-11.8
	c-33.6,25.2-81.2,18.3-106.4-15.3c-0.9-1.3-1.9-2.6-2.7-3.9c-18-1.5-35.3-8.1-49.8-18.9c-43.3,32.6-104.9,24-137.6-19.3
	c-32.4-43-24.2-104,18.4-136.9c-38.3-17-55.5-61.9-38.4-100.1s61.9-55.5,100.1-38.4c12.8,5.7,23.8,14.9,31.7,26.5
	c36.8-16.3,79.9,0.3,96.2,37.1c7.7,17.4,8.3,37.1,1.7,54.9c31.5,4.5,58.8,23.8,73.5,52c5.9-1.7,12-2.5,18.1-2.5
	c4.1,0,8.1,0.4,12.1,1.1c-6.8-27.6,18.6-51.9,46.5-42.7c10.3,3.4,18.3,11.4,21.7,21.7c4.8,14.5,0.5,28.3-8.6,37.3
	c3.5,0.6,6.7,2.1,9.5,4.2c20.3-10.2,44.2-10.1,64.4,0.2c20.4-22.8,49.5-35.8,80.1-35.8c0.7,0,1.3,0,1.9,0.1
	c7.3-25.3,33.7-39.9,59-32.6c6.2,1.8,11.9,4.8,16.9,8.8c10.5-18.2,28-31.3,48.5-36c0-0.3-0.1-0.7-0.1-1
	c-0.1-40.9,32.9-74.1,73.8-74.2c30.7-0.1,58.3,18.8,69.3,47.4c1.7-0.2,3.4-0.3,5.1-0.3c40.9-0.1,74.1,33,74.2,73.8
	C1292.1,1088.5,1282.3,1109.4,1265.4,1123.5L1265.4,1123.5z"/>
<path class="st29" d="M1271.1,1152.1c0,40.9-33.1,74-73.9,74.1c-11.6,0-23-2.7-33.4-7.9c-25.5,36.3-75.6,45.1-111.9,19.6
	c-3.3-2.3-6.4-4.8-9.3-7.6c-23.2,54.7-86.5,80.3-141.2,57c-19.2-8.1-35.6-21.7-47.2-38.9c-7.5,2.6-15.4,4-23.3,4
	c-5.3,0-10.5-0.6-15.7-1.8c-18.8,30.1-58.4,39.2-88.5,20.4c-5.2-3.2-9.9-7.2-14-11.8c-33.6,25.2-81.2,18.3-106.4-15.3
	c-0.9-1.3-1.9-2.6-2.7-3.9c-18-1.5-35.3-8.1-49.8-18.9c-43.3,32.6-104.9,24-137.6-19.3c-32.4-43-24.2-104,18.4-136.9
	c-32-14.3-50.1-48.7-43.7-83.2c9.2,30,33,53.2,63.2,61.8c-19,49.4,5.8,104.9,55.2,123.8c14,5.4,29.1,7.4,44,5.9
	c12.8,22.2,38.7,33.2,63.7,27.2c17.4,23.8,50.9,29,74.7,11.6c5.8-4.3,10.7-9.6,14.4-15.8c25.4,17,59.3,13.7,81-7.8
	c17.6,19.7,47.6,22.3,68.3,5.9c37.4,39.9,100.1,41.9,140,4.5c5-4.7,9.5-9.9,13.4-15.5c38.9,26.5,90.4,24.8,127.5-4.3
	c48.5,15.1,101.2-0.5,133.6-39.6C1270.7,1143.6,1271.1,1147.8,1271.1,1152.1z"/>
<path class="st9" d="M1241.4,914.2c0,13-10.5,23.5-23.5,23.5c-13,0-23.5-10.5-23.5-23.5c0-13,10.5-23.5,23.5-23.5c0,0,0,0,0,0
	C1230.9,890.7,1241.4,901.2,1241.4,914.2z"/>
<path class="st9" d="M447,894.1c0,7.2-5.8,13-13,13c-7.2,0-13-5.8-13-13c0-7.2,5.8-13,13-13C441.1,881.1,447,886.9,447,894.1
	C447,894,447,894.1,447,894.1z"/>
<path class="st9" d="M338.4,961.4c0,7.2-5.8,13-13,13s-13-5.8-13-13s5.8-13,13-13l0,0C332.6,948.4,338.4,954.2,338.4,961.4z"/>
<circle class="st9" cx="1233.2" cy="1037.8" r="7.8"/>
<path class="st9" d="M1060.2,855.7c0,5-4,9-9,9s-9-4-9-9s4-9,9-9l0,0C1056.2,846.7,1060.2,850.7,1060.2,855.7z"/>
<path class="st9" d="M612.5,863.6c0,11.8-9.6,21.4-21.4,21.4c-11.8,0-21.4-9.6-21.4-21.4c0-11.8,9.6-21.4,21.4-21.4c0,0,0,0,0,0
	C603,842.2,612.5,851.8,612.5,863.6z"/>
<path class="st9" d="M642.7,932.3c0,5-4,9-9,9c-5,0-9-4-9-9c0-5,4-9,9-9C638.7,923.3,642.7,927.3,642.7,932.3
	C642.7,932.3,642.7,932.3,642.7,932.3z"/>
<circle class="st9" cx="704.2" cy="1033.1" r="13.4"/>
<path class="st9" d="M871.5,1078c0,3.8-3.1,6.9-6.9,6.9s-6.9-3.1-6.9-6.9c0-3.8,3.1-6.9,6.9-6.9c0,0,0,0,0,0
	C868.4,1071.1,871.5,1074.2,871.5,1078L871.5,1078z"/>
<path class="st9" d="M770.5,966c0,2.6-2.1,4.6-4.6,4.6s-4.6-2.1-4.6-4.6s2.1-4.6,4.6-4.6l0,0C768.5,961.4,770.5,963.4,770.5,966z"/>
<circle class="st9" cx="975" cy="1018.4" r="11"/>
<path class="st9" d="M910.6,1043.9c0,6.1-4.9,11-11,11s-11-4.9-11-11s4.9-11,11-11S910.6,1037.8,910.6,1043.9L910.6,1043.9z"/>
</svg>
