<svg xmlns="http://www.w3.org/2000/svg" xmlns:xlink="http://www.w3.org/1999/xlink" viewBox="0 0 1502.45 554.45"><defs><style>.cls-1{mask:url(#mask);filter:url(#luminosity-noclip-22);}.cls-10,.cls-12,.cls-14,.cls-16,.cls-18,.cls-2,.cls-20,.cls-22,.cls-24,.cls-26,.cls-28,.cls-30,.cls-32,.cls-34,.cls-36,.cls-38,.cls-4,.cls-40,.cls-42,.cls-6,.cls-8{mix-blend-mode:multiply;}.cls-2{fill:url(#linear-gradient);}.cls-3{mask:url(#mask-2);filter:url(#luminosity-noclip-27);}.cls-4{fill:url(#linear-gradient-2);}.cls-5{mask:url(#mask-3);filter:url(#luminosity-noclip-28);}.cls-6{fill:url(#linear-gradient-3);}.cls-7{mask:url(#mask-4);filter:url(#luminosity-noclip-29);}.cls-8{fill:url(#linear-gradient-4);}.cls-9{mask:url(#mask-5);filter:url(#luminosity-noclip-30);}.cls-10{fill:url(#linear-gradient-5);}.cls-11{mask:url(#mask-6);filter:url(#luminosity-noclip-31);}.cls-12{fill:url(#linear-gradient-6);}.cls-13{mask:url(#mask-7);filter:url(#luminosity-noclip-23);}.cls-14{fill:url(#linear-gradient-7);}.cls-15{mask:url(#mask-8);filter:url(#luminosity-noclip-32);}.cls-16{fill:url(#linear-gradient-8);}.cls-17{mask:url(#mask-9);filter:url(#luminosity-noclip-33);}.cls-18{fill:url(#linear-gradient-9);}.cls-19{mask:url(#mask-10);filter:url(#luminosity-noclip-34);}.cls-20{fill:url(#linear-gradient-10);}.cls-21{mask:url(#mask-11);filter:url(#luminosity-noclip-35);}.cls-22{fill:url(#linear-gradient-11);}.cls-23{mask:url(#mask-12);filter:url(#luminosity-noclip-36);}.cls-24{fill:url(#linear-gradient-12);}.cls-25{mask:url(#mask-13);filter:url(#luminosity-noclip-37);}.cls-26{fill:url(#linear-gradient-13);}.cls-27{mask:url(#mask-14);filter:url(#luminosity-noclip-38);}.cls-28{fill:url(#linear-gradient-14);}.cls-29{mask:url(#mask-15);filter:url(#luminosity-noclip-39);}.cls-30{fill:url(#linear-gradient-15);}.cls-31{mask:url(#mask-16);filter:url(#luminosity-noclip-40);}.cls-32{fill:url(#linear-gradient-16);}.cls-33{mask:url(#mask-17);filter:url(#luminosity-noclip-41);}.cls-34{fill:url(#linear-gradient-17);}.cls-35{mask:url(#mask-18);filter:url(#luminosity-noclip-24);}.cls-36{fill:url(#linear-gradient-18);}.cls-37{mask:url(#mask-19);filter:url(#luminosity-noclip-42);}.cls-38{fill:url(#linear-gradient-19);}.cls-39{mask:url(#mask-20);filter:url(#luminosity-noclip-25);}.cls-40{fill:url(#linear-gradient-20);}.cls-41{mask:url(#mask-21);filter:url(#luminosity-noclip-26);}.cls-42{fill:url(#linear-gradient-21);}.cls-43,.cls-99{fill:#fff;}.cls-44{mask:url(#mask-22);}.cls-45{fill:url(#linear-gradient-22);}.cls-46{mask:url(#mask-23);}.cls-47{fill:url(#linear-gradient-23);}.cls-48{fill:url(#radial-gradient);}.cls-49{fill:url(#linear-gradient-24);}.cls-50{mask:url(#mask-24);}.cls-51{fill:url(#linear-gradient-25);}.cls-52{mask:url(#mask-25);}.cls-53{fill:url(#linear-gradient-26);}.cls-128,.cls-54{opacity:0.56;}.cls-54{fill:url(#linear-gradient-27);}.cls-55{mask:url(#mask-26);}.cls-56{fill:url(#linear-gradient-28);}.cls-57{mask:url(#mask-27);}.cls-58{fill:url(#linear-gradient-29);}.cls-59{mask:url(#mask-28);}.cls-60{fill:url(#linear-gradient-30);}.cls-61{fill:url(#linear-gradient-31);}.cls-62{fill:url(#linear-gradient-32);}.cls-63{mask:url(#mask-29);}.cls-64{fill:url(#linear-gradient-33);}.cls-65{mask:url(#mask-30);}.cls-66{fill:url(#linear-gradient-34);}.cls-67{mask:url(#mask-31);}.cls-68{fill:url(#linear-gradient-35);}.cls-69{mask:url(#mask-32);}.cls-70{fill:url(#linear-gradient-36);}.cls-71{opacity:0.38;fill:url(#linear-gradient-37);}.cls-72{mask:url(#mask-33);}.cls-73{fill:url(#linear-gradient-38);}.cls-74{mask:url(#mask-34);}.cls-75{fill:url(#linear-gradient-39);}.cls-76{mask:url(#mask-35);}.cls-77{fill:url(#linear-gradient-40);}.cls-78{fill:url(#linear-gradient-41);}.cls-79{fill:url(#linear-gradient-42);}.cls-80{fill:url(#linear-gradient-43);}.cls-81{fill:url(#linear-gradient-44);}.cls-82{fill:url(#linear-gradient-45);}.cls-83{mask:url(#mask-36);}.cls-84{fill:url(#linear-gradient-46);}.cls-85{mask:url(#mask-37);}.cls-86{fill:url(#linear-gradient-47);}.cls-87{mask:url(#mask-38);}.cls-88{fill:url(#linear-gradient-48);}.cls-89{fill:url(#linear-gradient-49);}.cls-90{opacity:0.1;}.cls-91{fill:url(#linear-gradient-50);}.cls-92{fill:url(#linear-gradient-51);}.cls-93{fill:url(#linear-gradient-52);}.cls-94{fill:url(#linear-gradient-53);}.cls-95{fill:url(#linear-gradient-54);}.cls-96{fill:url(#linear-gradient-55);}.cls-97{fill:url(#linear-gradient-56);}.cls-98{fill:url(#linear-gradient-57);}.cls-99{opacity:0.67;}.cls-100{fill:url(#linear-gradient-58);}.cls-101{fill:url(#linear-gradient-59);}.cls-102{fill:url(#linear-gradient-60);}.cls-103{fill:url(#linear-gradient-61);}.cls-104{fill:url(#linear-gradient-62);}.cls-105{fill:url(#linear-gradient-63);}.cls-106{fill:url(#linear-gradient-64);}.cls-107{fill:url(#linear-gradient-65);}.cls-108{fill:url(#linear-gradient-66);}.cls-109{fill:url(#linear-gradient-67);}.cls-110{fill:url(#linear-gradient-68);}.cls-111{fill:url(#linear-gradient-69);}.cls-112{fill:url(#linear-gradient-70);}.cls-113{fill:url(#linear-gradient-71);}.cls-114{fill:url(#linear-gradient-72);}.cls-115{fill:url(#linear-gradient-73);}.cls-116{fill:url(#linear-gradient-74);}.cls-117{fill:url(#linear-gradient-75);}.cls-118{mask:url(#mask-39);}.cls-119{fill:url(#linear-gradient-76);}.cls-120{mask:url(#mask-40);}.cls-121{fill:url(#linear-gradient-77);}.cls-122{fill:url(#linear-gradient-78);}.cls-123{mask:url(#mask-41);}.cls-124{fill:url(#linear-gradient-79);}.cls-125{mask:url(#mask-42);}.cls-126{fill:url(#linear-gradient-80);}.cls-127{fill:url(#linear-gradient-81);}.cls-128{fill:url(#linear-gradient-82);}.cls-129{filter:url(#luminosity-noclip-21);}.cls-130{filter:url(#luminosity-noclip-20);}.cls-131{filter:url(#luminosity-noclip-19);}.cls-132{filter:url(#luminosity-noclip-18);}.cls-133{filter:url(#luminosity-noclip-17);}.cls-134{filter:url(#luminosity-noclip-16);}.cls-135{filter:url(#luminosity-noclip-15);}.cls-136{filter:url(#luminosity-noclip-14);}.cls-137{filter:url(#luminosity-noclip-13);}.cls-138{filter:url(#luminosity-noclip-12);}.cls-139{filter:url(#luminosity-noclip-11);}.cls-140{filter:url(#luminosity-noclip-10);}.cls-141{filter:url(#luminosity-noclip-9);}.cls-142{filter:url(#luminosity-noclip-8);}.cls-143{filter:url(#luminosity-noclip-7);}.cls-144{filter:url(#luminosity-noclip-6);}.cls-145{filter:url(#luminosity-noclip-5);}.cls-146{filter:url(#luminosity-noclip-4);}.cls-147{filter:url(#luminosity-noclip-3);}.cls-148{filter:url(#luminosity-noclip-2);}.cls-149{filter:url(#luminosity-noclip);}</style><filter id="luminosity-noclip" x="367.69" y="-9074.18" width="38.21" height="32766" filterUnits="userSpaceOnUse" color-interpolation-filters="sRGB"><feFlood flood-color="#fff" result="bg"/><feBlend in="SourceGraphic" in2="bg"/></filter><mask id="mask" x="367.69" y="-9074.18" width="38.21" height="32766" maskUnits="userSpaceOnUse"><g class="cls-149"/></mask><linearGradient id="linear-gradient" x1="848.38" y1="96.08" x2="886.59" y2="96.08" gradientTransform="matrix(0.71, 0.71, -0.71, 0.71, -160.46, -282.11)" gradientUnits="userSpaceOnUse"><stop offset="0"/><stop offset="1" stop-color="#fff"/></linearGradient><filter id="luminosity-noclip-2" x="677.3" y="-9074.18" width="69.23" height="32766" filterUnits="userSpaceOnUse" color-interpolation-filters="sRGB"><feFlood flood-color="#fff" result="bg"/><feBlend in="SourceGraphic" in2="bg"/></filter><mask id="mask-2" x="677.3" y="-9074.18" width="69.23" height="32766" maskUnits="userSpaceOnUse"><g class="cls-148"/></mask><linearGradient id="linear-gradient-2" x1="1995.04" y1="925.56" x2="1915.48" y2="974.06" gradientTransform="matrix(0.46, -0.89, -0.89, -0.46, 651.79, 2250.67)" xlink:href="#linear-gradient"/><filter id="luminosity-noclip-3" x="668.95" y="-9074.18" width="89.79" height="32766" filterUnits="userSpaceOnUse" color-interpolation-filters="sRGB"><feFlood flood-color="#fff" result="bg"/><feBlend in="SourceGraphic" in2="bg"/></filter><mask id="mask-3" x="668.95" y="-9074.18" width="89.79" height="32766" maskUnits="userSpaceOnUse"><g class="cls-147"/></mask><linearGradient id="linear-gradient-3" x1="1985.44" y1="887.77" x2="1881.27" y2="951.26" gradientTransform="matrix(0.44, -0.9, -0.9, -0.44, 671.6, 2256.52)" xlink:href="#linear-gradient"/><filter id="luminosity-noclip-4" x="302.59" y="-9074.18" width="33.82" height="32766" filterUnits="userSpaceOnUse" color-interpolation-filters="sRGB"><feFlood flood-color="#fff" result="bg"/><feBlend in="SourceGraphic" in2="bg"/></filter><mask id="mask-4" x="302.59" y="-9074.18" width="33.82" height="32766" maskUnits="userSpaceOnUse"><g class="cls-146"/></mask><linearGradient id="linear-gradient-4" x1="398.55" y1="25.93" x2="345.6" y2="56.74" gradientTransform="translate(-40.12 49.31) rotate(-2.85)" gradientUnits="userSpaceOnUse"><stop offset="0"/><stop offset="1" stop-color="#fff"/></linearGradient><filter id="luminosity-noclip-5" x="309.12" y="-9074.18" width="48.58" height="32766" filterUnits="userSpaceOnUse" color-interpolation-filters="sRGB"><feFlood flood-color="#fff" result="bg"/><feBlend in="SourceGraphic" in2="bg"/></filter><mask id="mask-5" x="309.12" y="-9074.18" width="48.58" height="32766" maskUnits="userSpaceOnUse"><g class="cls-145"/></mask><linearGradient id="linear-gradient-5" x1="359.63" y1="105.4" x2="392.62" y2="52.76" gradientTransform="translate(-40.12 49.31) rotate(-2.85)" gradientUnits="userSpaceOnUse"><stop offset="0"/><stop offset="0.86" stop-color="#fff"/></linearGradient><filter id="luminosity-noclip-6" x="302.27" y="-9074.18" width="55.43" height="32766" filterUnits="userSpaceOnUse" color-interpolation-filters="sRGB"><feFlood flood-color="#fff" result="bg"/><feBlend in="SourceGraphic" in2="bg"/></filter><mask id="mask-6" x="302.27" y="-9074.18" width="55.43" height="32766" maskUnits="userSpaceOnUse"><g class="cls-144"/></mask><linearGradient id="linear-gradient-6" x1="340.12" y1="104.31" x2="399.6" y2="73.51" gradientTransform="translate(-40.12 49.31) rotate(-2.85)" gradientUnits="userSpaceOnUse"><stop offset="0"/><stop offset="0.86" stop-color="#999"/></linearGradient><filter id="luminosity-noclip-7" x="386.79" y="-9074.18" width="14.33" height="32766" filterUnits="userSpaceOnUse" color-interpolation-filters="sRGB"><feFlood flood-color="#fff" result="bg"/><feBlend in="SourceGraphic" in2="bg"/></filter><mask id="mask-7" x="386.79" y="-9074.18" width="14.33" height="32766" maskUnits="userSpaceOnUse"><g class="cls-143"/></mask><linearGradient id="linear-gradient-7" x1="200" y1="1094.29" x2="186.74" y2="1087.97" gradientTransform="matrix(0.6, 0.8, -0.8, 0.6, 1155.2, -417.24)" gradientUnits="userSpaceOnUse"><stop offset="0" stop-color="#ccc"/><stop offset="0.86" stop-color="#4d4d4d"/></linearGradient><filter id="luminosity-noclip-8" x="322.86" y="-9074.18" width="23.06" height="32766" filterUnits="userSpaceOnUse" color-interpolation-filters="sRGB"><feFlood flood-color="#fff" result="bg"/><feBlend in="SourceGraphic" in2="bg"/></filter><mask id="mask-8" x="322.86" y="-9074.18" width="23.06" height="32766" maskUnits="userSpaceOnUse"><g class="cls-142"/></mask><linearGradient id="linear-gradient-8" x1="332.56" y1="110.45" x2="335.09" y2="75.11" gradientTransform="matrix(1, 0, 0, 1, 0, 0)" xlink:href="#linear-gradient-6"/><filter id="luminosity-noclip-9" x="316.67" y="-9074.18" width="7.16" height="32766" filterUnits="userSpaceOnUse" color-interpolation-filters="sRGB"><feFlood flood-color="#fff" result="bg"/><feBlend in="SourceGraphic" in2="bg"/></filter><mask id="mask-9" x="316.67" y="-9074.18" width="7.16" height="32766" maskUnits="userSpaceOnUse"><g class="cls-141"/></mask><linearGradient id="linear-gradient-9" x1="318.97" y1="103.47" x2="321.09" y2="93.59" gradientTransform="matrix(1, 0, 0, 1, 0, 0)" xlink:href="#linear-gradient-6"/><filter id="luminosity-noclip-10" x="272.78" y="-9074.18" width="44.54" height="32766" filterUnits="userSpaceOnUse" color-interpolation-filters="sRGB"><feFlood flood-color="#fff" result="bg"/><feBlend in="SourceGraphic" in2="bg"/></filter><mask id="mask-10" x="272.78" y="-9074.18" width="44.54" height="32766" maskUnits="userSpaceOnUse"><g class="cls-140"/></mask><linearGradient id="linear-gradient-10" x1="272.15" y1="85.8" x2="322.2" y2="116.26" gradientTransform="matrix(1, 0, 0, 1, 0, 0)" xlink:href="#linear-gradient-6"/><filter id="luminosity-noclip-11" x="324.28" y="-9074.18" width="48.43" height="32766" filterUnits="userSpaceOnUse" color-interpolation-filters="sRGB"><feFlood flood-color="#fff" result="bg"/><feBlend in="SourceGraphic" in2="bg"/></filter><mask id="mask-11" x="324.28" y="-9074.18" width="48.43" height="32766" maskUnits="userSpaceOnUse"><g class="cls-139"/></mask><linearGradient id="linear-gradient-11" x1="330.94" y1="106.31" x2="389.55" y2="145.72" gradientTransform="matrix(1, 0, 0, 1, 0, 0)" xlink:href="#linear-gradient-6"/><filter id="luminosity-noclip-12" x="1237.73" y="-9074.18" width="41.34" height="32766" filterUnits="userSpaceOnUse" color-interpolation-filters="sRGB"><feFlood flood-color="#fff" result="bg"/><feBlend in="SourceGraphic" in2="bg"/></filter><mask id="mask-12" x="1237.73" y="-9074.18" width="41.34" height="32766" maskUnits="userSpaceOnUse"><g class="cls-138"/></mask><linearGradient id="linear-gradient-12" x1="1416.18" y1="303.96" x2="1460.16" y2="303.96" gradientTransform="translate(-209.34 295.66) rotate(-15.52)" xlink:href="#linear-gradient-6"/><filter id="luminosity-noclip-13" x="1217.09" y="-9074.18" width="103.9" height="32766" filterUnits="userSpaceOnUse" color-interpolation-filters="sRGB"><feFlood flood-color="#fff" result="bg"/><feBlend in="SourceGraphic" in2="bg"/></filter><mask id="mask-13" x="1217.09" y="-9074.18" width="103.9" height="32766" maskUnits="userSpaceOnUse"><g class="cls-137"/></mask><linearGradient id="linear-gradient-13" x1="1378.58" y1="369.63" x2="1485.5" y2="369.63" gradientTransform="translate(-209.34 295.66) rotate(-15.52)" xlink:href="#linear-gradient-6"/><filter id="luminosity-noclip-14" x="1097.44" y="-9074.18" width="144.93" height="32766" filterUnits="userSpaceOnUse" color-interpolation-filters="sRGB"><feFlood flood-color="#fff" result="bg"/><feBlend in="SourceGraphic" in2="bg"/></filter><mask id="mask-14" x="1097.44" y="-9074.18" width="144.93" height="32766" maskUnits="userSpaceOnUse"><g class="cls-136"/></mask><linearGradient id="linear-gradient-14" x1="1233.43" y1="403.98" x2="1113.68" y2="186.73" gradientTransform="matrix(1, 0, 0, 1, 0, 0)" xlink:href="#linear-gradient-7"/><filter id="luminosity-noclip-15" x="83.08" y="-9074.18" width="26.27" height="32766" filterUnits="userSpaceOnUse" color-interpolation-filters="sRGB"><feFlood flood-color="#fff" result="bg"/><feBlend in="SourceGraphic" in2="bg"/></filter><mask id="mask-15" x="83.08" y="-9074.18" width="26.27" height="32766" maskUnits="userSpaceOnUse"><g class="cls-135"/></mask><linearGradient id="linear-gradient-15" x1="646.12" y1="-108.92" x2="672.4" y2="-108.92" gradientTransform="translate(-447.97 -20.67) rotate(44.85)" xlink:href="#linear-gradient"/><filter id="luminosity-noclip-16" x="96.22" y="-9074.18" width="9.85" height="32766" filterUnits="userSpaceOnUse" color-interpolation-filters="sRGB"><feFlood flood-color="#fff" result="bg"/><feBlend in="SourceGraphic" in2="bg"/></filter><mask id="mask-16" x="96.22" y="-9074.18" width="9.85" height="32766" maskUnits="userSpaceOnUse"><g class="cls-134"/></mask><linearGradient id="linear-gradient-16" x1="1.28" y1="1312.04" x2="-7.84" y2="1307.69" xlink:href="#linear-gradient-7"/><filter id="luminosity-noclip-17" x="6.2" y="-9074.18" width="110.87" height="32766" filterUnits="userSpaceOnUse" color-interpolation-filters="sRGB"><feFlood flood-color="#fff" result="bg"/><feBlend in="SourceGraphic" in2="bg"/></filter><mask id="mask-17" x="6.2" y="-9074.18" width="110.87" height="32766" maskUnits="userSpaceOnUse"><g class="cls-133"/></mask><linearGradient id="linear-gradient-17" x1="275.28" y1="-110.28" x2="390.52" y2="-110.28" gradientTransform="matrix(1, 0, 0, 1, -271.26, 285.5)" xlink:href="#linear-gradient-6"/><filter id="luminosity-noclip-18" x="125.22" y="-9074.18" width="61.67" height="32766" filterUnits="userSpaceOnUse" color-interpolation-filters="sRGB"><feFlood flood-color="#fff" result="bg"/><feBlend in="SourceGraphic" in2="bg"/></filter><mask id="mask-18" x="125.22" y="-9074.18" width="61.67" height="32766" maskUnits="userSpaceOnUse"><g class="cls-132"/></mask><linearGradient id="linear-gradient-18" x1="654.47" y1="-45.56" x2="716.14" y2="-45.56" gradientTransform="matrix(0.71, 0.71, -0.71, 0.71, -361.92, -50.6)" xlink:href="#linear-gradient"/><filter id="luminosity-noclip-19" x="69.4" y="-9074.18" width="37.6" height="32766" filterUnits="userSpaceOnUse" color-interpolation-filters="sRGB"><feFlood flood-color="#fff" result="bg"/><feBlend in="SourceGraphic" in2="bg"/></filter><mask id="mask-19" x="69.4" y="-9074.18" width="37.6" height="32766" maskUnits="userSpaceOnUse"><g class="cls-131"/></mask><linearGradient id="linear-gradient-19" x1="213.33" y1="51.03" x2="251.49" y2="51.03" gradientTransform="matrix(0.97, -0.23, 0.23, 0.97, -149.71, 235.63)" xlink:href="#linear-gradient-6"/><filter id="luminosity-noclip-20" x="156.06" y="-9074.18" width="23.13" height="32766" filterUnits="userSpaceOnUse" color-interpolation-filters="sRGB"><feFlood flood-color="#fff" result="bg"/><feBlend in="SourceGraphic" in2="bg"/></filter><mask id="mask-20" x="156.06" y="-9074.18" width="23.13" height="32766" maskUnits="userSpaceOnUse"><g class="cls-130"/></mask><linearGradient id="linear-gradient-20" x1="66.53" y1="1276.03" x2="45.12" y2="1265.81" xlink:href="#linear-gradient-7"/><filter id="luminosity-noclip-21" x="725.61" y="-9074.18" width="131.79" height="32766" filterUnits="userSpaceOnUse" color-interpolation-filters="sRGB"><feFlood flood-color="#fff" result="bg"/><feBlend in="SourceGraphic" in2="bg"/></filter><mask id="mask-21" x="725.61" y="-9074.18" width="131.79" height="32766" maskUnits="userSpaceOnUse"><g class="cls-129"/></mask><linearGradient id="linear-gradient-21" x1="2025.24" y1="823.51" x2="1873.77" y2="915.84" gradientTransform="matrix(0.46, -0.89, -0.89, -0.46, 651.79, 2250.67)" xlink:href="#linear-gradient"/><filter id="luminosity-noclip-22" x="367.69" y="378.64" width="38.21" height="38.21" filterUnits="userSpaceOnUse" color-interpolation-filters="sRGB"><feFlood flood-color="#fff" result="bg"/><feBlend in="SourceGraphic" in2="bg"/></filter><mask id="mask-22" x="367.69" y="378.64" width="38.21" height="38.21" maskUnits="userSpaceOnUse"><g class="cls-1"><circle class="cls-2" cx="386.79" cy="397.75" r="19.1" transform="translate(-52.99 735.98) rotate(-83.36)"/></g></mask><linearGradient id="linear-gradient-22" x1="848.38" y1="96.08" x2="886.59" y2="96.08" gradientTransform="matrix(0.71, 0.71, -0.71, 0.71, -160.46, -282.11)" gradientUnits="userSpaceOnUse"><stop offset="0" stop-color="#ff7dea"/><stop offset="1" stop-color="#804da8"/></linearGradient><filter id="luminosity-noclip-23" x="386.79" y="382.29" width="14.33" height="12.63" filterUnits="userSpaceOnUse" color-interpolation-filters="sRGB"><feFlood flood-color="#fff" result="bg"/><feBlend in="SourceGraphic" in2="bg"/></filter><mask id="mask-23" x="386.79" y="382.29" width="14.33" height="12.63" maskUnits="userSpaceOnUse"><g class="cls-13"><path class="cls-14" d="M399,394.9a2.91,2.91,0,0,1-2.36-1.72c-3.73-7.81-14-11.23-7.94-10.86,7.06,1.19,11.74,6,12.44,10.72A1.79,1.79,0,0,1,399,394.9Z"/></g></mask><linearGradient id="linear-gradient-23" x1="200" y1="1094.29" x2="186.74" y2="1087.97" gradientTransform="matrix(0.6, 0.8, -0.8, 0.6, 1155.2, -417.24)" xlink:href="#linear-gradient-22"/><radialGradient id="radial-gradient" cx="752.43" cy="232" r="553.33" gradientTransform="translate(-2.38 -2.43) scale(1 1.01)" gradientUnits="userSpaceOnUse"><stop offset="0" stop-color="#2a224e"/><stop offset="1" stop-color="#07013a"/></radialGradient><linearGradient id="linear-gradient-24" x1="740.04" y1="507.38" x2="760.66" y2="-1.52" gradientTransform="matrix(1, 0, 0, 1, 0.71, -2.42)" gradientUnits="userSpaceOnUse"><stop offset="0" stop-color="#ffff4e"/><stop offset="0.13" stop-color="#eeb686" stop-opacity="0.82"/><stop offset="0.25" stop-color="#e076b6" stop-opacity="0.67"/><stop offset="0.35" stop-color="#d648d9" stop-opacity="0.55"/><stop offset="0.43" stop-color="#cf2cef" stop-opacity="0.49"/><stop offset="0.48" stop-color="#cd21f7" stop-opacity="0.46"/><stop offset="1" stop-color="#cd21f7" stop-opacity="0"/></linearGradient><filter id="luminosity-noclip-24" x="125.22" y="369.54" width="61.67" height="61.67" filterUnits="userSpaceOnUse" color-interpolation-filters="sRGB"><feFlood flood-color="#fff" result="bg"/><feBlend in="SourceGraphic" in2="bg"/></filter><mask id="mask-24" x="125.22" y="369.54" width="61.67" height="61.67" maskUnits="userSpaceOnUse"><g class="cls-35"><circle class="cls-36" cx="156.05" cy="400.38" r="30.84" transform="translate(-259.67 509.12) rotate(-83.36)"/></g></mask><linearGradient id="linear-gradient-25" x1="654.47" y1="-45.56" x2="716.14" y2="-45.56" gradientTransform="matrix(0.71, 0.71, -0.71, 0.71, -361.92, -50.6)" gradientUnits="userSpaceOnUse"><stop offset="0" stop-color="#ff6480"/><stop offset="1" stop-color="#ff948c"/></linearGradient><filter id="luminosity-noclip-25" x="156.06" y="375.42" width="23.13" height="20.39" filterUnits="userSpaceOnUse" color-interpolation-filters="sRGB"><feFlood flood-color="#fff" result="bg"/><feBlend in="SourceGraphic" in2="bg"/></filter><mask id="mask-25" x="156.06" y="375.42" width="23.13" height="20.39" maskUnits="userSpaceOnUse"><g class="cls-39"><path class="cls-40" d="M175.7,395.79a4.77,4.77,0,0,1-3.82-2.78c-6-12.61-22.57-18.13-12.81-17.54,11.4,1.92,19,9.76,20.08,17.31.3,2-1.75,3.23-3.45,3Z"/></g></mask><linearGradient id="linear-gradient-26" x1="66.53" y1="1276.03" x2="45.12" y2="1265.81" gradientTransform="matrix(0.6, 0.8, -0.8, 0.6, 1155.2, -417.24)" gradientUnits="userSpaceOnUse"><stop offset="0" stop-color="#fff"/><stop offset="0.86" stop-color="#fffbff"/></linearGradient><linearGradient id="linear-gradient-27" x1="944.53" y1="458.64" x2="1411.13" y2="130.25" gradientTransform="matrix(1.16, -0.01, 0.01, 1, -159.62, 14.99)" gradientUnits="userSpaceOnUse"><stop offset="0" stop-color="#ff9866"/><stop offset="1" stop-color="#812bae"/></linearGradient><filter id="luminosity-noclip-26" x="725.61" y="70.88" width="131.79" height="78.77" filterUnits="userSpaceOnUse" color-interpolation-filters="sRGB"><feFlood flood-color="#fff" result="bg"/><feBlend in="SourceGraphic" in2="bg"/></filter><mask id="mask-26" x="725.61" y="70.88" width="131.79" height="78.77" maskUnits="userSpaceOnUse"><g class="cls-41"><path class="cls-42" d="M857.4,70.88s-121,55.52-126.25,58.45a10.85,10.85,0,0,0,10.63,18.92C747,145.32,857.4,70.88,857.4,70.88Z"/></g></mask><linearGradient id="linear-gradient-28" x1="2025.24" y1="823.51" x2="1873.77" y2="915.84" gradientTransform="matrix(0.46, -0.89, -0.89, -0.46, 651.79, 2250.67)" gradientUnits="userSpaceOnUse"><stop offset="0" stop-color="#ae75de"/><stop offset="1" stop-color="#00d8e5"/></linearGradient><filter id="luminosity-noclip-27" x="677.3" y="52.11" width="69.23" height="41.37" filterUnits="userSpaceOnUse" color-interpolation-filters="sRGB"><feFlood flood-color="#fff" result="bg"/><feBlend in="SourceGraphic" in2="bg"/></filter><mask id="mask-27" x="677.3" y="52.11" width="69.23" height="41.37" maskUnits="userSpaceOnUse"><g class="cls-3"><path class="cls-4" d="M746.53,52.11S683,81.27,680.21,82.81a5.7,5.7,0,1,0,5.58,9.94C688.54,91.21,746.53,52.11,746.53,52.11Z"/></g></mask><linearGradient id="linear-gradient-29" x1="1995.04" y1="925.56" x2="1915.48" y2="974.06" xlink:href="#linear-gradient-28"/><filter id="luminosity-noclip-28" x="668.95" y="81.38" width="89.79" height="55.66" filterUnits="userSpaceOnUse" color-interpolation-filters="sRGB"><feFlood flood-color="#fff" result="bg"/><feBlend in="SourceGraphic" in2="bg"/></filter><mask id="mask-28" x="668.95" y="81.38" width="89.79" height="55.66" maskUnits="userSpaceOnUse"><g class="cls-5"><path class="cls-6" d="M758.74,81.38s-82.54,39.67-86.09,41.75A7.46,7.46,0,1,0,680.19,136C683.74,133.93,758.74,81.38,758.74,81.38Z"/></g></mask><linearGradient id="linear-gradient-30" x1="1985.44" y1="887.77" x2="1881.27" y2="951.26" gradientTransform="matrix(0.44, -0.9, -0.9, -0.44, 671.6, 2256.52)" gradientUnits="userSpaceOnUse"><stop offset="0" stop-color="#ffdc9b"/><stop offset="1" stop-color="#ff858a"/></linearGradient><linearGradient id="linear-gradient-31" x1="335.77" y1="48.52" x2="392.13" y2="96.82" gradientTransform="translate(-40.12 49.31) rotate(-2.85)" gradientUnits="userSpaceOnUse"><stop offset="0" stop-color="#00a1cf"/><stop offset="1" stop-color="#6bb6d9"/></linearGradient><linearGradient id="linear-gradient-32" x1="330.87" y1="68.75" x2="377.83" y2="101.2" gradientTransform="translate(-40.12 49.31) rotate(-2.85)" gradientUnits="userSpaceOnUse"><stop offset="0" stop-color="#00a7c6"/><stop offset="1" stop-color="#1932be"/></linearGradient><filter id="luminosity-noclip-29" x="302.59" y="72.01" width="33.82" height="18.24" filterUnits="userSpaceOnUse" color-interpolation-filters="sRGB"><feFlood flood-color="#fff" result="bg"/><feBlend in="SourceGraphic" in2="bg"/></filter><mask id="mask-29" x="302.59" y="72.01" width="33.82" height="18.24" maskUnits="userSpaceOnUse"><g class="cls-7"><path class="cls-8" d="M336.41,73.65a1.59,1.59,0,0,0-.32.16c-4,2.34-4.68,8.58-7.73,12a13.54,13.54,0,0,1-8.75,4.41,13.18,13.18,0,0,1-7.82-1.69c-2.22-1.35-3.75-3.48-6.17-4.68a8.68,8.68,0,0,0-3-.87A31.32,31.32,0,0,1,336.41,73.65Z"/></g></mask><linearGradient id="linear-gradient-33" x1="398.55" y1="25.93" x2="345.6" y2="56.74" gradientTransform="translate(-40.12 49.31) rotate(-2.85)" gradientUnits="userSpaceOnUse"><stop offset="0" stop-color="#ffd4fc"/><stop offset="1" stop-color="#ff7cf0"/></linearGradient><filter id="luminosity-noclip-30" x="309.12" y="77.18" width="48.58" height="57.46" filterUnits="userSpaceOnUse" color-interpolation-filters="sRGB"><feFlood flood-color="#fff" result="bg"/><feBlend in="SourceGraphic" in2="bg"/></filter><mask id="mask-30" x="309.12" y="77.18" width="48.58" height="57.46" maskUnits="userSpaceOnUse"><g class="cls-9"><path class="cls-10" d="M353,119.83c-.35.57-.71,1.12-1.1,1.66a31.31,31.31,0,0,1-42.77,8,2.05,2.05,0,0,1,.23-.2c2.56-2,5.72-3,8.68-4.33s6-3.08,7.46-6a12.12,12.12,0,0,0,1.25-5.07c.25-4.07-.53-8.46,1.49-12s5.9-5,8.61-7.74c3.34-3.43,4.52-8.35,5.56-13,.18-.79.38-1.59.62-2.4a16.88,16.88,0,0,1,.58-1.6c.32.2.63.41.94.63A31.31,31.31,0,0,1,353,119.83Z"/></g></mask><linearGradient id="linear-gradient-34" x1="359.63" y1="105.4" x2="392.62" y2="52.76" gradientTransform="translate(-40.12 49.31) rotate(-2.85)" gradientUnits="userSpaceOnUse"><stop offset="0" stop-color="#ffdf95"/><stop offset="0.86" stop-color="#ffef77"/></linearGradient><filter id="luminosity-noclip-31" x="302.27" y="91.54" width="55.43" height="43.1" filterUnits="userSpaceOnUse" color-interpolation-filters="sRGB"><feFlood flood-color="#fff" result="bg"/><feBlend in="SourceGraphic" in2="bg"/></filter><mask id="mask-31" x="302.27" y="91.54" width="55.43" height="43.1" maskUnits="userSpaceOnUse"><g class="cls-11"><path class="cls-12" d="M353,119.83c-.35.57-.71,1.12-1.11,1.66a31.3,31.3,0,0,1-42.76,8c-.32-.2-.62-.4-.91-.62a30.43,30.43,0,0,1-5.94-5.52c3.63-.14,7.32,1.19,10.77,2.59,4.31,1.77,8.79,3.74,13.4,3.24,5.53-.62,10.12-4.75,13-9.47s4.52-10.15,6.67-15.27c2.08-4.94,4.87-9.84,9.26-12.86A31.33,31.33,0,0,1,353,119.83Z"/></g></mask><linearGradient id="linear-gradient-35" x1="340.12" y1="104.31" x2="399.6" y2="73.51" gradientTransform="translate(-40.12 49.31) rotate(-2.85)" xlink:href="#linear-gradient-26"/><filter id="luminosity-noclip-32" x="322.86" y="75.66" width="23.06" height="31.54" filterUnits="userSpaceOnUse" color-interpolation-filters="sRGB"><feFlood flood-color="#fff" result="bg"/><feBlend in="SourceGraphic" in2="bg"/></filter><mask id="mask-32" x="322.86" y="75.66" width="23.06" height="31.54" maskUnits="userSpaceOnUse"><g class="cls-15"><path class="cls-16" d="M323.61,78.73c-1.57,2.47-.4,5.25.94,7.56s3.55,4.4,4.51,6.86c1,2.62.88,5.6,1.35,8.34.34,2,1.08,4.06,2.79,5.1,2.71,1.65,6.37-.29,8-3s2-6,3-9a29.23,29.23,0,0,0,1.6-4.93A10.28,10.28,0,0,0,343,81.41a18.78,18.78,0,0,0-7.63-4.67,15,15,0,0,0-6.3-1A7.2,7.2,0,0,0,323.61,78.73Z"/></g></mask><linearGradient id="linear-gradient-36" x1="332.56" y1="110.45" x2="335.09" y2="75.11" gradientTransform="matrix(1, 0, 0, 1, 0, 0)" xlink:href="#linear-gradient-26"/><linearGradient id="linear-gradient-37" x1="130.65" y1="24.29" x2="132.45" y2="77.18" gradientTransform="matrix(0.78, 0.01, 0.01, 0.93, 203.5, 58.02)" gradientUnits="userSpaceOnUse"><stop offset="0" stop-color="#0057c6"/><stop offset="1" stop-color="#1932a1"/></linearGradient><filter id="luminosity-noclip-33" x="316.67" y="92.6" width="7.16" height="9.8" filterUnits="userSpaceOnUse" color-interpolation-filters="sRGB"><feFlood flood-color="#fff" result="bg"/><feBlend in="SourceGraphic" in2="bg"/></filter><mask id="mask-33" x="316.67" y="92.6" width="7.16" height="9.8" maskUnits="userSpaceOnUse"><g class="cls-17"><path class="cls-18" d="M323.83,97.5c0,2.71-1.6,4.9-3.58,4.9s-3.58-2.19-3.58-4.9,1.6-4.9,3.58-4.9S323.83,94.8,323.83,97.5Z"/></g></mask><linearGradient id="linear-gradient-38" x1="318.97" y1="103.47" x2="321.09" y2="93.59" gradientTransform="matrix(1, 0, 0, 1, 0, 0)" xlink:href="#linear-gradient-26"/><filter id="luminosity-noclip-34" x="272.78" y="84.02" width="44.54" height="31.29" filterUnits="userSpaceOnUse" color-interpolation-filters="sRGB"><feFlood flood-color="#fff" result="bg"/><feBlend in="SourceGraphic" in2="bg"/></filter><mask id="mask-34" x="272.78" y="84.02" width="44.54" height="31.29" maskUnits="userSpaceOnUse"><g class="cls-19"><path class="cls-20" d="M292,87.62c-4-1.85-8.9-4.23-13.47-3.44-5.65,1-7,5.51-4.72,10.3,2.33,5,7.14,8.48,12.25,10.56s10.61,3,16,4.17,10.82,2.82,15.25,6.11a36.45,36.45,0,0,0-11.59-9.38c-4.73-2.42-10-3.32-14.78-5.64-2.11-1-2.93-3.67-.13-4.06a7.29,7.29,0,0,1,4.77,1.26,32.55,32.55,0,0,1,2.32-7.25A47.71,47.71,0,0,1,292,87.62Z"/></g></mask><linearGradient id="linear-gradient-39" x1="272.15" y1="85.8" x2="322.2" y2="116.26" gradientTransform="matrix(1, 0, 0, 1, 0, 0)" xlink:href="#linear-gradient-26"/><filter id="luminosity-noclip-35" x="324.28" y="108.22" width="48.43" height="25.58" filterUnits="userSpaceOnUse" color-interpolation-filters="sRGB"><feFlood flood-color="#fff" result="bg"/><feBlend in="SourceGraphic" in2="bg"/></filter><mask id="mask-35" x="324.28" y="108.22" width="48.43" height="25.58" maskUnits="userSpaceOnUse"><g class="cls-21"><path class="cls-22" d="M357.32,108.22a32.41,32.41,0,0,1,13.22,10.55c3.34,4.58,3,10.79-2.13,13.66-4.1,2.31-10,1.28-14.31,0-5.73-1.74-10.77-5.18-15.65-8.54-4.25-2.93-9-5.64-14.17-5.58,5.34-1.24,10.73,1.37,15.64,3.81s10.49,4.81,15.7,3.1c6.69-2.18,3.55-7-.89-8.56A31.81,31.81,0,0,0,357.32,108.22Z"/></g></mask><linearGradient id="linear-gradient-40" x1="330.94" y1="106.31" x2="389.55" y2="145.72" gradientTransform="matrix(1, 0, 0, 1, 0, 0)" xlink:href="#linear-gradient-26"/><linearGradient id="linear-gradient-41" x1="1443.12" y1="-484.13" x2="1147.93" y2="-758.28" gradientTransform="translate(2522.56 -348.8) rotate(180)" gradientUnits="userSpaceOnUse"><stop offset="0" stop-color="#00e3f0"/><stop offset="1" stop-color="#ffe8ba"/></linearGradient><linearGradient id="linear-gradient-42" x1="1348.57" y1="304.25" x2="1104.23" y2="228.99" gradientUnits="userSpaceOnUse"><stop offset="0" stop-color="#ff98b6"/><stop offset="1" stop-color="#ff6e98"/></linearGradient><linearGradient id="linear-gradient-43" x1="1304.14" y1="334.08" x2="1090.06" y2="231.96" gradientUnits="userSpaceOnUse"><stop offset="0" stop-color="#ff5e83"/><stop offset="1" stop-color="#b64179"/></linearGradient><linearGradient id="linear-gradient-44" x1="1101.17" y1="326.69" x2="1320.43" y2="345.27" gradientUnits="userSpaceOnUse"><stop offset="0" stop-color="#ffadc0"/><stop offset="1" stop-color="#ffd175"/></linearGradient><linearGradient id="linear-gradient-45" x1="1321.64" y1="214.97" x2="1134.9" y2="163.41" gradientUnits="userSpaceOnUse"><stop offset="0" stop-color="#ff7095"/><stop offset="1" stop-color="#e44179"/></linearGradient><filter id="luminosity-noclip-36" x="1237.73" y="185.2" width="41.34" height="37.81" filterUnits="userSpaceOnUse" color-interpolation-filters="sRGB"><feFlood flood-color="#fff" result="bg"/><feBlend in="SourceGraphic" in2="bg"/></filter><mask id="mask-36" x="1237.73" y="185.2" width="41.34" height="37.81" maskUnits="userSpaceOnUse"><g class="cls-23"><path class="cls-24" d="M1248.78,223h.28c15.25.47,42.22-19.62,23.79-33.81C1249,170.83,1222.15,221.8,1248.78,223Z"/></g></mask><linearGradient id="linear-gradient-46" x1="1416.18" y1="303.96" x2="1460.16" y2="303.96" gradientTransform="translate(-209.34 295.66) rotate(-15.52)" xlink:href="#linear-gradient-26"/><filter id="luminosity-noclip-37" x="1217.09" y="232.75" width="103.9" height="73.32" filterUnits="userSpaceOnUse" color-interpolation-filters="sRGB"><feFlood flood-color="#fff" result="bg"/><feBlend in="SourceGraphic" in2="bg"/></filter><mask id="mask-37" x="1217.09" y="232.75" width="103.9" height="73.32" maskUnits="userSpaceOnUse"><g class="cls-25"><path class="cls-26" d="M1286.37,297c10.67-4.91,21.28-11,28.22-20.46,13.16-18,5.32-40.09-17.09-43.16-27.41-3.74-82.24,8.67-80.36,44.86.73,14.15,14.22,25.14,28.22,27.3S1273.5,302.94,1286.37,297Z"/></g></mask><linearGradient id="linear-gradient-47" x1="1378.58" y1="369.63" x2="1485.5" y2="369.63" gradientTransform="translate(-209.34 295.66) rotate(-15.52)" xlink:href="#linear-gradient-26"/><filter id="luminosity-noclip-38" x="1097.44" y="153.93" width="144.93" height="228.1" filterUnits="userSpaceOnUse" color-interpolation-filters="sRGB"><feFlood flood-color="#fff" result="bg"/><feBlend in="SourceGraphic" in2="bg"/></filter><mask id="mask-38" x="1097.44" y="153.93" width="144.93" height="228.1" maskUnits="userSpaceOnUse"><g class="cls-27"><path class="cls-28" d="M1242.38,379.08a117.23,117.23,0,0,1-26.31,2.95,118.55,118.55,0,0,1-114.45-87.52,118.69,118.69,0,0,1,69-140.58c8,3.76-45.38,36.8-52.85,84.94C1095.79,380.32,1242.77,378.24,1242.38,379.08Z"/></g></mask><linearGradient id="linear-gradient-48" x1="1233.43" y1="403.98" x2="1113.68" y2="186.73" gradientTransform="matrix(1, 0, 0, 1, 0, 0)" xlink:href="#linear-gradient-26"/><linearGradient id="linear-gradient-49" x1="1374.12" y1="411.99" x2="1072.27" y2="131.65" gradientUnits="userSpaceOnUse"><stop offset="0.02" stop-color="#81e6d9"/><stop offset="0.97" stop-color="#81e6d9"/></linearGradient><linearGradient id="linear-gradient-50" x1="560.21" y1="1332.58" x2="606.65" y2="1332.58" gradientTransform="matrix(-0.26, 0.96, -0.96, -0.26, 2267.24, 95.65)" gradientUnits="userSpaceOnUse"><stop offset="0" stop-color="#31577c"/><stop offset="1" stop-color="#381b6b"/></linearGradient><linearGradient id="linear-gradient-51" x1="480.68" y1="737.39" x2="527.12" y2="737.39" gradientTransform="matrix(0.8, 0.6, -0.6, 0.8, 813.86, -502.53)" xlink:href="#linear-gradient-50"/><linearGradient id="linear-gradient-52" x1="410.44" y1="1075.76" x2="475.45" y2="1075.76" gradientTransform="matrix(0.15, 0.99, -0.99, 0.15, 1861.48, -308.37)" gradientUnits="userSpaceOnUse"><stop offset="0" stop-color="#fff"/><stop offset="1" stop-color="#7ec5ff"/></linearGradient><linearGradient id="linear-gradient-53" x1="563.71" y1="1353.85" x2="613.07" y2="1353.85" gradientTransform="matrix(-0.26, 0.96, -0.96, -0.26, 2267.24, 95.65)" xlink:href="#linear-gradient-52"/><linearGradient id="linear-gradient-54" x1="1023.09" y1="526.52" x2="1090.91" y2="131.8" gradientTransform="translate(-62.66 108.9) rotate(-8.91)" gradientUnits="userSpaceOnUse"><stop offset="0" stop-color="#def9ff"/><stop offset="1" stop-color="#6aa6c0"/></linearGradient><linearGradient id="linear-gradient-55" x1="1043.07" y1="240.45" x2="809.13" y2="539.95" gradientTransform="translate(-62.66 108.9) rotate(-8.91)" xlink:href="#linear-gradient-52"/><linearGradient id="linear-gradient-56" x1="886.28" y1="176.29" x2="1096.02" y2="316.12" gradientTransform="translate(-62.66 108.9) rotate(-8.91)" xlink:href="#linear-gradient-52"/><linearGradient id="linear-gradient-57" x1="895.6" y1="187.43" x2="1003.61" y2="274.69" gradientTransform="translate(-62.66 108.9) rotate(-8.91)" xlink:href="#linear-gradient-50"/><linearGradient id="linear-gradient-58" x1="1129.33" y1="382.33" x2="1175.99" y2="382.33" gradientTransform="translate(-188.6 366.03) rotate(-20.51)" xlink:href="#linear-gradient-50"/><linearGradient id="linear-gradient-59" x1="997.56" y1="339.75" x2="1062.57" y2="339.75" gradientTransform="translate(-62.66 108.9) rotate(-8.91)" xlink:href="#linear-gradient-52"/><linearGradient id="linear-gradient-60" x1="1112" y1="400.81" x2="1161.6" y2="400.81" gradientTransform="translate(-168.82 316.73) rotate(-18.37)" xlink:href="#linear-gradient-52"/><linearGradient id="linear-gradient-61" x1="693.79" y1="577.36" x2="730.95" y2="571.17" gradientTransform="translate(871.72 -533.71) rotate(38.12)" xlink:href="#linear-gradient-52"/><linearGradient id="linear-gradient-62" x1="690.28" y1="569.72" x2="701.01" y2="596.02" gradientTransform="translate(871.72 -533.71) rotate(38.12)" xlink:href="#linear-gradient-50"/><linearGradient id="linear-gradient-63" x1="762.04" y1="311.64" x2="802.29" y2="347.8" gradientTransform="translate(-62.66 108.9) rotate(-8.91)" xlink:href="#linear-gradient-52"/><linearGradient id="linear-gradient-64" x1="1329.74" y1="300.26" x2="1340.47" y2="326.55" gradientTransform="matrix(-0.99, 0.14, 0.14, 0.99, 2059.35, -179.14)" xlink:href="#linear-gradient-50"/><linearGradient id="linear-gradient-65" x1="815.94" y1="370.88" x2="843.77" y2="433.61" gradientTransform="translate(-62.66 108.9) rotate(-8.91)" xlink:href="#linear-gradient-52"/><linearGradient id="linear-gradient-66" x1="814.38" y1="351.3" x2="826.02" y2="424.66" gradientTransform="matrix(0.96, -0.27, 0.27, 0.96, -144.71, 254)" xlink:href="#linear-gradient-52"/><linearGradient id="linear-gradient-67" x1="448.05" y1="1181.99" x2="491.56" y2="1181.99" gradientTransform="matrix(0.24, 0.97, -0.97, 0.24, 1746.34, -346.52)" xlink:href="#linear-gradient-52"/><linearGradient id="linear-gradient-68" x1="469.81" y1="1170.67" x2="493.51" y2="1170.67" gradientTransform="matrix(0.24, 0.97, -0.97, 0.24, 1746.34, -346.52)" xlink:href="#linear-gradient-50"/><linearGradient id="linear-gradient-69" x1="562.05" y1="853.75" x2="608.49" y2="853.75" gradientTransform="matrix(0.4, 0.92, 0.92, -0.4, -130.76, 268.97)" xlink:href="#linear-gradient-50"/><linearGradient id="linear-gradient-70" x1="878.62" y1="448.17" x2="955.29" y2="497.81" gradientTransform="translate(-62.66 108.9) rotate(-8.91)" xlink:href="#linear-gradient-52"/><linearGradient id="linear-gradient-71" x1="832.29" y1="500.8" x2="911.05" y2="561.53" gradientTransform="translate(-62.66 108.9) rotate(-8.91)" xlink:href="#linear-gradient-52"/><linearGradient id="linear-gradient-72" x1="809.76" y1="531.46" x2="868.72" y2="569.19" gradientTransform="translate(-62.66 108.9) rotate(-8.91)" xlink:href="#linear-gradient-52"/><linearGradient id="linear-gradient-73" x1="827.76" y1="520.11" x2="862.67" y2="555.96" gradientTransform="translate(-62.66 108.9) rotate(-8.91)" xlink:href="#linear-gradient-50"/><linearGradient id="linear-gradient-74" x1="920.4" y1="306.55" x2="948.74" y2="427.92" gradientTransform="translate(-62.66 108.9) rotate(-8.91)" xlink:href="#linear-gradient-50"/><linearGradient id="linear-gradient-75" x1="854.87" y1="506.12" x2="855.34" y2="468.39" gradientTransform="matrix(0.97, 0.25, -0.25, 0.97, 337.95, -306.71)" xlink:href="#linear-gradient-50"/><filter id="luminosity-noclip-39" x="83.08" y="353.88" width="26.27" height="26.27" filterUnits="userSpaceOnUse" color-interpolation-filters="sRGB"><feFlood flood-color="#fff" result="bg"/><feBlend in="SourceGraphic" in2="bg"/></filter><mask id="mask-39" x="83.08" y="353.88" width="26.27" height="26.27" maskUnits="userSpaceOnUse"><g class="cls-29"><circle class="cls-30" cx="96.22" cy="367.02" r="13.13" transform="translate(-279.46 420.18) rotate(-83.36)"/></g></mask><linearGradient id="linear-gradient-76" x1="646.12" y1="-108.92" x2="672.4" y2="-108.92" gradientTransform="translate(-447.97 -20.67) rotate(44.85)" xlink:href="#linear-gradient-25"/><filter id="luminosity-noclip-40" x="96.22" y="356.39" width="9.85" height="8.68" filterUnits="userSpaceOnUse" color-interpolation-filters="sRGB"><feFlood flood-color="#fff" result="bg"/><feBlend in="SourceGraphic" in2="bg"/></filter><mask id="mask-40" x="96.22" y="356.39" width="9.85" height="8.68" maskUnits="userSpaceOnUse"><g class="cls-31"><path class="cls-32" d="M104.59,365.06a2,2,0,0,1-1.63-1.18c-2.56-5.37-9.61-7.72-5.45-7.47,4.85.82,8.07,4.16,8.55,7.37a1.23,1.23,0,0,1-1.47,1.28Z"/></g></mask><linearGradient id="linear-gradient-77" x1="1.28" y1="1312.04" x2="-7.84" y2="1307.69" xlink:href="#linear-gradient-26"/><linearGradient id="linear-gradient-78" x1="245.6" y1="87.22" x2="-8.31" y2="279.13" gradientTransform="translate(-5.23 2.8) rotate(-1.41)" gradientUnits="userSpaceOnUse"><stop offset="0" stop-color="#81e6d9"/><stop offset="1" stop-color="#00f1dd"/></linearGradient><filter id="luminosity-noclip-41" x="6.2" y="135.91" width="110.87" height="78.64" filterUnits="userSpaceOnUse" color-interpolation-filters="sRGB"><feFlood flood-color="#fff" result="bg"/><feBlend in="SourceGraphic" in2="bg"/></filter><mask id="mask-41" x="6.2" y="135.91" width="110.87" height="78.64" maskUnits="userSpaceOnUse"><g class="cls-33"><ellipse class="cls-34" cx="61.64" cy="175.23" rx="57.62" ry="36.02" transform="translate(-57.5 32.71) rotate(-20.51)"/></g></mask><linearGradient id="linear-gradient-79" x1="275.28" y1="-110.28" x2="390.52" y2="-110.28" gradientTransform="matrix(1, 0, 0, 1, -271.26, 285.5)" xlink:href="#linear-gradient-26"/><filter id="luminosity-noclip-42" x="69.4" y="219.69" width="37.6" height="25.93" filterUnits="userSpaceOnUse" color-interpolation-filters="sRGB"><feFlood flood-color="#fff" result="bg"/><feBlend in="SourceGraphic" in2="bg"/></filter><mask id="mask-42" x="69.4" y="219.69" width="37.6" height="25.93" maskUnits="userSpaceOnUse"><g class="cls-37"><path class="cls-38" d="M106.78,228.33c1.58,6.74-5.47,14.15-15.73,16.54S71.19,243.72,69.62,237s5.48-14.16,15.74-16.55S105.21,221.58,106.78,228.33Z"/></g></mask><linearGradient id="linear-gradient-80" x1="213.33" y1="51.03" x2="251.49" y2="51.03" gradientTransform="matrix(0.97, -0.23, 0.23, 0.97, -149.71, 235.63)" xlink:href="#linear-gradient-26"/><linearGradient id="linear-gradient-81" x1="-1.73" y1="216.69" x2="222.4" y2="216.69" gradientTransform="translate(-5.23 2.8) rotate(-1.41)" gradientUnits="userSpaceOnUse"><stop offset="0" stop-color="#ffffbf"/><stop offset="1" stop-color="#ffd440"/></linearGradient><linearGradient id="linear-gradient-82" x1="238.11" y1="463.33" x2="635.78" y2="80.17" gradientTransform="matrix(1.18, 0.01, 0.01, -1, -172.94, 516.35)" gradientUnits="userSpaceOnUse"><stop offset="0.01" stop-color="#ff9866"/><stop offset="0.15" stop-color="#f7916b"/><stop offset="0.37" stop-color="#e17e77"/><stop offset="0.63" stop-color="#bd5f8c"/><stop offset="0.94" stop-color="#8c34a8"/><stop offset="1" stop-color="#812bae"/></linearGradient></defs><g id="Layer_2" data-name="Layer 2"><g id="_ÎÓÈ_2" data-name="—ÎÓÈ_2"><circle class="cls-43" cx="1253.1" cy="398.96" r="1.22"/><path class="cls-43" d="M1273.06,447a1.23,1.23,0,1,1-1.23-1.23A1.23,1.23,0,0,1,1273.06,447Z"/><circle class="cls-43" cx="1301.54" cy="443.64" r="1.22"/><path class="cls-43" d="M1450,385.09a1.23,1.23,0,1,1-1.23-1.22A1.23,1.23,0,0,1,1450,385.09Z"/><g class="cls-44"><circle class="cls-45" cx="386.79" cy="397.75" r="19.1" transform="translate(-52.99 735.98) rotate(-83.36)"/></g><g class="cls-46"><path class="cls-47" d="M399,394.9a2.91,2.91,0,0,1-2.36-1.72c-3.73-7.81-14-11.23-7.94-10.86,7.06,1.19,11.74,6,12.44,10.72A1.79,1.79,0,0,1,399,394.9Z"/></g><path class="cls-43" d="M648.85,389.39a1.51,1.51,0,1,1-.36-2.11A1.52,1.52,0,0,1,648.85,389.39Z"/><path class="cls-43" d="M667.36,374.59a1.52,1.52,0,0,1-2.11.36,1.52,1.52,0,0,1,1.75-2.48A1.53,1.53,0,0,1,667.36,374.59Z"/><path class="cls-43" d="M665.84,402.7a1.51,1.51,0,1,1-.36-2.11A1.5,1.5,0,0,1,665.84,402.7Z"/><rect class="cls-48" x="0.05" y="6.36" width="1502.37" height="448.9"/><rect class="cls-49" x="0.06" y="6.22" width="1502.39" height="449.01"/><path class="cls-43" d="M201.92,129.57a1.22,1.22,0,1,1-1.22-1.22A1.22,1.22,0,0,1,201.92,129.57Z"/><circle class="cls-43" cx="85.82" cy="15.09" r="1.22"/><path class="cls-43" d="M105.78,63.12a1.23,1.23,0,1,1-1.23-1.23A1.23,1.23,0,0,1,105.78,63.12Z"/><circle class="cls-43" cx="134.26" cy="59.77" r="1.22"/><path class="cls-43" d="M126.76,89.86a1.23,1.23,0,1,1,2.45,0"/><path class="cls-43" d="M282.68,1.22A1.23,1.23,0,1,1,281.45,0,1.23,1.23,0,0,1,282.68,1.22Z"/><path class="cls-43" d="M96.22,94a1.23,1.23,0,0,1-2.45,0"/><circle class="cls-43" cx="529.71" cy="235.62" r="1.22"/><circle class="cls-43" cx="466.85" cy="354.57" r="1.22"/><path class="cls-43" d="M486.81,402.6a1.23,1.23,0,1,1-1.23-1.23A1.23,1.23,0,0,1,486.81,402.6Z"/><circle class="cls-43" cx="515.29" cy="399.25" r="1.22"/><path class="cls-43" d="M507.79,429.34a1.23,1.23,0,1,1,2.45,0"/><circle class="cls-43" cx="621.09" cy="271.79" r="1.22"/><circle class="cls-43" cx="539.17" cy="260.69" r="1.22"/><path class="cls-43" d="M567.87,251.87a1.23,1.23,0,1,1-1.23-1.22A1.23,1.23,0,0,1,567.87,251.87Z"/><path class="cls-43" d="M477.25,433.43a1.23,1.23,0,0,1-2.45,0"/><path class="cls-43" d="M611.48,186.16a1.23,1.23,0,1,1-1.22-1.23A1.22,1.22,0,0,1,611.48,186.16Z"/><circle class="cls-43" cx="495.38" cy="71.67" r="1.22"/><path class="cls-43" d="M515.33,119.7a1.23,1.23,0,1,1-1.22-1.22A1.23,1.23,0,0,1,515.33,119.7Z"/><circle class="cls-43" cx="543.81" cy="116.35" r="1.22"/><path class="cls-43" d="M536.32,146.44a1.22,1.22,0,0,1,2.44,0"/><path class="cls-43" d="M692.23,57.81A1.22,1.22,0,1,1,691,56.59,1.22,1.22,0,0,1,692.23,57.81Z"/><path class="cls-43" d="M505.78,150.53a1.23,1.23,0,1,1-2.45,0"/><path class="cls-43" d="M1262.92,438.89a1.22,1.22,0,1,1-1.22-1.22A1.22,1.22,0,0,1,1262.92,438.89Z"/><circle class="cls-43" cx="1146.82" cy="324.4" r="1.22"/><path class="cls-43" d="M1166.78,372.43a1.23,1.23,0,1,1-1.23-1.22A1.23,1.23,0,0,1,1166.78,372.43Z"/><circle class="cls-43" cx="1195.26" cy="369.08" r="1.22"/><path class="cls-43" d="M1187.76,399.17a1.23,1.23,0,0,1,2.45,0"/><path class="cls-43" d="M1343.68,310.54a1.23,1.23,0,1,1-1.23-1.22A1.22,1.22,0,0,1,1343.68,310.54Z"/><path class="cls-43" d="M1157.22,403.26a1.23,1.23,0,1,1-2.45,0"/><path class="cls-43" d="M1130.36,168.55a1.22,1.22,0,1,1-1.22-1.22A1.22,1.22,0,0,1,1130.36,168.55Z"/><circle class="cls-43" cx="1014.26" cy="54.07" r="1.22"/><path class="cls-43" d="M1034.22,102.1a1.23,1.23,0,1,1-1.23-1.22A1.23,1.23,0,0,1,1034.22,102.1Z"/><circle class="cls-43" cx="1062.7" cy="98.75" r="1.22"/><path class="cls-43" d="M1055.2,128.84a1.23,1.23,0,1,1,2.45,0"/><path class="cls-43" d="M1211.12,40.2a1.23,1.23,0,1,1-1.23-1.22A1.23,1.23,0,0,1,1211.12,40.2Z"/><path class="cls-43" d="M1024.66,132.93a1.23,1.23,0,0,1-2.45,0"/><circle class="cls-43" cx="202.09" cy="292.93" r="1.22"/><circle class="cls-43" cx="139.23" cy="411.88" r="1.22"/><circle class="cls-43" cx="293.47" cy="329.11" r="1.22"/><circle class="cls-43" cx="211.55" cy="318.01" r="1.22"/><path class="cls-43" d="M240.25,309.18A1.23,1.23,0,1,1,239,308,1.22,1.22,0,0,1,240.25,309.18Z"/><path class="cls-43" d="M336.09,398a1.23,1.23,0,1,1-1.23-1.23A1.23,1.23,0,0,1,336.09,398Z"/><g class="cls-50"><circle class="cls-51" cx="156.05" cy="400.38" r="30.84" transform="translate(-259.67 509.12) rotate(-83.36)"/></g><g class="cls-52"><path class="cls-53" d="M175.7,395.79a4.77,4.77,0,0,1-3.82-2.78c-6-12.61-22.57-18.13-12.81-17.54,11.4,1.92,19,9.76,20.08,17.31.3,2-1.75,3.23-3.45,3Z"/></g><path class="cls-54" d="M1073.67,499c81.1,0,94.63-15.62,107.83-37,17.32-28.08,34.66-92.39,44.82-122.52,14.53-43.17,39.65-83.92,79-108.16,23.14-14.23,54-17.65,77.32-3.78,9.16,5.42,16.83,13.18,26.25,18.11,23,12,52.41,4.5,72.09-12.44,9.88-8.49,15.71-17.35,21.4-27.18V6.36c-13.17,35.73-36.9,135.75-83.1,147C1346,171.34,1316.06,71,1235,121.73c-35.19,22-66,74.06-75.25,114.75-8.2,35.83-7.16,73.37-7.12,109.88,0,19.62-3.46,40.78-19,52.57-29.59,22.45-71.15-.92-90.88-.44-77.78,1.88-62.78,56.76-62.78,56.76S974.19,499,1073.67,499Z"/><g class="cls-55"><path class="cls-56" d="M857.4,70.88s-121,55.52-126.25,58.45a10.85,10.85,0,0,0,10.63,18.92C747,145.32,857.4,70.88,857.4,70.88Z"/></g><g class="cls-57"><path class="cls-58" d="M746.53,52.11S683,81.27,680.21,82.81a5.7,5.7,0,1,0,5.58,9.94C688.54,91.21,746.53,52.11,746.53,52.11Z"/></g><g class="cls-59"><path class="cls-60" d="M758.74,81.38s-82.54,39.67-86.09,41.75A7.46,7.46,0,1,0,680.19,136C683.74,133.93,758.74,81.38,758.74,81.38Z"/></g><path class="cls-61" d="M353,119.83c-.35.57-.71,1.12-1.11,1.66a31.3,31.3,0,0,1-42.76,8c-.32-.2-.62-.4-.91-.62a30.43,30.43,0,0,1-5.94-5.52,31.34,31.34,0,0,1-5.35-30.66h0a31.32,31.32,0,0,1,3.93-7.5A24.47,24.47,0,0,1,302.59,83a31.32,31.32,0,0,1,33.82-9.31,30.35,30.35,0,0,1,7.19,3.53c.31.2.63.41.94.63a31.27,31.27,0,0,1,8.45,42Z"/><path class="cls-62" d="M353,119.83c-.35.57-.71,1.12-1.1,1.66a31.31,31.31,0,0,1-42.77,8c-.31-.2-.61-.4-.91-.62a31.34,31.34,0,0,1-11.29-36.18h0a9.05,9.05,0,0,1,3.66.37,15.62,15.62,0,0,1,6.23,4.2A33.54,33.54,0,0,1,314.35,109a9.46,9.46,0,0,0,1.43,2.9c1.63,1.92,4.5,1.93,7,1.88a30.56,30.56,0,0,1,3.95.12,11.93,11.93,0,0,1,4.88,1.45c2.18,1.28,3.73,3.45,5.95,4.63a11,11,0,0,0,8,.54,31.38,31.38,0,0,1,4.86-1.28A3.87,3.87,0,0,1,353,119.83Z"/><g class="cls-63"><path class="cls-64" d="M336.41,73.65a1.59,1.59,0,0,0-.32.16c-4,2.34-4.68,8.58-7.73,12a13.54,13.54,0,0,1-8.75,4.41,13.18,13.18,0,0,1-7.82-1.69c-2.22-1.35-3.75-3.48-6.17-4.68a8.68,8.68,0,0,0-3-.87A31.32,31.32,0,0,1,336.41,73.65Z"/></g><g class="cls-65"><path class="cls-66" d="M353,119.83c-.35.57-.71,1.12-1.1,1.66a31.31,31.31,0,0,1-42.77,8,2.05,2.05,0,0,1,.23-.2c2.56-2,5.72-3,8.68-4.33s6-3.08,7.46-6a12.12,12.12,0,0,0,1.25-5.07c.25-4.07-.53-8.46,1.49-12s5.9-5,8.61-7.74c3.34-3.43,4.52-8.35,5.56-13,.18-.79.38-1.59.62-2.4a16.88,16.88,0,0,1,.58-1.6c.32.2.63.41.94.63A31.31,31.31,0,0,1,353,119.83Z"/></g><g class="cls-67"><path class="cls-68" d="M353,119.83c-.35.57-.71,1.12-1.11,1.66a31.3,31.3,0,0,1-42.76,8c-.32-.2-.62-.4-.91-.62a30.43,30.43,0,0,1-5.94-5.52c3.63-.14,7.32,1.19,10.77,2.59,4.31,1.77,8.79,3.74,13.4,3.24,5.53-.62,10.12-4.75,13-9.47s4.52-10.15,6.67-15.27c2.08-4.94,4.87-9.84,9.26-12.86A31.33,31.33,0,0,1,353,119.83Z"/></g><g class="cls-69"><path class="cls-70" d="M323.61,78.73c-1.57,2.47-.4,5.25.94,7.56s3.55,4.4,4.51,6.86c1,2.62.88,5.6,1.35,8.34.34,2,1.08,4.06,2.79,5.1,2.71,1.65,6.37-.29,8-3s2-6,3-9a29.23,29.23,0,0,0,1.6-4.93A10.28,10.28,0,0,0,343,81.41a18.78,18.78,0,0,0-7.63-4.67,15,15,0,0,0-6.3-1A7.2,7.2,0,0,0,323.61,78.73Z"/></g><path class="cls-71" d="M298.82,111.44a27.15,27.15,0,0,1-.77-6.37c-.11-10,4.69-19.86,12-24.56-4.26,5.14-5.2,13.08-4.78,20.37.59,10.48,3.81,21.2,10.46,28.1a28.06,28.06,0,0,1-10.35-6.22A23.91,23.91,0,0,1,298.82,111.44Z"/><g class="cls-72"><path class="cls-73" d="M323.83,97.5c0,2.71-1.6,4.9-3.58,4.9s-3.58-2.19-3.58-4.9,1.6-4.9,3.58-4.9S323.83,94.8,323.83,97.5Z"/></g><g class="cls-74"><path class="cls-75" d="M292,87.62c-4-1.85-8.9-4.23-13.47-3.44-5.65,1-7,5.51-4.72,10.3,2.33,5,7.14,8.48,12.25,10.56s10.61,3,16,4.17,10.82,2.82,15.25,6.11a36.45,36.45,0,0,0-11.59-9.38c-4.73-2.42-10-3.32-14.78-5.64-2.11-1-2.93-3.67-.13-4.06a7.29,7.29,0,0,1,4.77,1.26,32.55,32.55,0,0,1,2.32-7.25A47.71,47.71,0,0,1,292,87.62Z"/></g><g class="cls-76"><path class="cls-77" d="M357.32,108.22a32.41,32.41,0,0,1,13.22,10.55c3.34,4.58,3,10.79-2.13,13.66-4.1,2.31-10,1.28-14.31,0-5.73-1.74-10.77-5.18-15.65-8.54-4.25-2.93-9-5.64-14.17-5.58,5.34-1.24,10.73,1.37,15.64,3.81s10.49,4.81,15.7,3.1c6.69-2.18,3.55-7-.89-8.56A31.81,31.81,0,0,0,357.32,108.22Z"/></g><path class="cls-78" d="M1044.57,232.29V172.88c6.8-2.49,15.42-3.72,25.74-3.72,22.13,0,52.78,5.54,87.52,15.39,6.42,1.8,13,3.78,19.63,5.89,22.72,7.17,46.76,16,71,26.15A814,814,0,0,1,1329,255.42q9.82,5.43,18.88,10.92c10.83,6.51,20.77,13.06,29.77,19.48,38.8,27.81,53.94,50.19,46.29,68.41-5.19,12.43-19.7,18.75-43.05,18.75-18.28,0-39.93-3.21-67.4-10.13.09-.09.16-.19.22-.25.72-.73,1.38-1.39,2-2.05s1.26-1.35,1.83-2c1.48-1.57,2.7-3,3.84-4.4.56-.7,1.13-1.39,1.66-2.11,2.4-3.12,4.54-6.33,7.65-10.86.06-.09.13-.22.22-.35,21.21,4.88,35.62,6.64,50,6.64,13.41,0,18.19-2.42,19.42-3.24-.57-7.61-18.44-25.77-53-48.18h0q-7.92-5.15-17.08-10.57c-9.85-5.82-20.71-11.86-32.6-18-14.29-7.39-30.06-14.91-47.3-22.43-3.81-1.64-7.71-3.31-11.68-5-13-5.44-25.83-10.48-38.45-15.07-11.42-4.15-22.66-8-33.51-11.33-6.45-2-12.81-3.9-19-5.63-3.65-1-7.24-2-10.76-2.87-26.4-6.82-49.44-10.54-66.56-10.54-13.4,0-18.18,2.43-19.41,3.24.63,8.5,20.36,28.58,63.31,54.57,0,.09,0,.22-.06.31s0,.19,0,.26c-1.73,9.94-2.58,16.33-2.8,23.88,0,.79,0,1.57,0,2.36v1.17a398.9,398.9,0,0,1-37.73-24.11A228.35,228.35,0,0,1,1044.57,232.29Z"/><path class="cls-79" d="M1334.69,263.41a116.46,116.46,0,0,1-5.8,36.51,118.66,118.66,0,0,1-86.51,79.16,117.23,117.23,0,0,1-26.31,2.95,118.55,118.55,0,0,1-114.45-87.52,118.63,118.63,0,0,1,114.45-149.67,118.53,118.53,0,0,1,102.73,59.31,119.44,119.44,0,0,1,15.89,59.26Z"/><path class="cls-80" d="M1334.68,263.42a116.17,116.17,0,0,1-5.8,36.51,118.57,118.57,0,0,1-227.26-5.4,118.16,118.16,0,0,1,6.85-81,5.51,5.51,0,0,1,1.29,1.06c2.11,2.23,2.84,5.41,3.23,8.47,1,8.7-.39,17.67,2.06,26.09s10.76,16.22,19.12,13.71c2.18-.67,4.29-2,6.58-1.84,5,.39,6.47,6.81,7.3,11.71,1.62,10.09,6.36,20.07,14.55,26.2s20.18,7.58,28.71,1.9c9.53-6.3,13.94-20.13,25.14-22.25,8.64-1.61,16.83,5.13,20.85,12.88s5.18,16.72,8.25,24.92,9.08,16.27,17.72,17.72c9.48,1.51,18.51-5.79,22.64-14.49s4.62-18.56,6-28c1.67-11.31,4.85-22.69,11.76-31.83s18-15.61,29.38-14.6h.16A116.3,116.3,0,0,1,1334.68,263.42Z"/><path class="cls-81" d="M1101.62,294.53c5-.84,10.37.11,15.27,1.84,21,7.47,34.9,27.48,44.37,47.71,2.34,5.07,6.64,11.26,11.88,9.48,6.18-2.12,4.12-11.21,7.58-15.16,5-5.75,12.87-3.63,14.83,4.73,1.17,5.24.67,11.15,3.62,15.67,7.41,11.26,22.3,3.57,31.72.28,5.68-2,11.42-5,17.22-6.69,7.92-2.34,15.55-.06,23.58-.84,11-1.11,20.13-9.08,26.93-17.84s12.09-18.67,20-26.42a43.31,43.31,0,0,1,10.25-7.36,118.57,118.57,0,0,1-227.26-5.4Z"/><path class="cls-82" d="M1318.8,204.17c-3.63.44-7.31.72-10.76,1.89-14.94,5.24-19,25.42-32.61,33.5-8.09,4.8-18.68,4.41-26.87-.16s-14-12.83-16.56-21.86c-1.84-6.41-2.12-13.26-4.79-19.39-6.08-13.77-25.25-19.74-38-11.82-5,3-11.2,12-17.56,12.21-13.26.44-.78-16.28-3.12-24.42-1.45-5.07-6.47-8.47-11.59-9.64a24.16,24.16,0,0,0-5.3-.56,118.56,118.56,0,0,1,167.18,40.25Z"/><g class="cls-83"><path class="cls-84" d="M1248.78,223h.28c15.25.47,42.22-19.62,23.79-33.81C1249,170.83,1222.15,221.8,1248.78,223Z"/></g><g class="cls-85"><path class="cls-86" d="M1286.37,297c10.67-4.91,21.28-11,28.22-20.46,13.16-18,5.32-40.09-17.09-43.16-27.41-3.74-82.24,8.67-80.36,44.86.73,14.15,14.22,25.14,28.22,27.3S1273.5,302.94,1286.37,297Z"/></g><g class="cls-87"><path class="cls-88" d="M1242.38,379.08a117.23,117.23,0,0,1-26.31,2.95,118.55,118.55,0,0,1-114.45-87.52,118.69,118.69,0,0,1,69-140.58c8,3.76-45.38,36.8-52.85,84.94C1095.79,380.32,1242.77,378.24,1242.38,379.08Z"/></g><path class="cls-89" d="M1424,334.65l1.47,5.44c7.42,20.36-14.53,35.59-49.78,32.89a446.13,446.13,0,0,1-87.51-15.38c-6.42-1.8-13-3.78-19.64-5.89-22.72-7.17-46.76-16-71-26.15A814,814,0,0,1,1117,286.73q-9.81-5.43-18.88-10.92c-10.82-6.51-20.77-13.06-29.77-19.48-38.8-27.82-53.93-50.19-46.29-68.41,5.2-12.43,19.7-18.76,43-18.76,18.29,0,39.94,3.21,67.41,10.14-.1.09-.16.19-.22.25-.73.72-1.39,1.38-2,2s-1.26,1.36-1.82,2c-1.48,1.57-2.71,3-3.84,4.4-.57.69-1.13,1.39-1.67,2.11-2.39,3.12-4.53,6.33-7.65,10.86a3.14,3.14,0,0,1-.22.34c-21.21-4.87-35.62-6.64-50-6.64-13.4,0-18.19,2.43-19.41,3.24.56,7.62,18.44,25.78,53,48.18h0q7.93,5.15,17.09,10.58c9.85,5.82,20.7,11.86,32.6,18,14.29,7.39,30,14.91,47.3,22.43,3.8,1.64,7.71,3.31,11.67,5,13,5.45,25.84,10.48,38.46,15.08,11.42,4.15,22.65,8,33.51,11.33,6.45,2,12.81,3.9,19,5.63,3.65,1,7.24,2,10.77,2.86,26.4,6.83,49.43,10.54,66.55,10.54,13.41,0,18.19-2.42,19.42-3.24-.63-8.49-20.36-28.57-63.32-54.56,0-.1,0-.22.07-.32s0-.19,0-.25c1.73-9.94,2.58-16.33,2.8-23.88,0-.79,0-1.58,0-2.36v-1.17c15.55,8.88,25.2,11.49,37.44,20.24C1384,290.45,1420.9,319.69,1424,334.65Z"/><g class="cls-90"><path d="M851.86,336.42a23.22,23.22,0,1,1,28.52-16.27A23.22,23.22,0,0,1,851.86,336.42Z"/><path d="M822.72,410.72a23.22,23.22,0,1,1-4.63-32.51A23.21,23.21,0,0,1,822.72,410.72Z"/><path d="M850.55,289.34s60.87-46.28,79.55-18.72S878,332.27,878,332.27s-1.11-10.41-9.75-23.86A72.48,72.48,0,0,0,850.55,289.34Z"/><path d="M847.25,290.65s-3.88,12.25-2.18,25c2.22,16.81,7.43,23,7.43,23s-37.54,2.83-40.74-16C808.27,302.14,847.25,290.65,847.25,290.65Z"/><path d="M1093,214.64c-11.12-7.31-45,0-55.43,8.5,5.57,24.39,14,79.74-6.38,136.76a145.6,145.6,0,0,1-20.29,37.42c16.13,9.7,46.57,22,60.44,17.4,13-4.27,35.44-54.25,39.47-101.67S1111.08,226.53,1093,214.64Z"/><path d="M1037.56,223.14c-1.89-8.27-3.45-13-3.45-13L913.76,255.33s10.42,37.79-14.36,72.93c-20.16,28.57-45.95,24.16-51.93,36.08-17.69,35.28,72,76.09,105.59,75.11,15.5-.45,39.37-17.29,57.83-42.13a145.6,145.6,0,0,0,20.29-37.42C1051.53,302.88,1043.13,247.53,1037.56,223.14Z"/><path d="M1033.58,175.75c-.41-1.62-.81-3.23-1.37-4.83-.19-.73-.45-1.45-.72-2.18-.57-1.66-1.21-3.32-1.92-5a.36.36,0,0,0-.11-.22c-.84-1.93-1.75-3.85-2.73-5.68s-2-3.43-3-5.1a79,79,0,0,0-8.32-10.69c-1.28-1.33-2.56-2.66-3.9-3.9s-2.75-2.47-4.16-3.62a3.22,3.22,0,0,1-.51-.38,40.47,40.47,0,0,0-5-3.65c-.17,0-.26-.19-.44-.31-1.6-1-3.2-1.94-4.88-2.9q-2.26-1.26-4.74-2.47c-.41-.16-.9-.39-1.31-.56a63.44,63.44,0,0,0-11.16-4c-2.14-.58-4.3-1-6.47-1.43-1.57-.29-3.15-.47-4.75-.65-.4,0-.8-.13-1.21-.17l.06,0A75.64,75.64,0,0,0,906.45,139c-.27.27.34,110.4.8,110.86l.08.07c.36.32.72.65,1,.91l2.65,2.33c.95.7,1.84,1.47,2.79,2.17s1.89,1.38,2.83,2,2,1.29,3,1.9a28.36,28.36,0,0,0,3,1.74c.93.54,1.84,1,2.76,1.48,1.16.58,2.31,1.09,3.54,1.66,1.06.44,2.13.89,3.26,1.32a65.26,65.26,0,0,0,6.93,2.27c1,.3,2.15.58,3.18.8,1.19.28,2.3.56,3.48.76,2,.37,4.15.65,6.24.85a72.7,72.7,0,0,0,8.22.32,30,30,0,0,0,3.58-.1c2.49-.16,5-.4,7.44-.79a76.37,76.37,0,0,0,63.7-87.28A65.22,65.22,0,0,0,1033.58,175.75Z"/><path d="M1000.24,207.71c-3.37,20.38-11.54,33.58-16.29,35.93-7.37,3.67-16.78,7.44-51,8a162.23,162.23,0,0,1-25.63-1.71l-.08-.07c-.46-.46-1-.91-1.44-1.38-.83-.86-1.64-1.65-2.46-2.51a72.62,72.62,0,0,1-13.62-20.63c-1-2.38-1.93-4.82-2.75-7.31-.57-1.73-1.05-3.5-1.5-5.29-.11-.43-.26-.84-.37-1.27a1.34,1.34,0,0,1,.11.14c-.44-1.89-1-3.73-1.28-5.68A76.32,76.32,0,0,1,906.45,139c8.22-1.13,20.91-1.59,39,.54C967,142,984.32,149,992.88,154.86a21.17,21.17,0,0,1,5.08,4.63C1001.55,164.88,1004.71,181.11,1000.24,207.71Z"/><path d="M916,174c-4.23,12.19-12.62,20.36-18.74,18.24s-7.66-13.73-3.44-25.93S906.45,146,912.57,148.1,920.24,161.83,916,174Z"/><path d="M933.31,150.09c-2.14,3-5.42,4.41-7.31,3.07s-1.69-4.88.46-7.92,5.42-4.41,7.31-3.07S935.46,147.05,933.31,150.09Z"/><path d="M916.62,207c.76,6.41-1.24,11.91-4.45,12.29s-6.45-4.5-7.21-10.91,1.23-11.91,4.45-12.3S915.85,200.54,916.62,207Z"/><path d="M1076.8,319.05a23.33,23.33,0,1,1-30-13.67A23.33,23.33,0,0,1,1076.8,319.05Z"/><path d="M1030.11,335.39s-46.63-60.6-19.18-79.43,62,51.74,62,51.74-10.4,1.17-23.8,9.89A72.44,72.44,0,0,0,1030.11,335.39Z"/><path d="M1041.37,349.21s12.41-3.57,22.15-12.1c12.83-11.23,15.08-19,15.08-19s23.27,29.83,9.31,43C1072.69,375.43,1041.37,349.21,1041.37,349.21Z"/><path d="M1095.35,354.55a14.51,14.51,0,0,0,10.63,3.2c5.93-.61,11.7-7.78,15-5.16s9,11.22,6.32,15.45c-5,7.91-15.4,6.84-15.4,6.84s7.21,1.87,6.63,6.81-11.88,3.87-21.34-3.55-11.57-12.38-11.57-12.38Z"/><path d="M1088,368.5a3.91,3.91,0,0,1-5.47.66h0a3.91,3.91,0,0,1-.66-5.47l9-11.4a3.89,3.89,0,0,1,5.46-.66h0a3.88,3.88,0,0,1,.66,5.46Z"/><path d="M808.46,314.15a14.52,14.52,0,0,1-10.79-2.59c-4.82-3.51-6.21-12.6-10.41-12s-13.41,5.18-13.23,10.18c.36,9.35,9.88,13.65,9.88,13.65s-7.18-2-9.16,2.56,8.33,9.31,20.24,7.65,16.22-4.89,16.22-4.89Z"/><path d="M807.8,329.89a3.9,3.9,0,0,0,4.4,3.32h0a3.9,3.9,0,0,0,3.31-4.39l-2-14.37a3.9,3.9,0,0,0-4.4-3.31h0a3.89,3.89,0,0,0-3.31,4.39Z"/><path d="M891.11,367.19c-8.73-24.93-87,3-87,3s-4.27,9.32,1.5,26.2,14.16,21.84,14.16,21.84S899.53,391.22,891.11,367.19Z"/><path d="M756,407.73c-5-22.52,30.66-31.93,30.66-31.93s-3.7,9.5-.12,26,12.27,23,12.27,23S760.9,429.89,756,407.73Z"/><path d="M754.78,400.44l-4.34-.51s-4.82-8.76-12.67-12.9a44.17,44.17,0,0,0-13.41-4.81l8.18,33.09a9.41,9.41,0,0,0,11.4,6.88l10.51-2.6,4.32-3Z"/><path d="M758.46,420.6a3.66,3.66,0,0,1-4.43-2.67L750.1,402a3.66,3.66,0,0,1,2.67-4.43h0a3.67,3.67,0,0,1,4.43,2.68l3.94,15.9a3.66,3.66,0,0,1-2.68,4.43Z"/><path d="M924,497.29a23.22,23.22,0,1,0-30.51-12.15A23.21,23.21,0,0,0,924,497.29Z"/><path d="M964.92,400.37c21.8,14.92-25.54,83.19-25.54,83.19s-10.12,1.7-24.9-8.27-17.41-19.36-17.41-19.36S943.91,386,964.92,400.37Z"/><path d="M884.57,515c18.32,14,41.89-14.3,41.89-14.3s-10.17-.66-23.66-10.89-15.67-20.84-15.67-20.84S866.54,501.19,884.57,515Z"/><path d="M890.66,519.17l-1.38,4.15s5.91,8.07,6.35,16.93a44.3,44.3,0,0,1-1.3,14.2l-26.54-21.4a9.41,9.41,0,0,1-1.42-13.24l6.79-8.42,4.55-2.65Z"/><path d="M873.94,507.32a3.65,3.65,0,0,0,.55,5.14l12.76,10.28a3.65,3.65,0,0,0,5.14-.55h0a3.65,3.65,0,0,0-.55-5.14l-12.76-10.29a3.66,3.66,0,0,0-5.14.56Z"/><path d="M922.8,284.27c-2.9,2.48-2.39,13.11-9.39,29.64-5.66,13.36-15.41,22-15.08,24.08s8,8.89,19.21,15c14.26,7.82,32.79,11.42,37.34,10s17.54-16.25,22.11-31c5.79-18.69,5.24-42.76,1.81-44.82s-14.07.49-32.09-.68C930.55,285.44,924.92,282.45,922.8,284.27Z"/><path d="M1079.67,384.41c-1.21,4.66-4.89,7.74-8.21,6.87s-5-5.34-3.8-10,4.89-7.75,8.21-6.88S1080.89,379.75,1079.67,384.41Z"/><path d="M973.83,304.57c-1.21,4.67-4.89,7.75-8.2,6.88s-5-5.35-3.81-10,4.89-7.74,8.21-6.88S975.05,299.91,973.83,304.57Z"/><path d="M968.35,307.8c44,19.07,18.48,89.41,25.56,126.05,4.7,24.34,31.05,44.61,55.61,42.59,48.29-4,74.57-71.58,26.85-96.69-4.31-2.27-7,4.79-2.75,7,26.28,13.83,25.2,42.85,9.2,64.44-20.12,27.15-62,19.22-77.78-11.8-16.31-32,22.74-114.08-33.94-138.65-4.48-1.94-7.2,5.1-2.75,7Z"/></g><path class="cls-91" d="M821.86,329.42a23.22,23.22,0,1,1,28.52-16.27A23.22,23.22,0,0,1,821.86,329.42Z"/><path class="cls-92" d="M792.72,403.72a23.22,23.22,0,1,1-4.63-32.51A23.21,23.21,0,0,1,792.72,403.72Z"/><path class="cls-93" d="M820.55,282.34s60.87-46.28,79.55-18.72S848,325.27,848,325.27s-1.11-10.41-9.75-23.86A72.48,72.48,0,0,0,820.55,282.34Z"/><path class="cls-94" d="M817.25,283.65s-3.88,12.25-2.18,25c2.22,16.81,7.43,23,7.43,23s-37.54,2.83-40.74-16C778.27,295.14,817.25,283.65,817.25,283.65Z"/><path class="cls-95" d="M1063,207.64c-11.12-7.31-45,0-55.43,8.5,5.57,24.39,14,79.74-6.38,136.76a145.6,145.6,0,0,1-20.29,37.42c16.13,9.7,46.57,22,60.44,17.4,13-4.27,35.44-54.25,39.47-101.67S1081.08,219.53,1063,207.64Z"/><path class="cls-96" d="M1007.56,216.14c-1.89-8.27-3.45-13-3.45-13L883.76,248.33s10.42,37.79-14.36,72.93c-20.16,28.57-45.95,24.16-51.93,36.08-17.69,35.28,72,76.09,105.59,75.11,15.5-.45,39.37-17.29,57.83-42.13a145.6,145.6,0,0,0,20.29-37.42C1021.53,295.88,1013.13,240.53,1007.56,216.14Z"/><path class="cls-97" d="M1003.58,168.75c-.41-1.62-.81-3.23-1.37-4.83-.19-.73-.45-1.45-.72-2.18-.57-1.66-1.21-3.32-1.92-5a.36.36,0,0,0-.11-.22c-.84-1.93-1.75-3.85-2.73-5.68s-2-3.43-3-5.1a79,79,0,0,0-8.32-10.69c-1.28-1.33-2.56-2.66-3.9-3.9s-2.75-2.47-4.16-3.62a3.22,3.22,0,0,1-.51-.38,40.47,40.47,0,0,0-5-3.65c-.17-.05-.26-.19-.44-.31-1.6-1-3.2-1.94-4.88-2.9q-2.26-1.26-4.74-2.47c-.41-.16-.9-.39-1.31-.56a63.44,63.44,0,0,0-11.16-4c-2.14-.58-4.3-1-6.47-1.43-1.57-.29-3.15-.47-4.75-.65-.4,0-.8-.13-1.21-.17l.06,0A75.64,75.64,0,0,0,876.45,132c-.27.27.34,110.4.8,110.86l.08.07c.36.32.72.65,1,.91l2.65,2.33c.95.7,1.84,1.47,2.79,2.17s1.89,1.38,2.83,2,2,1.29,3,1.9a28.36,28.36,0,0,0,3,1.74c.93.54,1.84,1,2.76,1.48,1.16.58,2.31,1.09,3.54,1.66,1.06.44,2.13.89,3.26,1.32a65.26,65.26,0,0,0,6.93,2.27c1,.3,2.15.58,3.18.8,1.19.28,2.3.56,3.48.76,2,.37,4.15.65,6.24.85a72.7,72.7,0,0,0,8.22.32,30,30,0,0,0,3.58-.1c2.49-.16,5-.4,7.44-.79a76.37,76.37,0,0,0,63.7-87.28A65.22,65.22,0,0,0,1003.58,168.75Z"/><path class="cls-98" d="M970.24,200.71c-3.37,20.38-11.54,33.58-16.29,35.93-7.37,3.67-16.78,7.44-51,8a162.23,162.23,0,0,1-25.63-1.71l-.08-.07c-.46-.46-1-.91-1.44-1.38-.83-.86-1.64-1.65-2.46-2.51a72.62,72.62,0,0,1-13.62-20.63c-1-2.38-1.93-4.82-2.75-7.31-.57-1.73-1.05-3.5-1.5-5.29-.11-.43-.26-.84-.37-1.27a1.34,1.34,0,0,1,.11.14c-.44-1.89-1-3.73-1.28-5.68A76.32,76.32,0,0,1,876.45,132c8.22-1.13,20.91-1.59,39,.54C937,135,954.32,142,962.88,147.86a21.17,21.17,0,0,1,5.08,4.63C971.55,157.88,974.71,174.11,970.24,200.71Z"/><path class="cls-99" d="M886,167c-4.23,12.19-12.62,20.36-18.74,18.24s-7.66-13.73-3.44-25.93S876.45,139,882.57,141.1,890.24,154.83,886,167Z"/><path class="cls-99" d="M903.31,143.09c-2.14,3-5.42,4.41-7.31,3.07s-1.69-4.88.46-7.92,5.42-4.41,7.31-3.07S905.46,140.05,903.31,143.09Z"/><path class="cls-99" d="M886.62,200c.76,6.41-1.24,11.91-4.45,12.29s-6.45-4.5-7.21-10.91,1.23-11.91,4.45-12.3S885.85,193.54,886.62,200Z"/><path class="cls-100" d="M1046.8,312.05a23.33,23.33,0,1,1-30-13.67A23.33,23.33,0,0,1,1046.8,312.05Z"/><path class="cls-101" d="M1000.11,328.39s-46.63-60.6-19.18-79.43,62,51.74,62,51.74-10.4,1.17-23.8,9.89A72.44,72.44,0,0,0,1000.11,328.39Z"/><path class="cls-102" d="M1011.37,342.21s12.41-3.57,22.15-12.1c12.83-11.23,15.08-19,15.08-19s23.27,29.83,9.31,43C1042.69,368.43,1011.37,342.21,1011.37,342.21Z"/><path class="cls-103" d="M1065.35,347.55a14.51,14.51,0,0,0,10.63,3.2c5.93-.61,11.7-7.78,15-5.16s9,11.22,6.32,15.45c-5,7.91-15.4,6.84-15.4,6.84s7.21,1.87,6.63,6.81-11.88,3.87-21.34-3.55-11.57-12.38-11.57-12.38Z"/><path class="cls-104" d="M1058,361.5a3.91,3.91,0,0,1-5.47.66h0a3.91,3.91,0,0,1-.66-5.47l9-11.4a3.89,3.89,0,0,1,5.46-.66h0a3.88,3.88,0,0,1,.66,5.46Z"/><path class="cls-105" d="M778.46,307.15a14.52,14.52,0,0,1-10.79-2.59c-4.82-3.51-6.21-12.6-10.41-12s-13.41,5.18-13.23,10.18c.36,9.35,9.88,13.65,9.88,13.65s-7.18-2-9.16,2.56,8.33,9.31,20.24,7.65,16.22-4.89,16.22-4.89Z"/><path class="cls-106" d="M777.8,322.89a3.9,3.9,0,0,0,4.4,3.32h0a3.9,3.9,0,0,0,3.31-4.39l-2-14.37a3.9,3.9,0,0,0-4.4-3.31h0a3.89,3.89,0,0,0-3.31,4.39Z"/><path class="cls-107" d="M861.11,360.19c-8.73-24.93-87,3-87,3s-4.27,9.32,1.5,26.2,14.16,21.84,14.16,21.84S869.53,384.22,861.11,360.19Z"/><path class="cls-108" d="M726,400.73c-5-22.52,30.66-31.93,30.66-31.93s-3.7,9.5-.12,26,12.27,23,12.27,23S730.9,422.89,726,400.73Z"/><path class="cls-109" d="M724.78,393.44l-4.34-.51s-4.82-8.76-12.67-12.9a44.17,44.17,0,0,0-13.41-4.81l8.18,33.09a9.41,9.41,0,0,0,11.4,6.88l10.51-2.6,4.32-3Z"/><path class="cls-110" d="M728.46,413.6a3.66,3.66,0,0,1-4.43-2.67L720.1,395a3.66,3.66,0,0,1,2.67-4.43h0a3.67,3.67,0,0,1,4.43,2.68l3.94,15.9a3.66,3.66,0,0,1-2.68,4.43Z"/><path class="cls-111" d="M894,490.29a23.22,23.22,0,1,0-30.51-12.15A23.21,23.21,0,0,0,894,490.29Z"/><path class="cls-112" d="M934.92,393.37c21.8,14.92-25.54,83.19-25.54,83.19s-10.12,1.7-24.9-8.27-17.41-19.36-17.41-19.36S913.91,379,934.92,393.37Z"/><path class="cls-113" d="M854.57,508c18.32,14,41.89-14.3,41.89-14.3s-10.17-.66-23.66-10.89-15.67-20.84-15.67-20.84S836.54,494.19,854.57,508Z"/><path class="cls-114" d="M860.66,512.17l-1.38,4.15s5.91,8.07,6.35,16.93a44.3,44.3,0,0,1-1.3,14.2l-26.54-21.4a9.41,9.41,0,0,1-1.42-13.24l6.79-8.42,4.55-2.65Z"/><path class="cls-115" d="M843.94,500.32a3.65,3.65,0,0,0,.55,5.14l12.76,10.28a3.65,3.65,0,0,0,5.14-.55h0a3.65,3.65,0,0,0-.55-5.14l-12.76-10.29a3.66,3.66,0,0,0-5.14.56Z"/><path class="cls-116" d="M892.8,277.27c-2.9,2.48-2.39,13.11-9.39,29.64-5.66,13.36-15.41,22-15.08,24.08s8,8.89,19.21,15c14.26,7.82,32.79,11.42,37.34,10s17.54-16.25,22.11-31c5.79-18.69,5.24-42.76,1.81-44.82s-14.07.49-32.09-.68C900.55,278.44,894.92,275.45,892.8,277.27Z"/><path class="cls-117" d="M1049.67,377.41c-1.21,4.66-4.89,7.74-8.21,6.87s-5-5.34-3.8-10,4.89-7.75,8.21-6.88S1050.89,372.75,1049.67,377.41Z"/><path class="cls-43" d="M943.83,297.57c-1.21,4.67-4.89,7.75-8.2,6.88s-5-5.35-3.81-10,4.89-7.74,8.21-6.88S945.05,292.91,943.83,297.57Z"/><path class="cls-43" d="M938.35,300.8c44,19.07,18.48,89.41,25.56,126.05,4.7,24.34,31.05,44.61,55.61,42.59,48.29-4,74.57-71.58,26.85-96.69-4.31-2.27-7,4.79-2.75,7,26.28,13.83,25.2,42.85,9.2,64.44-20.12,27.15-62,19.22-77.78-11.8-16.31-32,22.74-114.08-33.94-138.65-4.48-1.94-7.2,5.1-2.75,7Z"/><g class="cls-118"><circle class="cls-119" cx="96.22" cy="367.02" r="13.13" transform="translate(-279.46 420.18) rotate(-83.36)"/></g><g class="cls-120"><path class="cls-121" d="M104.59,365.06a2,2,0,0,1-1.63-1.18c-2.56-5.37-9.61-7.72-5.45-7.47,4.85.82,8.07,4.16,8.55,7.37a1.23,1.23,0,0,1-1.47,1.28Z"/></g><path class="cls-122" d="M172.93,234.54a97.2,97.2,0,0,1-59.15,71c-.89.38-1.81.71-2.76,1.07-.46.17-.9.33-1.36.48s-1,.33-1.38.49a7.46,7.46,0,0,1-.72.23c-1.11.36-2.21.7-3.31,1-.67.2-1.36.4-2.06.54-.87.26-1.77.49-2.67.69a1,1,0,0,1-.23.06c-1.26.29-2.55.55-3.84.79q-1.7.35-3.39.57a4.92,4.92,0,0,1-.83.13c-.77.12-1.54.24-2.32.31-1,.13-2.06.23-3.09.31-.8.1-1.6.14-2.43.19a97.4,97.4,0,0,1-71-24.71c-1.33-1.18-2.62-2.39-3.89-3.65-2.39-2.4-6.32-6.68-8.48-9.34V155.84c1.15-1.48,2.56-3.14,3.79-4.56.58-.67,1.16-1.3,1.74-2l.27-.29c.58-.61,1.16-1.25,1.77-1.83.81-.87,1.64-1.69,2.47-2.49.56-.53,1.09-1,1.65-1.54s1.41-1.28,2.15-1.89c1.57-1.36,3.16-2.64,4.81-3.89.69-.51,1.4-1,2.11-1.55s1.45-1,2.19-1.48v0h0v-.05a99.72,99.72,0,0,1,20.84-10.57c2.46-.89,4.93-1.7,7.42-2.38a97.41,97.41,0,0,1,100.14,30.4h0c1,1.22,2.06,2.49,3,3.78a.63.63,0,0,0,.11.13A97.66,97.66,0,0,1,174,202.09c.23,1.75.42,3.48.55,5.24,0,.57.08,1.13.11,1.7A94.89,94.89,0,0,1,172.93,234.54Z"/><g class="cls-123"><ellipse class="cls-124" cx="61.64" cy="175.23" rx="57.62" ry="36.02" transform="translate(-57.5 32.71) rotate(-20.51)"/></g><g class="cls-125"><path class="cls-126" d="M106.78,228.33c1.58,6.74-5.47,14.15-15.73,16.54S71.19,243.72,69.62,237s5.48-14.16,15.74-16.55S105.21,221.58,106.78,228.33Z"/></g><path class="cls-127" d="M189.09,196.4q-6.74,5.4-14.52,10.93c-22.14,15.8-50.13,32.15-80.61,47.1-12.54,6.15-25,11.78-37,16.78-1.66.74-3.33,1.43-5,2.07v0c-8.4,3.44-16.59,6.56-24.49,9.37-5.15,1.83-10.18,3.51-15,5-3.52,1.12-8.95,2.16-12.31,3.13L0,286c2.16-.59,6.33-1.24,8.54-1.94,4.72-1.44,9.62-3.06,14.62-4.81,9.53-3.28,19.52-7.1,29.76-11.33a4.51,4.51,0,0,0,.8-.33c12.49-5.14,25.35-10.94,38.23-17.26C123.22,235,151.79,218.2,174,202.09q6.48-4.69,12.19-9.27c22-17.63,33.07-32.41,29.61-39.51-1.9-3.89-8.36-5.8-18.64-5.54-11.3.27-25.07,2.81-42.58,7.87a.63.63,0,0,1-.11-.13c-1.11-1.16-1.73-2.15-3.06-3.78h0c18.49-5.41,33.47-8.24,45.61-8.54,12.38-.3,20.08,2.43,22.85,8.1C225.85,163.38,206.43,182.5,189.09,196.4Z"/><path class="cls-128" d="M94,6.36c22.27.23,56.78.15,77,.07A37.61,37.61,0,0,1,201,21.15c21.06,27.71,40.34,75.36,48.81,100.16C264.57,164.55,290,205.38,330,229.66c23.46,14.26,54.71,17.69,78.38,3.8,9.28-5.43,17.06-13.2,26.61-18.14,23.28-12.07,51.59-2.51,73.08,12.47,115.52,80.49,117.86,121.77,110.21,163.35a37.83,37.83,0,0,1-38.32,30.92l-52.44-1.5a37.89,37.89,0,0,1-36.81-37.95c.08-46.91-8.67-66.12-45.18-74.95-74.34-18-104.67,82.51-186.9,31.71-35.67-22-66.86-74.19-76.29-115-8.32-35.89-7.27-73.5-7.24-110.07,0-19.66-3.5-40.86-19.26-52.67C125.82,39.19,104.7,82,62.61,81A28.4,28.4,0,0,1,50.2,77.51C15.38,59.39,29.09,6.36,68.34,6.36Z"/></g></g></svg>